<svg width="136" height="150" viewBox="0 0 136 150" fill="none" xmlns="http://www.w3.org/2000/svg">
<g clip-path="url(#clip0_718_636)">
<path d="M54.0612 124.834C53.8626 118.07 52.1744 111.405 49.096 105.338C44.1307 95.2914 35.5904 87.2344 30.8238 77.0885C25.2627 65.1521 27.1495 50.7291 33.4057 41.5779C42.3432 28.7463 58.1327 23.176 70.1487 23.8723C77.6959 24.2702 100.04 26.7569 106.991 49.237C113.942 71.8166 97.259 88.1296 91.1021 97.6787C86.832 104.244 81.5688 110.61 80.8737 118.368C80.6751 120.159 80.6751 122.049 79.682 123.541C78.4903 125.331 76.107 125.928 74.0216 126.425C70.1487 127.321 66.1765 128.216 62.2043 127.52C58.4307 126.923 54.4585 124.436 54.0612 124.834Z" fill="#F8FAFC"/>
<path d="M54.9529 124.039C55.3502 124.138 55.946 124.437 56.5418 124.735C58.1307 125.431 60.3154 126.326 62.4008 126.724C66.1744 127.321 70.0474 126.426 73.821 125.63C76.0057 125.133 77.9918 124.635 78.9848 123.044C79.68 121.95 79.7793 120.557 79.9779 119.065C79.9779 118.767 79.9779 118.568 80.0772 118.269C80.673 111.605 84.4466 106.035 88.1209 100.663C88.9154 99.5692 89.7098 98.3755 90.4049 97.1819C91.398 95.5904 92.7883 93.7999 94.1785 91.91C101.229 82.361 111.954 67.8384 106.194 49.4366C99.9382 29.3437 80.8716 25.2655 70.1467 24.6686C59.0245 24.0718 43.0363 29.1448 34.2974 41.9763C27.7433 51.5254 26.6509 65.849 31.8148 76.6912C34.1981 81.8636 37.6738 86.5387 41.0502 91.1143C44.228 95.4909 47.6044 99.967 49.9877 104.941C52.8675 110.809 54.5557 117.474 54.9529 124.039ZM65.0821 128.614C64.089 128.614 63.096 128.515 62.1029 128.415C59.7196 128.017 57.3363 127.023 55.8467 126.326C55.2509 126.028 54.5557 125.73 54.2578 125.73C54.0592 125.73 53.8606 125.73 53.7613 125.73C53.4634 125.63 53.2648 125.332 53.1655 124.934C52.9668 118.369 51.2787 111.704 48.2995 105.836C45.9162 101.061 42.6391 96.5851 39.4613 92.3079C36.0849 87.6328 32.5099 82.8583 30.0273 77.5864C24.6648 66.2469 25.7572 51.227 32.7086 41.1806C41.944 27.7522 58.1307 22.3808 70.1467 23.0771C81.3682 23.7734 101.229 27.9511 107.783 49.0387C113.742 68.3358 102.719 83.2562 95.4695 93.1037C94.0792 94.9936 92.7883 96.6846 91.7952 98.2761C91.0008 99.4697 90.3056 100.564 89.5112 101.758C85.9362 107.029 82.3612 112.401 81.7654 118.568C81.7654 118.866 81.7654 119.065 81.6661 119.364C81.5668 121.055 81.3682 122.746 80.3751 124.138C78.9848 126.128 76.6015 126.824 74.2182 127.421C71.4376 127.918 68.2599 128.614 65.0821 128.614Z" fill="#525252"/>
<path d="M84.7452 114.59C84.7452 114.59 49.6904 114.092 49.6904 114.49C49.1939 121.652 49.6904 129.013 50.9814 136.075C51.6765 139.656 53.2654 148.21 66.0758 148.907C76.2049 149.503 80.8723 143.834 82.2625 137.965C83.9507 131.301 84.7452 122.647 84.7452 114.59Z" fill="#F8FAFC"/>
<path d="M50.4858 115.286C50.0885 122.149 50.4858 129.112 51.876 135.876C52.5712 139.656 54.0608 147.315 66.176 148.011C77.5961 148.707 80.6746 141.048 81.469 137.766C82.9586 131.499 83.8524 123.343 83.8524 115.385C71.5385 115.286 54.0608 115.186 50.4858 115.286ZM67.5663 149.901C67.0698 149.901 66.5732 149.901 65.9774 149.901C52.4719 149.105 50.7837 140.153 50.0885 136.373C48.6983 129.112 48.3011 121.851 48.7976 114.49C48.8969 113.595 49.3934 113.595 51.1809 113.595C52.174 113.595 53.5642 113.595 55.1531 113.595C58.033 113.595 62.1045 113.595 67.2684 113.694C75.9079 113.794 84.7461 113.893 84.7461 113.893C85.2426 113.893 85.6399 114.291 85.6399 114.788C85.6399 123.144 84.7461 131.698 83.1572 138.363C82.2635 141.844 79.0857 149.901 67.5663 149.901Z" fill="#525252"/>
<path d="M73.126 120.756C66.3733 120.756 59.6205 120.557 52.8677 120.259C52.6691 120.259 52.5698 120.159 52.5698 119.961C52.5698 119.762 52.6691 119.662 52.8677 119.662C62.3017 120.159 71.7358 120.358 81.1698 120.159C81.3684 120.159 81.4677 120.259 81.4677 120.458C81.4677 120.657 81.3684 120.756 81.1698 120.756C78.5878 120.756 75.8073 120.756 73.126 120.756Z" fill="#525252"/>
<path d="M63.0967 126.127C59.8197 126.127 56.6419 126.028 53.3648 125.928C53.1662 125.928 53.0669 125.829 53.0669 125.63C53.0669 125.431 53.1662 125.331 53.3648 125.331C62.5009 125.63 71.7363 125.53 80.7731 124.934C80.9717 124.934 81.071 125.033 81.071 125.232C81.071 125.431 80.9717 125.53 80.7731 125.53C74.9141 125.928 68.9557 126.127 63.0967 126.127Z" fill="#525252"/>
<path d="M53.9605 131.498C53.7619 131.498 53.6626 131.399 53.6626 131.2C53.6626 131.001 53.7619 130.902 53.9605 130.902L80.1771 130.305C80.3757 130.305 80.475 130.404 80.475 130.603C80.475 130.802 80.3757 130.902 80.1771 130.902L53.9605 131.498Z" fill="#525252"/>
<path d="M63.3948 136.671C60.6142 136.671 57.933 136.671 55.1524 136.671C54.9538 136.671 54.8545 136.571 54.8545 136.372C54.8545 136.174 54.9538 136.074 55.1524 136.074C63.0968 136.174 71.0413 136.074 78.9857 135.975C79.1843 135.975 79.2836 136.074 79.2836 136.273C79.2836 136.472 79.1843 136.571 78.9857 136.571C73.8218 136.571 68.5586 136.671 63.3948 136.671Z" fill="#525252"/>
<path d="M64.9841 141.247C62.2036 141.247 59.423 141.247 56.7418 141.147C56.5432 141.147 56.4438 141.048 56.4438 140.849C56.4438 140.65 56.6425 140.55 56.7418 140.55C63.6931 140.749 70.6445 140.749 77.5959 140.352C77.7945 140.352 77.8938 140.451 77.8938 140.65C77.8938 140.849 77.7945 140.948 77.5959 140.948C73.4251 141.147 69.2542 141.247 64.9841 141.247Z" fill="#525252"/>
<path d="M67.2692 145.425C64.8859 145.425 62.5025 145.325 60.1192 145.226C59.9206 145.226 59.8213 145.126 59.8213 144.927C59.8213 144.728 59.9206 144.629 60.1192 144.629C64.4886 144.927 68.9574 144.927 73.3268 144.728C73.5254 144.728 73.6247 144.828 73.6247 145.027C73.6247 145.226 73.5254 145.226 73.4261 145.226C71.3407 145.325 69.3546 145.425 67.2692 145.425Z" fill="#525252"/>
<path d="M65.7783 150C64.686 150 63.4943 149.9 62.3026 149.602C61.4089 149.403 60.5151 149.005 59.7207 148.508C61.5082 149.105 63.5936 149.602 66.0762 149.701C66.5728 149.701 67.1686 149.701 67.6651 149.701C67.7644 149.701 67.8637 149.701 67.963 149.701C67.1686 150 66.4735 150 65.7783 150Z" fill="#F8FAFC"/>
<path d="M67.5664 148.109C67.0699 148.109 66.6727 148.109 66.1762 148.109C59.1255 147.712 55.6498 144.926 53.8623 141.942C54.2595 141.445 54.8554 141.047 55.5505 141.047C55.9477 141.047 56.3449 141.147 56.7422 141.345C60.0192 143.136 61.1116 143.733 62.4026 144.131C63.0977 144.429 63.8921 144.528 64.7859 144.528C66.772 144.528 69.056 143.932 69.9498 143.434C71.0421 142.937 72.2338 142.141 73.2268 141.147C74.7164 141.147 76.206 141.047 77.6956 140.948C77.8942 140.948 77.9935 140.848 77.9935 140.649C77.9935 140.45 77.8942 140.351 77.6956 140.351C76.4046 140.45 75.1136 140.45 73.8227 140.55C75.2129 139.157 76.4046 137.566 77.0004 136.571C77.6956 136.571 78.3907 136.571 79.0859 136.571C79.2845 136.571 79.3838 136.471 79.3838 136.273C79.3838 136.074 79.2845 135.974 79.0859 135.974C78.49 135.974 77.8942 135.974 77.2984 135.974C77.8942 134.283 78.5893 132.692 78.9865 131.001H80.1782C80.3768 131.001 80.4761 130.901 80.4761 130.702C80.4761 130.503 80.3768 130.404 80.1782 130.404H79.0859C79.1852 130.105 79.1852 129.807 79.2845 129.509C79.4831 128.215 79.5824 126.922 79.6817 125.629C80.0789 125.629 80.4761 125.53 80.8734 125.53C81.072 125.53 81.1713 125.43 81.1713 125.231C81.1713 125.132 81.072 124.933 80.8734 124.933C80.4761 124.933 80.0789 124.933 79.6817 125.032C79.781 123.64 79.8803 122.247 79.9796 120.755C80.4761 120.755 80.8734 120.755 81.3699 120.755C81.5685 120.755 81.6678 120.656 81.6678 120.457C81.6678 120.258 81.5685 120.158 81.3699 120.158C80.9727 120.158 80.4761 120.158 80.0789 120.158C80.1782 118.766 80.2775 117.373 80.3768 115.782C80.3768 115.682 80.3768 115.583 80.3768 115.483C81.5685 115.483 82.7602 115.483 83.9518 115.483C83.9518 123.441 83.0581 131.498 81.5685 137.864C81.3699 138.759 80.9727 139.953 80.2775 141.246C79.3838 142.639 78.3907 143.832 77.3977 144.926C75.2129 146.717 72.0352 148.109 67.5664 148.109ZM60.1185 144.628C59.9199 144.628 59.8206 144.727 59.8206 144.926C59.8206 145.125 59.9199 145.225 60.1185 145.225C62.5019 145.324 64.8852 145.424 67.2685 145.424C69.3539 145.424 71.34 145.424 73.4255 145.324C73.6241 145.324 73.7234 145.225 73.7234 145.026C73.7234 144.827 73.6241 144.727 73.4255 144.727C71.4393 144.827 69.3539 144.827 67.3678 144.827C64.8852 144.827 62.5019 144.727 60.1185 144.628Z" fill="#F8FAFC"/>
<path d="M67.5663 149.901C67.0698 149.901 66.5732 149.901 65.9774 149.901C63.4948 149.702 61.3101 149.305 59.6219 148.708C59.2246 148.509 58.7281 148.21 58.3309 147.912C58.4302 147.912 58.4302 148.011 58.4302 148.011C57.1392 147.116 55.749 146.221 54.3587 145.326C52.9684 144.431 52.9684 142.939 53.7629 141.944C55.5504 144.928 59.026 147.713 66.0767 148.111C66.5732 148.111 67.0698 148.111 67.467 148.111C72.035 148.111 75.1135 146.718 77.1989 144.928C74.617 147.614 71.4392 149.404 67.7649 149.901C67.7649 149.901 67.6656 149.901 67.5663 149.901ZM80.1781 141.248C80.8732 139.954 81.2704 138.761 81.469 137.866C82.9586 131.599 83.8524 123.442 83.8524 115.485C82.6607 115.485 81.5683 115.485 80.2774 115.485C80.3767 114.391 81.3697 113.794 82.3628 113.794C83.1572 113.794 83.8524 114.192 84.1503 114.988C84.4482 115.385 84.3489 115.982 84.2496 116.48C84.1503 117.872 84.1503 119.265 84.051 120.657C83.9517 121.851 83.9517 123.045 83.8524 124.238C84.051 124.835 83.8524 125.332 83.8524 125.83C83.7531 128.714 83.7531 128.615 83.3558 131.201C83.1572 132.693 82.3628 136.672 80.9725 139.656C80.8732 140.153 80.476 140.651 80.1781 141.248Z" fill="#525252"/>
<path d="M79.8794 120.656C79.8794 120.457 79.8794 120.259 79.8794 120.06C80.2766 120.06 80.7731 120.06 81.1704 120.06C81.369 120.06 81.4683 120.159 81.4683 120.358C81.4683 120.557 81.369 120.656 81.1704 120.656C80.8725 120.656 80.3759 120.656 79.8794 120.656Z" fill="#525252"/>
<path d="M79.5806 125.63C79.5806 125.431 79.5806 125.232 79.5806 125.033C79.9778 125.033 80.375 125.033 80.7722 124.934C80.9708 124.934 81.0701 125.033 81.0701 125.232C81.0701 125.431 80.9708 125.53 80.7722 125.53C80.4743 125.53 79.9778 125.53 79.5806 125.63Z" fill="#525252"/>
<path d="M78.9849 130.902C78.9849 130.703 79.0842 130.504 79.0842 130.305H80.1765C80.3751 130.305 80.4744 130.404 80.4744 130.603C80.4744 130.802 80.3751 130.902 80.1765 130.902H78.9849Z" fill="#525252"/>
<path d="M76.9004 136.571C76.9997 136.372 77.099 136.174 77.1983 135.975C77.7941 135.975 78.39 135.975 78.9858 135.975C79.1844 135.975 79.2837 136.074 79.2837 136.273C79.2837 136.472 79.1844 136.571 78.9858 136.571C78.2907 136.571 77.5955 136.571 76.9004 136.571Z" fill="#525252"/>
<path d="M73.125 141.147C73.3236 140.948 73.5222 140.749 73.7208 140.55C75.0118 140.55 76.3028 140.451 77.5937 140.352C77.7923 140.352 77.8917 140.451 77.8917 140.65C77.8917 140.849 77.7923 140.948 77.5937 140.948C76.1042 141.048 74.6146 141.147 73.125 141.147Z" fill="#525252"/>
<path d="M67.2692 145.425C64.8859 145.425 62.5025 145.325 60.1192 145.226C59.9206 145.226 59.8213 145.126 59.8213 144.927C59.8213 144.828 59.9206 144.629 60.1192 144.629C62.5025 144.728 64.8859 144.828 67.2692 144.828C69.3546 144.828 71.3407 144.828 73.3268 144.728C73.5254 144.728 73.6247 144.828 73.6247 145.027C73.6247 145.226 73.5254 145.325 73.3268 145.325C71.3407 145.325 69.3546 145.425 67.2692 145.425Z" fill="#525252"/>
<path d="M58.6275 148.011C58.6275 147.911 58.5275 147.911 58.6275 148.011C58.5275 147.911 58.6275 147.911 58.6275 148.011Z" fill="#525252"/>
<path d="M69.452 0.198939C69.0548 4.17772 68.9555 8.1565 68.9555 12.1353C68.9555 12.6326 68.5582 13.0305 68.0617 13.0305C67.5652 13.0305 67.168 12.6326 67.168 12.1353C67.168 8.05703 67.2673 3.97878 67.6645 0" fill="#525252"/>
<path d="M134.299 66.4449L123.077 65.9475C122.581 65.9475 122.283 65.5497 122.283 65.0523C122.283 64.555 122.68 64.1571 123.176 64.2566L134.299 64.7539C134.795 64.7539 135.192 65.1518 135.093 65.6491C135.093 66.047 134.696 66.4449 134.299 66.4449Z" fill="#525252"/>
<path d="M115.43 109.217C115.232 109.217 115.132 109.217 114.934 109.118L105.599 102.951C105.202 102.652 105.102 102.155 105.4 101.757C105.698 101.359 106.195 101.26 106.592 101.558L115.927 107.725C116.324 108.024 116.423 108.521 116.125 108.919C116.026 109.018 115.728 109.217 115.43 109.217Z" fill="#525252"/>
<path d="M24.37 27.7513C24.1714 27.7513 23.9728 27.6518 23.7742 27.5524C20.6957 24.7672 17.8158 21.6836 15.3332 18.4012C15.0353 18.0033 15.1346 17.5059 15.4325 17.2075C15.8297 16.9091 16.3263 17.0086 16.6242 17.307C19.1068 20.49 21.8874 23.4741 24.8665 26.2592C25.2637 26.5577 25.2637 27.1545 24.9658 27.4529C24.7672 27.6518 24.5686 27.7513 24.37 27.7513Z" fill="#525252"/>
<path d="M1.82539 66.2469C1.32886 66.2469 0.931641 65.849 0.931641 65.4512C0.931641 64.9538 1.22956 64.5559 1.72608 64.5559L12.9476 64.0586C13.4441 64.0586 13.8413 64.4565 13.8413 64.8543C13.8413 65.3517 13.4441 65.7496 13.0469 65.7496L1.82539 66.2469Z" fill="#525252"/>
<path d="M18.7082 109.019C18.4103 109.019 18.1124 108.92 18.0131 108.621C17.7151 108.223 17.8145 107.726 18.2117 107.428L27.5464 101.26C27.9436 100.962 28.4401 101.061 28.738 101.459C29.036 101.857 28.9366 102.355 28.5394 102.653L19.2047 108.82C19.1054 109.019 18.9068 109.019 18.7082 109.019Z" fill="#525252"/>
<path d="M45.4214 65.7492C45.4214 53.2161 55.5505 42.9707 68.1623 42.9707C80.6748 42.9707 90.9032 53.1166 90.9032 65.7492C90.9032 78.2824 80.7741 88.5277 68.1623 88.5277C55.6498 88.5277 45.4214 78.2824 45.4214 65.7492Z" fill="#06B6D4"/>
<path d="M68.1608 43.8666C56.1449 43.8666 46.3137 53.7141 46.3137 65.7499C46.3137 77.7857 56.1449 87.6332 68.1608 87.6332C80.1768 87.6332 90.008 77.7857 90.008 65.7499C90.008 53.6146 80.2761 43.8666 68.1608 43.8666ZM68.1608 89.3242C55.1518 89.3242 44.6255 78.7804 44.6255 65.7499C44.6255 52.7194 55.1518 42.0762 68.1608 42.0762C81.1698 42.0762 91.7955 52.7194 91.7955 65.6504C91.7955 78.7804 81.1698 89.3242 68.1608 89.3242Z" fill="#525252"/>
<path d="M58.6274 64.9541C58.6274 59.5827 62.9969 55.2061 68.3594 55.2061C73.7219 55.2061 78.0913 59.5827 78.0913 64.9541C78.0913 70.3254 73.7219 74.7021 68.3594 74.7021C62.9969 74.7021 58.6274 70.3254 58.6274 64.9541Z" fill="#F8FAFC"/>
<path d="M68.3586 56.0015C63.4926 56.0015 59.5204 59.9803 59.5204 64.8543C59.5204 69.7283 63.4926 73.7071 68.3586 73.7071C73.2245 73.7071 77.1968 69.7283 77.1968 64.8543C77.1968 59.9803 73.2245 56.0015 68.3586 56.0015ZM68.3586 75.597C62.4996 75.597 57.7329 70.8225 57.7329 64.9538C57.7329 59.0851 62.4996 54.3105 68.3586 54.3105C74.2176 54.3105 78.9842 59.0851 78.9842 64.9538C78.9842 70.8225 74.2176 75.597 68.3586 75.597Z" fill="#525252"/>
<path d="M68.162 66.5449C67.9634 66.5449 67.7648 66.4454 67.5662 66.2465C67.2683 65.9481 67.2683 65.3513 67.5662 65.0529L112.949 19.1974C113.247 18.899 113.842 18.899 114.14 19.1974C114.438 19.4958 114.438 20.0927 114.14 20.3911L68.7579 66.346C68.6586 66.5449 68.3607 66.5449 68.162 66.5449Z" fill="#525252"/>
<path d="M97.1582 36.5054L109.273 24.3701L118.608 26.9563L106.592 39.0916L97.1582 36.5054Z" fill="#F8FAFC"/>
<path d="M98.8471 36.0079L106.295 38.0967L116.921 27.4535L109.473 25.3646L98.8471 36.0079ZM106.593 39.8872H106.394L97.0596 37.301C96.7617 37.2015 96.5631 37.0026 96.4638 36.7042C96.3645 36.4057 96.4638 36.1073 96.6624 35.9084L108.778 23.7731C108.976 23.5742 109.274 23.4747 109.572 23.5742L118.907 26.1604C119.205 26.2599 119.403 26.4588 119.503 26.7572C119.602 27.0556 119.503 27.354 119.304 27.553L107.189 39.6882C106.99 39.7877 106.792 39.8872 106.593 39.8872Z" fill="#525252"/>
<path d="M106.593 14.9199L94.5767 27.0552L97.1586 36.4053L109.175 24.2701L106.593 14.9199Z" fill="#F8FAFC"/>
<path d="M95.5686 27.2551L97.6541 34.7153L108.28 24.0721L106.194 16.6118L95.5686 27.2551ZM97.1575 37.3015H96.9589C96.661 37.202 96.4624 37.0031 96.3631 36.7047L93.7811 27.3545C93.6818 27.0561 93.7811 26.7577 93.9798 26.5588L106.095 14.4235C106.294 14.2246 106.592 14.1251 106.889 14.2246C107.187 14.324 107.386 14.523 107.485 14.8214L110.067 24.1715C110.167 24.4699 110.067 24.7683 109.869 24.9673L97.7534 37.0031C97.5547 37.202 97.3561 37.3015 97.1575 37.3015Z" fill="#525252"/>
<path d="M100.734 36.5058L98.8472 36.0085L109.473 25.3652L111.459 25.9621C111.459 26.161 111.36 26.4594 111.36 26.6583C111.26 27.0562 110.764 27.3546 110.466 27.653C109.671 28.3493 108.877 29.1451 107.983 29.9408C105.799 32.0297 103.614 34.218 101.23 36.2074C101.23 36.3069 100.933 36.5058 100.734 36.5058Z" fill="#F8FAFC"/>
<path d="M100.237 36.6047C99.7409 36.6047 99.2444 36.4058 98.8472 36.0079L100.734 36.5053C100.535 36.6047 100.436 36.6047 100.237 36.6047ZM98.8472 36.0079L109.771 24.8673C109.969 24.6684 110.069 24.4694 110.069 24.2705C110.863 24.37 111.558 24.9668 111.558 25.862L109.572 25.2652L98.8472 36.0079Z" fill="#525252"/>
<path d="M98.846 35.9084C98.4487 35.4111 98.3494 34.8143 98.6473 34.2175C98.846 33.7201 99.2432 33.4217 99.6404 33.1233C100.336 32.5265 100.931 32.0291 101.627 31.4323C104.01 29.3435 106.195 27.0557 108.578 24.9668C108.975 24.4694 109.472 24.2705 109.968 24.2705C110.067 24.2705 110.067 24.2705 110.167 24.2705C110.167 24.4694 110.067 24.6684 109.869 24.8673L98.846 35.9084Z" fill="#525252"/>
</g>
<defs>
<clipPath id="clip0_718_636">
<rect width="134.161" height="150" fill="white" transform="translate(0.931641)"/>
</clipPath>
</defs>
</svg>
