<svg width="135" height="150" viewBox="0 0 135 150" fill="none" xmlns="http://www.w3.org/2000/svg">
<g clip-path="url(#clip0_718_555)">
<path d="M53.4614 124.967C53.2616 118.239 51.5629 111.609 48.4651 105.574C43.4688 95.5804 34.8752 87.5659 30.0788 77.4735C24.4829 65.6002 26.3815 51.2532 32.6768 42.1503C41.4703 29.4854 57.4585 23.8455 69.5495 24.5381C77.1439 24.9339 99.6272 27.4075 106.622 49.769C113.617 72.2294 96.8293 88.4564 90.6339 97.955C86.3371 104.485 81.041 110.818 80.3415 118.536C80.1417 120.317 80.1417 122.196 79.1424 123.681C77.9433 125.462 75.5451 126.055 73.4466 126.55C69.5495 127.441 65.5525 128.331 61.5554 127.638C57.7583 127.045 53.8611 124.571 53.4614 124.967Z" fill="#F8FAFC"/>
<path d="M54.3586 124.176C54.7583 124.275 55.3578 124.572 56.0573 124.869C57.6561 125.561 59.7546 126.452 61.953 126.848C65.7501 127.441 69.6473 126.551 73.4444 125.759C75.6428 125.265 77.6413 124.77 78.6406 123.187C79.3401 122.098 79.44 120.713 79.6399 119.229C79.6399 118.932 79.6399 118.734 79.7398 118.437C80.3393 111.808 84.1365 106.267 87.8338 100.924C88.6332 99.8358 89.4326 98.6484 90.1321 97.4611C91.1313 95.878 92.5303 94.097 93.9293 92.217C101.024 82.7183 111.816 68.2724 106.02 49.9677C99.725 29.9809 80.5392 25.9241 69.7472 25.3305C58.4556 24.7368 42.3675 29.8819 33.4741 42.5468C26.8789 52.0455 25.7798 66.2935 30.9759 77.0785C33.3741 82.2236 36.8715 86.874 40.269 91.4255C43.4667 95.779 46.8641 100.232 49.2624 105.179C52.2601 111.016 53.9589 117.646 54.3586 124.176ZM64.551 128.728C63.5518 128.728 62.5525 128.629 61.6532 128.53C59.255 128.134 56.8567 127.144 55.3578 126.452C54.7583 126.155 54.0588 125.858 53.759 125.858C53.5592 125.858 53.3593 125.858 53.2594 125.858C52.9596 125.759 52.7598 125.462 52.6598 125.067C52.46 118.536 50.7612 111.907 47.7635 106.069C45.3652 101.32 42.0677 96.8674 38.8701 92.6128C35.4726 87.9624 31.8752 83.2131 29.3771 77.969C23.9811 66.4914 25.0803 51.6497 32.0751 41.5574C41.3682 28.1999 57.6561 22.8569 69.6473 23.5495C80.9389 24.2421 100.924 28.3978 107.519 49.374C113.515 68.5693 102.423 83.4109 95.1284 93.2065C93.7294 95.0864 92.4304 96.7685 91.4311 98.3516C90.6317 99.5389 89.8323 100.627 89.1328 101.815C85.5355 107.059 81.9382 112.402 81.3386 118.536C81.3386 118.833 81.3386 119.031 81.2387 119.328C81.1387 121.01 80.9389 122.692 80.0396 124.077C78.6406 126.056 76.2424 126.749 73.7442 127.342C70.9463 128.035 67.7487 128.728 64.551 128.728Z" fill="#525252"/>
<path d="M72.0483 72.8239C70.5494 73.7144 69.0505 74.506 64.354 72.626C62.5553 71.9334 58.1586 68.1735 61.4561 61.94C62.5553 59.9611 64.6537 58.477 66.952 58.378C69.2503 58.2791 71.049 58.5759 72.5479 59.4664C74.9461 60.8516 76.3451 63.6221 76.1452 66.2936C76.0453 68.9651 74.4465 71.4387 72.0483 72.8239ZM92.1334 65.8978C89.6352 64.6115 88.0364 64.8094 85.938 63.9189C85.3384 61.8411 84.1393 58.2791 83.5398 56.3002C85.2385 54.1234 86.2378 53.5297 87.7367 51.6498C87.7367 51.3529 87.4369 51.1551 87.237 50.8582C86.6375 50.2646 86.1378 49.6709 85.5383 49.0772C83.4398 46.9994 81.0416 45.1194 78.5435 43.5363C76.8447 45.7131 75.5457 47.7909 74.2466 49.8688C71.6486 49.3741 68.9506 49.2751 66.2526 49.473C65.5531 47.0983 64.6537 44.7237 63.5546 42.5469C60.1571 43.7342 56.8595 45.3173 53.9617 47.4941C54.9609 49.6709 55.7603 50.9572 56.9594 52.8371C55.2607 55.1128 53.562 57.1907 52.3629 59.4664C49.7648 58.5759 47.6663 58.378 45.2681 57.4875C43.5694 61.4453 42.67 65.601 43.3695 69.6577C45.9676 69.5587 47.4665 69.163 49.7648 68.8661C50.5642 71.4387 51.8632 73.9123 53.462 76.188C51.8632 78.2659 51.1637 80.0469 49.7648 81.63C51.6634 84.4994 54.3614 86.6762 57.3592 88.1603C58.6582 86.0825 59.5575 84.8952 60.7566 83.1142C63.1549 83.5099 66.1526 84.2025 68.5509 84.1036C69.75 86.2804 70.0498 87.4677 70.7492 89.6445C74.5464 89.5456 78.1438 88.6551 81.6412 87.0719C80.8418 84.5983 80.8418 83.1142 79.8425 81.1353C81.6412 79.2553 83.3399 76.7817 84.4391 74.7039C86.9372 74.7039 87.9365 75.0007 90.1349 75.2975C91.4339 72.1313 92.1334 68.9651 92.1334 65.8978Z" fill="#06B6D4"/>
<path d="M67.749 59.169C67.5492 59.169 67.3493 59.169 67.0495 59.169C65.1509 59.2679 63.2524 60.4553 62.353 62.2363C61.1539 64.4131 60.9541 66.4909 61.5536 68.2719C62.2531 70.1518 63.8519 71.4381 64.7512 71.735C69.148 73.516 70.3471 72.7244 71.6461 72.0318C73.7446 70.8445 75.2435 68.4698 75.3434 66.0951C75.4433 63.6215 74.1443 61.2468 72.1458 60.0595C71.0466 59.4658 69.6476 59.169 67.749 59.169ZM69.0481 74.6044C67.8489 74.6044 66.2501 74.3075 64.0518 73.417C62.9526 73.0212 60.8541 71.5371 59.8549 68.9645C59.0555 66.6888 59.3552 64.1162 60.7542 61.5437C62.0532 59.169 64.4515 57.6848 66.9496 57.5859C69.6476 57.4869 71.4463 57.8827 72.9452 58.7732C75.5432 60.2574 77.1421 63.3247 77.0421 66.3919C76.8423 69.3603 75.1435 72.1307 72.4455 73.7138C71.4463 74.1096 70.447 74.6044 69.0481 74.6044ZM68.4485 83.2125C68.7483 83.2125 69.0481 83.4104 69.2479 83.7072C70.3471 85.6861 70.7468 86.9724 71.2464 88.7534C74.2442 88.5555 77.3419 87.8629 80.4396 86.6756C80.2398 85.983 80.1398 85.3893 79.94 84.7956C79.6402 83.7072 79.4404 82.7178 78.9407 81.5305C78.7409 81.2336 78.8408 80.8379 79.1406 80.541C80.8393 78.859 82.5381 76.4843 83.5373 74.3075C83.6372 74.0107 83.937 73.8128 84.3367 73.8128C86.1354 73.8128 87.2346 73.9117 88.5336 74.1096C88.8334 74.1096 89.1332 74.2086 89.5329 74.2086C90.6321 71.735 91.2316 69.1624 91.3316 66.3919C90.3323 65.8972 89.433 65.6993 88.5336 65.5014C87.6343 65.3036 86.735 65.1057 85.7357 64.611C85.5358 64.512 85.336 64.3141 85.2361 64.0173C84.8364 62.731 84.2368 60.7521 83.6372 59.0701C83.3375 58.0806 83.0377 57.1901 82.7379 56.3985C82.638 56.1017 82.7379 55.8049 82.8378 55.607C83.7372 54.4197 84.5366 53.6281 85.2361 52.9355C85.7357 52.4408 86.1354 51.946 86.635 51.3524L86.5351 51.2534C85.9355 50.6598 85.4359 50.0661 84.8364 49.4724C82.9378 47.5925 80.8393 45.9104 78.6409 44.4263C77.242 46.4051 76.0429 48.2851 74.8438 50.0661C74.6439 50.3629 74.3441 50.5608 73.9444 50.4619C71.3464 49.9671 68.7483 49.8682 66.2501 50.0661C65.8504 50.0661 65.4507 49.8682 65.3508 49.4724C64.7512 47.5925 63.9518 45.5146 63.0525 43.5358C59.9548 44.6241 57.2568 46.0094 55.0584 47.6914C55.8578 49.3735 56.5573 50.4619 57.5566 52.045L57.7564 52.3418C57.9563 52.6387 57.9563 53.0344 57.7564 53.3313L56.957 54.1228C55.4581 56.0028 54.1591 57.8827 53.0599 59.7627C52.86 60.1584 52.4603 60.2574 52.0606 60.1584C50.7616 59.7627 49.6624 59.4658 48.5632 59.169C47.6639 58.9711 46.6646 58.6743 45.7653 58.3774C44.2664 62.0384 43.7668 65.4025 44.1665 68.5687C45.3656 68.4698 46.2649 68.3708 47.2642 68.173C48.0636 68.074 48.7631 67.9751 49.6624 67.8761C50.0621 67.8761 50.4618 68.074 50.5618 68.4698C51.2612 70.7455 52.4603 73.2191 54.1591 75.5938C54.3589 75.8906 54.3589 76.2864 54.1591 76.5832C53.4596 77.4737 52.96 78.3642 52.4603 79.1558C51.9607 79.9474 51.4611 80.7389 50.8615 81.5305C52.4603 83.7073 54.5588 85.5872 57.0569 86.9724C58.2561 85.1914 59.0555 84.0041 60.0547 82.5199C60.2546 82.2231 60.5543 82.1241 60.9541 82.1241L61.6535 82.2231C63.752 82.8167 66.3501 83.3115 68.4485 83.2125ZM70.6469 90.4355C70.2472 90.4355 69.9474 90.1387 69.8475 89.8418L69.7475 89.545C69.2479 87.764 68.8482 86.6756 68.0488 84.9935C65.8504 84.9935 63.3523 84.5978 61.3538 84.202H61.1539C60.1546 85.5872 59.3552 86.8735 58.0562 88.7534C57.8563 89.1492 57.3567 89.2481 56.957 89.0503C53.6595 87.4671 50.9615 85.0925 49.0629 82.2231C48.863 81.9262 48.863 81.5305 49.1628 81.2336C49.8623 80.3431 50.4618 79.4526 51.0614 78.5621C51.4611 77.8695 51.9607 77.1769 52.4603 76.3853C51.0614 74.2086 49.9622 72.1307 49.2627 70.0529C48.6632 70.1518 48.1635 70.2508 47.564 70.2508C46.2649 70.4487 45.1657 70.6466 43.467 70.7455C43.0673 70.7455 42.6676 70.4487 42.5677 70.0529C41.8682 66.1941 42.4677 61.9394 44.4663 57.388C44.6661 56.9922 45.1657 56.7943 45.5655 56.8933C46.7646 57.289 47.8637 57.5859 49.0629 57.8827C49.9622 58.0806 50.9615 58.3774 52.0606 58.6743C53.1598 56.8933 54.4589 55.2112 55.7579 53.4302L56.0577 53.0344C55.0584 51.4513 54.259 50.165 53.3597 48.0872C53.1598 47.6914 53.2598 47.2956 53.6595 47.0978C56.3575 45.0199 59.655 43.3379 63.4522 42.0516C63.8519 41.9526 64.3515 42.1505 64.5514 42.5463C65.5506 44.6241 66.3501 46.8009 67.0495 48.9777C69.3478 48.7798 71.6461 48.8788 73.9444 49.2745C75.1435 47.3946 76.4426 45.4157 77.9415 43.3379C78.2412 42.9421 78.7409 42.8431 79.1406 43.14C81.7387 44.7231 84.1369 46.702 86.3353 48.8788C86.9348 49.4724 87.5344 50.0661 88.034 50.6598C88.3338 50.9566 88.7335 51.3524 88.7335 51.8471C88.7335 52.045 88.7335 52.3418 88.5336 52.5397C87.8341 53.4302 87.2346 54.0239 86.635 54.6175C86.0355 55.2112 85.4359 55.9038 84.6365 56.7943C84.8364 57.4869 85.1361 58.1795 85.336 58.9711C85.8356 60.5542 86.4352 62.3352 86.8349 63.6215C87.5344 63.9183 88.2338 64.0173 88.9333 64.2152C90.0325 64.4131 91.2316 64.7099 92.6306 65.5014C92.9304 65.6993 93.1302 65.9962 93.1302 66.293C93.0303 69.855 92.3308 73.0212 90.9318 75.9896C90.732 76.2864 90.4322 76.4843 90.0325 76.4843C89.433 76.3854 88.8334 76.2864 88.3338 76.2864C87.2346 76.0885 86.3353 75.9896 84.9363 75.9896C83.937 77.9685 82.4381 80.0463 80.8393 81.7284C81.239 82.8167 81.5388 83.7072 81.7387 84.7956C81.9385 85.5872 82.1384 86.3788 82.4381 87.2693C82.5381 87.665 82.3382 88.1598 81.9385 88.3577C78.1413 89.446 74.3441 90.3365 70.6469 90.4355Z" fill="#525252"/>
<path d="M84.3374 114.776C84.3374 114.776 49.0635 114.281 49.0635 114.677C48.5639 121.801 48.9636 129.123 50.3625 136.148C51.062 139.71 52.6608 148.219 65.5513 148.912C75.7437 149.505 80.4403 143.866 81.8392 138.028C83.438 131.399 84.3374 122.79 84.3374 114.776Z" fill="#F8FAFC"/>
<path d="M49.8638 115.468C49.4641 122.295 49.8638 129.221 51.2628 135.95C51.9623 139.71 53.4611 147.328 65.6521 148.021C77.1436 148.714 80.2413 141.095 81.0407 137.83C82.5396 131.596 83.4389 123.483 83.4389 115.567C71.0481 115.468 53.4611 115.369 49.8638 115.468ZM67.0511 149.901C66.5514 149.901 66.0518 149.901 65.4523 149.901C51.8623 149.109 50.1636 140.204 49.4641 136.444C48.0651 129.221 47.6654 121.999 48.1651 114.677C48.265 113.786 48.7646 113.786 50.5633 113.786C51.5626 113.786 52.9615 113.786 54.5603 113.786C57.4582 113.786 61.5551 113.786 66.6514 113.885C75.3449 113.984 84.2383 114.083 84.3383 114.083C84.8379 114.083 85.2376 114.479 85.2376 114.973C85.2376 123.285 84.4382 131.794 82.7395 138.423C81.8401 141.886 78.6425 149.901 67.0511 149.901Z" fill="#525252"/>
<path d="M72.6453 120.91C65.8503 120.91 59.0554 120.712 52.3603 120.415C52.1605 120.415 52.0605 120.316 52.0605 120.118C52.0605 119.92 52.1605 119.821 52.3603 119.821C61.8533 120.316 71.4462 120.514 80.8392 120.316C81.0391 120.316 81.139 120.415 81.139 120.613C81.139 120.811 81.0391 120.91 80.8392 120.91C78.1412 120.811 75.3433 120.91 72.6453 120.91Z" fill="#525252"/>
<path d="M62.5537 126.254C59.2561 126.254 56.0585 126.155 52.761 126.056C52.5611 126.056 52.4612 125.957 52.4612 125.759C52.4612 125.561 52.5611 125.462 52.761 125.462C61.9541 125.759 71.2473 125.66 80.3405 125.066C80.5404 125.066 80.6403 125.165 80.6403 125.363C80.6403 125.561 80.5404 125.66 80.3405 125.66C74.4449 126.056 68.4493 126.254 62.5537 126.254Z" fill="#525252"/>
<path d="M53.3603 131.597C53.1605 131.597 53.0605 131.498 53.0605 131.3C53.0605 131.102 53.1605 131.003 53.3603 131.003L79.7408 130.409C79.9406 130.409 80.0406 130.508 80.0406 130.706C80.0406 130.904 79.9406 131.003 79.7408 131.003L53.3603 131.597Z" fill="#525252"/>
<path d="M62.8534 136.741C60.0555 136.741 57.3575 136.741 54.5595 136.741C54.3597 136.741 54.2598 136.642 54.2598 136.445C54.2598 136.247 54.3597 136.148 54.5595 136.148C62.5536 136.247 70.5477 136.148 78.5418 136.049C78.7416 136.049 78.8416 136.148 78.8416 136.346C78.8416 136.544 78.7416 136.643 78.5418 136.643C73.3456 136.643 68.0496 136.741 62.8534 136.741Z" fill="#525252"/>
<path d="M64.453 141.293C61.6551 141.293 58.8572 141.293 56.1592 141.194C55.9593 141.194 55.8594 141.095 55.8594 140.897C55.8594 140.699 55.9593 140.6 56.1592 140.6C63.154 140.798 70.1488 140.798 77.1436 140.402C77.3435 140.402 77.4434 140.501 77.4434 140.699C77.4434 140.897 77.3435 140.996 77.1436 140.996C72.9467 141.194 68.7498 141.293 64.453 141.293Z" fill="#525252"/>
<path d="M66.7523 145.449C64.354 145.449 61.9558 145.35 59.5576 145.251C59.3577 145.251 59.2578 145.152 59.2578 144.954C59.2578 144.756 59.3577 144.657 59.5576 144.657C63.9543 144.954 68.451 144.954 72.8477 144.756C73.0476 144.756 73.1475 144.855 73.1475 145.053C73.1475 145.251 73.0476 145.35 72.8477 145.35C70.8492 145.35 68.8507 145.449 66.7523 145.449Z" fill="#525252"/>
<path d="M65.2517 150C64.1526 150 62.9534 149.902 61.7543 149.605C60.855 149.407 59.9557 149.011 59.1562 148.615C60.9549 149.209 63.0534 149.704 65.5515 149.803C66.0511 149.803 66.6507 149.803 67.1503 149.803C67.2503 149.803 67.3502 149.803 67.4501 149.803C66.6507 150 65.9512 150 65.2517 150Z" fill="#F8FAFC"/>
<path d="M67.0515 148.121C66.5519 148.121 66.1522 148.121 65.6525 148.121C58.5578 147.725 55.0604 144.955 53.2617 141.986C53.6614 141.492 54.261 141.096 54.9605 141.096C55.3602 141.096 55.7599 141.195 56.1596 141.393C59.4571 143.174 60.5563 143.767 61.8554 144.163C62.4549 144.46 63.3542 144.559 64.1536 144.559C66.1522 144.559 68.4505 143.965 69.3498 143.47C70.449 142.976 71.6481 142.184 72.6474 141.195C74.1462 141.195 75.6451 141.096 77.144 140.997C77.3439 140.997 77.4438 140.898 77.4438 140.7C77.4438 140.601 77.3439 140.403 77.144 140.403C75.845 140.502 74.546 140.502 73.3468 140.601C74.7458 139.216 75.9449 137.633 76.5445 136.643C77.244 136.643 77.9434 136.643 78.6429 136.643C78.8428 136.643 78.9427 136.544 78.9427 136.346C78.9427 136.149 78.8428 136.05 78.6429 136.05C78.0434 136.05 77.4438 136.05 76.8443 136.05C77.4438 134.368 78.1433 132.784 78.543 131.102H79.7421C79.942 131.102 80.0419 131.003 80.0419 130.806C80.0419 130.707 79.942 130.509 79.7421 130.509H78.6429C78.7428 130.212 78.7428 129.915 78.8428 129.618C78.9427 128.332 79.1425 127.046 79.1425 125.759C79.5422 125.759 79.942 125.66 80.3417 125.66C80.5415 125.66 80.6414 125.561 80.6414 125.364C80.6414 125.166 80.5415 125.067 80.3417 125.067C79.942 125.067 79.5423 125.067 79.2425 125.166C79.3424 123.78 79.4423 122.395 79.5422 120.911C80.0419 120.911 80.4416 120.911 80.9412 120.911C81.1411 120.911 81.241 120.812 81.241 120.614C81.241 120.416 81.1411 120.317 80.9412 120.317C80.5415 120.317 80.0419 120.317 79.6422 120.317C79.7421 118.932 79.842 117.547 79.942 115.964C79.942 115.865 79.942 115.766 79.942 115.667C81.1411 115.667 82.3402 115.667 83.5393 115.667C83.5393 123.583 82.64 131.597 81.1411 137.93C80.9412 138.82 80.5415 140.007 79.842 141.294C78.9427 142.679 77.9434 143.965 76.8443 145.054C74.6459 146.736 71.5482 148.121 67.0515 148.121ZM59.5571 144.658C59.3572 144.658 59.2573 144.757 59.2573 144.955C59.2573 145.152 59.3572 145.251 59.5571 145.251C61.9553 145.35 64.3535 145.449 66.7517 145.449C68.8502 145.449 70.8487 145.449 72.9471 145.35C73.147 145.35 73.2469 145.251 73.2469 145.054C73.2469 144.856 73.147 144.757 72.9471 144.757C70.9486 144.856 68.8502 144.856 66.8517 144.856C64.3535 144.856 61.9553 144.757 59.5571 144.658Z" fill="#F8FAFC"/>
<path d="M67.0503 149.901C66.5507 149.901 66.051 149.901 65.4515 149.901C62.9533 149.703 60.755 149.307 59.0562 148.713C58.6565 148.515 58.1569 148.219 57.8571 147.922C57.8571 147.922 57.957 148.021 58.057 148.021C56.658 147.13 55.359 146.24 53.96 145.349C52.561 144.459 52.561 142.974 53.3604 141.985C55.1591 144.953 58.6565 147.724 65.7513 148.12C66.2509 148.12 66.7505 148.12 67.1502 148.12C71.7468 148.12 74.8445 146.734 76.943 144.953C74.3449 147.625 71.1473 149.307 67.5499 149.802C67.2502 149.901 67.1502 149.901 67.0503 149.901ZM79.7409 141.193C80.4404 139.907 80.7402 138.72 81.0399 137.829C82.5388 131.596 83.4382 123.482 83.4382 115.567C82.339 115.567 81.1399 115.567 79.8408 115.567C79.9408 115.171 80.0407 114.775 80.3405 114.478C80.4404 114.478 80.5403 114.478 80.7402 114.478C80.8401 114.478 80.8401 114.478 80.94 114.478C81.1399 114.478 81.3397 114.478 81.5396 114.379C81.5396 114.182 81.6395 113.984 81.6395 113.885C81.7394 113.885 81.8393 113.885 81.9393 113.885C82.6388 113.885 83.4382 114.281 83.7379 115.072C84.0377 115.468 83.9378 116.062 83.8379 116.556C83.7379 117.941 83.7379 119.327 83.638 120.712C83.5381 121.899 83.5381 123.087 83.4382 124.274C83.638 124.868 83.4382 125.362 83.4382 125.857C83.3382 128.726 83.3382 128.628 82.9385 131.2C82.7387 132.684 81.9393 136.642 80.5403 139.61C80.4404 140.204 80.0407 140.699 79.7409 141.193Z" fill="#525252"/>
<path d="M79.4414 120.811C79.4414 120.614 79.4414 120.416 79.4414 120.218C79.8411 120.218 80.3407 120.218 80.7404 120.218C80.9403 120.218 81.0402 120.317 81.0402 120.515C81.0402 120.712 80.9403 120.811 80.7404 120.811C80.3407 120.811 79.941 120.811 79.4414 120.811Z" fill="#525252"/>
<path d="M79.1406 125.659C79.1406 125.462 79.1406 125.264 79.1406 125.066C79.5403 125.066 79.94 125.066 80.2398 124.967C80.4397 124.967 80.5396 125.066 80.5396 125.264C80.5396 125.462 80.4397 125.56 80.2398 125.56C79.94 125.659 79.5403 125.659 79.1406 125.659Z" fill="#525252"/>
<path d="M78.541 131.003C78.541 130.805 78.6409 130.607 78.6409 130.409H79.7401C79.8401 130.409 80.0399 130.508 80.0399 130.706C80.0399 130.904 79.94 131.003 79.7401 131.003H78.541Z" fill="#525252"/>
<path d="M76.4434 136.643C76.5433 136.445 76.6432 136.247 76.7431 136.049C77.3427 136.049 77.9422 136.049 78.5418 136.049C78.7417 136.049 78.8416 136.148 78.8416 136.346C78.8416 136.544 78.7417 136.643 78.5418 136.643C77.8423 136.544 77.1428 136.643 76.4434 136.643Z" fill="#525252"/>
<path d="M72.6445 141.194C72.8444 140.996 73.0442 140.798 73.2441 140.6C74.5431 140.6 75.8422 140.501 77.0413 140.402C77.1412 140.402 77.3411 140.501 77.3411 140.699C77.3411 140.897 77.2411 140.996 77.0413 140.996C75.6423 141.095 74.1434 141.095 72.6445 141.194Z" fill="#525252"/>
<path d="M66.7523 145.449C64.354 145.449 61.9558 145.35 59.5576 145.251C59.3577 145.251 59.2578 145.152 59.2578 144.954C59.2578 144.756 59.3577 144.657 59.5576 144.657C61.9558 144.756 64.354 144.855 66.7523 144.855C68.7508 144.855 70.8492 144.855 72.8477 144.756C72.9477 144.756 73.1475 144.855 73.1475 145.053C73.1475 145.251 73.0476 145.35 72.8477 145.35C70.8492 145.35 68.8507 145.449 66.7523 145.449Z" fill="#525252"/>
<path d="M67.5497 13.6537C67.0501 13.6537 66.6504 13.2579 66.6504 12.7632C66.6504 8.70646 66.7503 4.64973 67.15 0.691947C67.15 0.197224 67.6497 -0.0996094 68.0494 -0.0996094C68.6489 -0.000664786 68.9487 0.494058 68.9487 0.889836C68.549 4.84762 68.4491 8.8054 68.4491 12.7632C68.4491 13.2579 68.0494 13.6537 67.5497 13.6537Z" fill="#525252"/>
<path d="M111.518 28.4966C111.318 28.4966 111.019 28.3976 110.919 28.1998C110.619 27.804 110.619 27.3093 111.019 27.0124C114.016 24.3409 116.814 21.2736 119.313 18.1074C119.612 17.7116 120.112 17.7116 120.512 18.0085C120.911 18.3053 120.911 18.8 120.612 19.1958C118.014 22.461 115.216 25.5283 112.118 28.2987C111.918 28.3976 111.718 28.4966 111.518 28.4966Z" fill="#525252"/>
<path d="M134.1 66.8867L122.909 66.392C122.409 66.392 122.009 65.9962 122.109 65.5015C122.109 65.0068 122.509 64.71 123.008 64.71L134.2 65.2047C134.7 65.2047 135.1 65.6005 135 66.0952C135 66.491 134.6 66.8867 134.1 66.8867Z" fill="#525252"/>
<path d="M115.214 109.433C115.014 109.433 114.914 109.433 114.714 109.334L105.321 103.199C104.922 102.903 104.822 102.408 105.122 102.012C105.421 101.616 105.921 101.517 106.321 101.814L115.714 107.949C116.113 108.246 116.213 108.74 115.914 109.136C115.714 109.235 115.514 109.433 115.214 109.433Z" fill="#525252"/>
<path d="M23.5848 28.3978C23.385 28.3978 23.1851 28.2989 22.9853 28.1999C19.8876 25.4295 16.9897 22.3622 14.4916 19.097C14.1918 18.7013 14.2917 18.2065 14.5915 17.9097C14.9912 17.6129 15.4908 17.7118 15.7906 18.0086C18.2887 21.1749 21.0867 24.1432 24.0844 26.9137C24.4841 27.2105 24.4841 27.8042 24.1844 28.101C23.9845 28.2989 23.7847 28.3978 23.5848 28.3978Z" fill="#525252"/>
<path d="M0.899334 66.6885C0.399704 66.6885 0.099926 66.2927 0 65.8969C0 65.4022 0.399704 65.0064 0.799408 65.0064L11.9911 64.5117C12.4907 64.5117 12.8905 64.9075 12.8905 65.3033C12.8905 65.798 12.4907 66.1938 12.091 66.1938L0.899334 66.6885Z" fill="#525252"/>
<path d="M17.8875 109.235C17.5877 109.235 17.2879 109.136 17.188 108.839C16.8882 108.443 16.9881 107.949 17.3878 107.652L26.7809 101.517C27.1806 101.22 27.6802 101.319 27.98 101.715C28.2798 102.111 28.1798 102.606 27.7801 102.903L18.3871 109.037C18.2872 109.235 18.0873 109.235 17.8875 109.235Z" fill="#525252"/>
<path d="M80.5405 113.885C77.143 113.885 71.8469 113.786 66.6508 113.786C61.5546 113.786 57.4576 113.687 54.5597 113.687C53.8603 113.687 53.2607 113.687 52.6612 113.687C51.8617 110.718 50.7626 107.849 49.3636 105.177C48.2644 102.902 46.9654 100.824 45.5664 98.746C48.4643 100.923 51.562 102.902 54.8595 104.485C56.2585 105.177 58.257 105.87 60.6552 106.761C61.3547 106.958 62.0542 107.156 63.4532 107.453C64.3525 107.552 65.3518 107.651 66.351 107.651C67.8499 107.651 69.5486 107.453 71.2474 107.057C73.7455 106.563 76.6434 104.485 79.7411 102.209C80.0409 102.011 80.5405 101.615 80.6404 101.516L80.7404 101.417C80.9402 101.22 82.1393 100.23 82.4391 100.032C82.8388 99.7354 83.1386 99.4386 83.4384 99.1418C84.6375 97.6576 85.8366 96.2724 87.1356 94.8872C88.6345 93.403 90.0335 91.8199 91.7322 90.4346C92.8314 89.3463 93.9306 88.2579 95.0298 87.1695C97.3281 84.7948 100.026 81.9254 102.424 79.2539C99.7263 84.3001 96.5287 88.6536 93.8307 92.2156C92.4317 94.0956 91.1327 95.8766 90.0335 97.4597C89.334 98.647 88.5346 99.7354 87.7352 100.923C84.9372 104.979 82.0394 109.234 80.5405 113.885Z" fill="#F8FAFC"/>
<path d="M81.6396 113.886C81.3398 113.886 80.9401 113.886 80.5404 113.886C82.0393 109.235 84.9371 104.981 87.7351 100.825C88.5345 99.7366 89.3339 98.5493 90.0334 97.362C91.0326 95.7788 92.4316 93.9978 93.8305 92.1179C96.5285 88.4569 99.8261 84.1034 102.424 79.1561C103.423 78.0678 104.323 76.9794 105.122 76.0889C104.123 78.1667 103.124 80.2445 102.024 82.3224C101.825 82.8171 101.525 83.3118 101.325 83.8065C97.328 89.9411 92.2317 95.2841 88.0348 101.122C85.6366 104.387 83.4382 107.85 81.8394 111.61C81.6396 112.006 81.6396 112.5 82.0393 112.896C81.8394 113.193 81.7395 113.589 81.6396 113.886ZM52.1614 113.688C51.9616 113.391 51.8616 113.094 51.6618 112.797C48.8639 106.465 47.265 102.111 44.3672 97.7577C44.7669 98.0546 45.1666 98.3514 45.5663 98.6482C46.9653 100.726 48.2643 102.903 49.3635 105.08C50.7625 107.85 51.8616 110.621 52.661 113.589C52.4612 113.688 52.2613 113.688 52.1614 113.688Z" fill="#525252"/>
<path d="M58.3559 115.27C57.8563 115.27 57.2567 115.27 56.7571 115.27C55.6579 115.27 54.6586 114.973 53.5594 114.973C53.4595 114.973 53.2597 114.973 53.1597 114.973C52.9599 114.973 52.86 114.973 52.76 114.874C52.6601 114.775 52.6601 114.676 52.5602 114.478C52.3603 114.182 52.2604 113.885 52.0605 113.588C52.2604 113.588 52.3603 113.588 52.5602 113.588C53.1597 113.588 53.7593 113.588 54.4588 113.588C57.3566 113.588 61.4536 113.588 66.5498 113.687C71.746 113.687 77.042 113.786 80.4395 113.786C80.8392 113.786 81.2389 113.786 81.5387 113.786C81.0391 113.885 80.6394 114.083 80.3396 114.379C80.1397 114.379 79.9399 114.478 79.84 114.478C79.5402 114.577 79.2404 114.577 78.5409 114.577C78.441 114.577 78.3411 114.577 78.2412 114.577C77.2419 114.379 75.8429 114.182 73.8444 114.182C73.1449 114.182 72.3455 114.182 71.5461 114.28C68.5483 114.28 65.5506 114.874 62.4529 114.973C61.1538 115.27 59.7548 115.27 58.3559 115.27Z" fill="#525252"/>
<path d="M80.3418 114.578C80.6418 114.281 81.1418 113.984 81.5418 113.984C81.4418 114.182 81.4418 114.38 81.4418 114.479C81.2418 114.479 81.0418 114.578 80.8418 114.578C80.7418 114.578 80.7418 114.578 80.6418 114.578C80.6418 114.578 80.4418 114.578 80.3418 114.578Z" fill="#525252"/>
<path d="M69.4484 88.7531C69.2484 88.4563 69.1484 88.1595 69.1484 87.7637C69.2484 88.0605 69.3484 88.4563 69.4484 88.7531Z" fill="#F8FAFC"/>
<path d="M71.2457 88.6549C70.9459 87.5665 70.6461 86.676 70.1465 85.5876C70.2464 85.4887 70.3463 85.4887 70.4463 85.3898C70.746 85.1919 71.1457 85.1919 71.4455 85.1919C71.5455 85.1919 71.6454 85.1919 71.7453 85.1919C71.8452 85.1919 71.9452 85.1919 72.0451 85.1919C72.145 85.1919 72.145 85.1919 72.2449 85.1919C74.5432 85.1919 73.7438 85.2908 75.5425 84.7961C76.7416 84.5982 78.0406 83.8066 79.3397 83.8066C79.4396 83.8066 79.6395 83.8066 79.7394 83.8066C79.8393 84.0045 79.8393 84.3014 79.9392 84.4993C80.0392 85.0929 80.239 85.6866 80.4389 86.3792C77.3412 87.8634 74.3434 88.556 71.2457 88.6549Z" fill="#06B6D4"/>
<path d="M72.3467 89.9406C72.0469 89.9406 71.7472 89.9406 71.4474 89.9406C70.548 89.9406 69.8486 89.4459 69.5488 88.7532C69.4489 88.4564 69.3489 88.1596 69.249 87.7638C69.1491 86.9722 69.4489 86.0817 70.2483 85.587C70.648 86.5765 70.9478 87.5659 71.3475 88.6543C74.3452 88.4564 77.4429 87.7638 80.5406 86.5765C80.3408 85.8839 80.2409 85.2902 80.041 84.6965C79.9411 84.4986 79.9411 84.2018 79.8412 84.0039H79.9411C81.7398 84.3997 82.2394 86.9722 80.7405 88.0606C79.8412 88.6543 78.742 88.8522 77.7427 89.149C75.9441 89.6437 74.1454 89.9406 72.3467 89.9406Z" fill="#525252"/>
<path d="M89.5345 74.2078C89.1348 74.2078 88.835 74.1089 88.5352 74.1089C87.9357 74.0099 87.3361 73.911 86.7366 73.911C86.7366 73.4163 87.1363 73.0205 87.3361 72.5258C88.2355 70.8437 88.1355 71.0416 88.6352 69.8543C88.9349 68.9638 89.2347 68.0733 89.4346 67.0838C89.5345 66.688 89.5345 66.2923 89.7344 65.8965C90.234 65.9954 90.7336 66.1933 91.3332 66.4902C91.1333 69.2606 90.5338 71.8332 89.5345 74.2078Z" fill="#06B6D4"/>
<path d="M92.9316 67.7771C93.0316 67.1834 93.0316 66.5898 93.0316 65.9961C93.0316 66.095 93.1316 66.194 93.1316 66.2929C93.1316 66.7877 93.0316 67.2824 92.9316 67.7771Z" fill="#F8FAFC"/>
<path d="M88.5336 75.7918C87.5344 75.7918 86.5351 75.0002 86.735 73.8129C87.3345 73.9118 87.9341 73.9118 88.5336 74.0108C88.8334 74.0108 89.1332 74.1097 89.5329 74.1097C90.6321 71.6361 91.2316 69.0635 91.3315 66.2931C90.732 66.0952 90.2324 65.8973 89.7327 65.6994C89.8327 65.5015 89.9326 65.3036 90.1324 65.2047C90.4322 64.8089 90.9318 64.71 91.3315 64.71C92.131 64.71 92.8304 65.2047 93.0303 65.8973C93.0303 66.491 92.9304 67.0846 92.9304 67.6783C92.7305 68.3709 92.5307 68.9646 92.3308 69.6572C91.7312 71.4382 91.0318 73.2192 90.0325 74.9012C89.7327 75.5939 89.1332 75.7918 88.5336 75.7918Z" fill="#525252"/>
</g>
<defs>
<clipPath id="clip0_718_555">
<rect width="135" height="150" fill="white"/>
</clipPath>
</defs>
</svg>
