<svg width="138" height="145" viewBox="0 0 138 145" fill="none" xmlns="http://www.w3.org/2000/svg">
<path d="M35.6816 0L36.1845 8.3C36.1845 8.8 35.8828 9.2 35.3798 9.2H35.2793C34.7763 9.2 34.4746 8.8 34.374 8.4L33.8711 0" fill="#525252"/>
<path d="M116.853 130.13C103.576 133.624 90.0974 136.021 76.5187 135.721C62.94 135.422 49.3613 132.426 37.0901 125.338C30.6528 121.644 24.6178 116.852 20.0916 110.263C19.1863 108.965 18.2811 107.468 18.0799 105.87C17.8788 104.173 18.3817 102.276 19.6893 101.577C20.6951 101.078 21.8015 101.378 22.8073 101.777C39.1018 107.168 55.9997 114.057 72.596 110.163C73.803 109.864 75.3117 108.965 74.9094 107.568C74.8088 106.969 74.3059 106.569 73.9035 106.27C68.7738 102.276 62.94 99.4809 58.4137 94.589C57.6091 93.6905 56.7038 92.5923 56.6032 91.1946C56.5027 88.5989 59.1178 87.2012 61.2301 87.2012C65.7563 87.2012 69.7796 89.9966 74.0041 91.9933C80.7432 95.188 88.0858 96.0865 95.1266 98.0832C102.167 100.08 109.409 103.275 115.746 109.265C117.657 111.361 119.367 113.657 120.876 116.054C122.686 118.949 124.296 122.543 122.888 125.638C122.284 127.535 120.574 129.232 116.853 130.13Z" fill="#F8FAFC"/>
<path d="M20.8959 102.177C20.5942 102.177 20.393 102.177 20.1918 102.376C19.3872 102.776 18.7837 104.373 18.9848 105.771C19.186 107.268 19.9907 108.566 20.7953 109.864C24.8187 115.654 30.2501 120.546 37.4921 124.739C48.7574 131.229 61.9338 134.723 76.5184 135.022C88.3872 135.322 101.161 133.525 116.55 129.532C120.473 128.533 121.68 126.636 122.183 125.338C123.189 123.042 122.485 120.147 120.272 116.553C118.763 114.157 117.053 111.961 115.243 109.964C109.811 104.872 103.173 101.278 95.0257 99.0819C92.8128 98.4828 90.4994 97.9837 88.2866 97.4845C83.4586 96.3863 78.4295 95.1883 73.702 92.9919C72.6962 92.4927 71.6904 91.9936 70.7851 91.4944C67.5665 89.7972 64.549 88.2997 61.3303 88.2997C60.2239 88.2997 59.0169 88.7988 58.2122 89.4977C57.7093 89.9969 57.5082 90.6957 57.5082 91.3945C57.6087 92.4927 58.3128 93.4911 59.0169 94.1899C61.8332 97.185 65.1525 99.3814 68.4717 101.578C70.4834 102.876 72.495 104.273 74.4061 105.771C74.8085 106.07 75.5125 106.669 75.7137 107.568C76.116 109.365 74.5067 110.763 72.6962 111.262C57.6088 114.856 42.4207 109.664 27.635 104.573C25.9251 103.974 24.1146 103.375 22.4047 102.776C22.0023 102.277 21.3988 102.177 20.8959 102.177ZM78.8318 136.62C78.0271 136.62 77.323 136.62 76.5184 136.62C61.6321 136.32 48.2545 132.826 36.6875 126.137C29.2443 121.844 23.5111 116.852 19.3872 110.763C18.4819 109.365 17.4761 107.867 17.2749 105.97C16.9732 104.074 17.6773 101.678 19.3872 100.779C20.7953 100.08 22.2035 100.579 23.2093 100.879C24.9192 101.478 26.7297 102.077 28.4396 102.676C42.9236 107.568 57.9105 112.759 72.495 109.265C73.0985 109.165 74.4061 108.566 74.205 107.668C74.1044 107.368 73.9032 107.168 73.5009 106.769C71.6904 105.272 69.6787 103.974 67.6671 102.676C64.3478 100.48 60.8274 98.1833 57.9105 94.9886C57.0052 94.0901 55.9994 92.6924 55.8988 91.095C55.7983 89.897 56.3012 88.7988 57.1058 88.0002C58.1117 86.902 59.8216 86.2031 61.4309 86.2031C65.0519 86.2031 68.4717 87.9003 71.6904 89.5975C72.6962 90.0967 73.6015 90.5959 74.6073 90.9952C79.1335 93.0917 84.0621 94.1899 88.7895 95.2881C91.0023 95.7873 93.3158 96.2865 95.6292 96.9853C104.078 99.2815 110.918 103.075 116.651 108.367L116.752 108.466C118.663 110.563 120.373 112.959 121.982 115.355C124.597 119.448 125.301 122.942 124.094 125.838C122.988 128.433 120.775 130.031 117.255 130.929C102.469 134.823 90.1977 136.62 78.8318 136.62Z" fill="#525252"/>
<path d="M135.562 141.912C127.817 143.509 119.77 143.709 112.025 142.211C114.238 128.633 114.54 115.156 113.132 101.578C118.262 102.277 123.492 102.177 128.722 102.177C131.237 102.177 133.751 102.177 136.065 102.277C137.272 115.355 137.674 128.633 135.562 141.912Z" fill="#F8FAFC"/>
<path d="M113.03 141.511C120.171 142.709 127.715 142.609 134.857 141.212C136.667 130.03 136.768 118.25 135.259 102.975C133.147 102.875 130.934 102.975 128.721 102.975C123.893 102.975 118.964 103.075 114.136 102.575C115.343 116.053 114.941 128.832 113.03 141.511ZM122.988 144.107C119.266 144.107 115.444 143.807 111.823 143.109C111.32 143.009 111.018 142.609 111.119 142.11C113.231 128.932 113.633 115.754 112.225 101.677C112.225 101.377 112.326 101.178 112.527 100.978C112.728 100.778 113.03 100.679 113.231 100.778C118.361 101.377 123.591 101.377 128.62 101.278C131.135 101.278 133.649 101.278 135.963 101.377C136.365 101.377 136.768 101.777 136.768 102.176C138.377 118.15 138.276 130.529 136.365 142.21C136.265 142.609 136.063 142.809 135.661 142.909C131.537 143.608 127.313 144.107 122.988 144.107Z" fill="#525252"/>
<path d="M124.496 110.163C123.088 109.963 121.68 110.962 121.177 112.36C120.775 113.757 121.378 115.454 122.585 116.353C123.792 117.152 125.401 117.052 126.608 116.153C128.017 115.055 128.519 112.659 127.312 111.361C126.508 110.463 125.301 110.263 124.496 110.163Z" fill="#F8FAFC"/>
<path d="M124.094 110.962C123.189 110.962 122.284 111.661 122.083 112.559C121.781 113.657 122.284 114.955 123.089 115.554C123.994 116.153 125.201 116.053 126.006 115.454C126.508 115.055 126.911 114.256 127.011 113.458C127.112 112.859 126.911 112.26 126.609 111.86C126.106 111.261 125.1 111.062 124.396 110.962H124.296H124.094ZM124.497 117.751C123.692 117.751 122.787 117.551 122.183 117.052C120.675 116.053 119.971 113.957 120.474 112.16C120.976 110.263 122.887 108.965 124.698 109.364H124.799C125.603 109.464 127.112 109.764 128.017 110.862C128.721 111.661 129.023 112.659 128.822 113.757C128.721 115.055 128.118 116.153 127.112 116.952C126.307 117.451 125.402 117.751 124.497 117.751Z" fill="#525252"/>
<path d="M123.087 140.712C120.573 139.914 118.159 138.716 116.047 137.318C115.946 137.218 115.845 137.018 115.946 136.919C116.047 136.819 116.248 136.719 116.348 136.819C118.561 138.216 120.774 139.315 123.188 140.113C123.289 140.213 123.389 140.313 123.389 140.513C123.389 140.612 123.188 140.712 123.087 140.712Z" fill="#525252"/>
<path d="M132.141 140.713H132.04C126.81 138.517 121.68 135.921 116.752 132.926C116.651 132.826 116.55 132.627 116.651 132.527C116.752 132.427 116.953 132.327 117.053 132.427C121.881 135.422 127.011 138.018 132.241 140.214C132.443 140.314 132.443 140.414 132.443 140.614C132.443 140.614 132.342 140.713 132.141 140.713Z" fill="#525252"/>
<path d="M133.046 136.42H132.946C127.816 133.924 122.787 131.229 117.959 128.234C117.858 128.134 117.757 127.934 117.858 127.835C117.959 127.735 118.16 127.635 118.26 127.735C123.088 130.63 128.118 133.425 133.247 135.821C133.348 135.921 133.448 136.021 133.348 136.221C133.247 136.321 133.147 136.42 133.046 136.42Z" fill="#525252"/>
<path d="M133.046 132.327H132.945C127.514 129.232 122.083 126.137 116.55 123.142C116.45 123.042 116.349 122.843 116.45 122.743C116.55 122.643 116.752 122.543 116.852 122.643C122.284 125.638 127.816 128.733 133.247 131.828C133.348 131.928 133.448 132.127 133.348 132.227C133.247 132.227 133.147 132.327 133.046 132.327Z" fill="#525252"/>
<path d="M133.75 127.236H133.65L117.154 118.151C117.053 118.051 116.953 117.851 117.053 117.752C117.154 117.652 117.255 117.552 117.456 117.652L133.951 126.737C134.052 126.837 134.153 127.036 134.052 127.136C133.951 127.236 133.851 127.236 133.75 127.236Z" fill="#525252"/>
<path d="M133.751 122.343H133.651C131.84 121.245 130.03 120.147 128.32 118.949C128.219 118.849 128.119 118.649 128.219 118.549C128.32 118.45 128.521 118.35 128.622 118.45C130.332 119.648 132.142 120.746 133.953 121.844C134.053 121.944 134.154 122.143 134.053 122.243C133.953 122.243 133.852 122.343 133.751 122.343Z" fill="#525252"/>
<path d="M133.952 117.251H133.851C132.644 116.652 131.538 116.053 130.431 115.254C130.331 115.155 130.23 114.955 130.331 114.855C130.431 114.755 130.632 114.655 130.733 114.755C131.839 115.454 132.946 116.153 134.052 116.652C134.253 116.752 134.253 116.852 134.153 117.051C134.153 117.151 134.052 117.251 133.952 117.251Z" fill="#525252"/>
<path d="M134.353 111.361L134.152 111.261L124.496 104.672C124.395 104.573 124.295 104.373 124.395 104.273C124.496 104.173 124.697 104.073 124.798 104.173L134.453 110.762C134.554 110.862 134.655 111.062 134.554 111.162C134.554 111.261 134.453 111.361 134.353 111.361Z" fill="#525252"/>
<path d="M118.763 112.36H118.562C117.757 111.86 117.053 111.261 116.349 110.762C116.248 110.662 116.248 110.463 116.349 110.363C116.449 110.263 116.651 110.263 116.751 110.363C117.455 110.962 118.159 111.461 118.964 111.96C119.065 112.06 119.165 112.26 119.065 112.36C118.964 112.36 118.863 112.36 118.763 112.36Z" fill="#525252"/>
<path d="M120.976 108.565L120.775 108.465L116.55 105.371C116.45 105.271 116.349 105.071 116.45 104.971C116.55 104.871 116.752 104.772 116.852 104.871L121.077 107.966C121.177 108.066 121.278 108.266 121.177 108.366L120.976 108.565Z" fill="#525252"/>
<path d="M24.2151 72.1263C24.0139 69.7302 23.3098 67.3342 22.2034 65.1378C21.5999 64.0396 20.8958 62.9415 19.9906 61.9431C19.0853 60.9448 17.8783 60.2459 16.8725 59.3474C13.5533 56.552 11.441 52.7583 11.0387 48.665C10.6364 45.4703 10.1334 41.9761 10.9381 38.8812C11.5416 36.585 15.4643 30.1955 17.7778 28.1988C21.5999 25.0041 27.132 23.1073 32.2617 22.4084C37.3915 21.8094 42.7224 22.7079 47.0474 25.2038C52.6801 28.3985 56.4017 34.0891 57.2063 40.0792C58.011 46.0693 55.9993 52.2591 51.976 57.151C50.3667 59.1477 48.355 60.9448 46.7457 62.9415C44.4323 65.7368 42.8229 69.0314 41.9177 72.2261C39.8055 72.5256 37.6932 72.5256 35.4804 72.5256C33.6699 72.5256 31.8594 72.5256 30.0489 72.5256C28.2384 72.5256 26.2267 72.4258 24.2151 72.1263Z" fill="#F8FAFC"/>
<path d="M23.209 72.5254C29.7469 73.1244 36.2848 73.1244 42.8227 72.5254C43.225 77.5171 43.5268 80.612 42.018 85.4041C41.3139 87.8002 40.0064 90.1962 37.5924 91.3942C34.776 92.7919 31.3562 92.0931 28.2381 91.2944C27.0311 90.9949 25.8241 90.6954 24.8183 89.8967C22.9072 88.3992 22.8066 85.8035 22.8066 83.4074C23.0078 79.0147 23.1084 76.6186 23.209 72.5254Z" fill="#06B6D4"/>
<path d="M36.4873 92.7914C36.0849 92.5918 35.7832 92.3921 35.582 92.0926C36.2861 91.9927 36.9902 91.7931 37.6943 91.3937C40.1083 90.1957 41.3153 87.7997 42.1199 85.4036C43.6287 80.5117 43.2263 77.5167 42.9246 72.5249C41.1141 72.7246 39.3036 72.8244 37.4931 72.9242C37.4931 72.8244 37.5937 72.7246 37.5937 72.6247C39.1024 72.6247 40.6112 72.5249 42.1199 72.3252C42.1199 72.2254 42.1199 72.2254 42.1199 72.1256H42.2205C42.4217 72.1256 42.6228 72.1256 42.7234 72.0257C43.4275 72.7246 43.4275 73.8228 43.5281 74.7213C43.6287 76.119 43.7293 77.6165 43.5281 79.0142C42.9246 82.3087 42.824 82.9077 42.2205 85.9028C41.8182 87.3005 41.4158 88.6982 40.7118 89.996C40.3094 90.2955 39.9071 90.5951 39.5048 90.7947C38.7001 91.3937 37.8954 91.9927 37.0908 92.4919C36.789 92.4919 36.6884 92.6916 36.4873 92.7914ZM54.2905 53.9556C56.4027 50.3615 57.5091 46.1684 57.4086 42.0752C57.5091 42.175 57.6097 42.175 57.7103 42.2749C58.515 43.0735 57.9115 44.7707 57.6097 46.2683C57.5091 47.067 57.308 47.8656 57.0062 48.5645C56.8051 48.9638 56.6039 49.3632 56.4027 49.8623V49.7625C56.4027 49.7625 56.4027 49.7625 56.4027 49.8623C56.0004 50.8607 56.101 50.661 55.4975 52.0587C55.1957 52.7576 54.7934 53.3566 54.2905 53.9556Z" fill="#F8FAFC"/>
<path d="M37.4922 72.5249C37.4922 72.4251 37.5928 72.3252 37.6934 72.2254V72.0257C37.5928 71.0274 38.2969 69.8294 38.6992 68.9308C39.4033 67.5331 39.3027 67.5331 40.4091 65.6363C41.0126 64.6379 41.7167 63.8392 42.4208 62.9407C42.6219 62.6412 43.8289 61.0439 44.4324 60.345C46.4441 57.8491 49.8639 54.8541 51.0709 53.3566C52.0767 52.1585 52.6802 50.9605 52.982 50.4613C54.0884 48.6643 54.2896 48.0653 55.1948 45.8689C55.2954 45.6693 55.2954 45.5694 55.2954 45.5694C55.2954 45.5694 55.2954 45.6693 55.1948 45.7691C55.2954 45.4696 55.4966 44.3714 55.5971 44.0719C55.5971 43.9721 55.5971 43.8722 55.5971 43.7724C55.6977 42.8739 55.5971 43.1734 55.8989 42.5744C56.1001 42.2749 56.5024 42.0752 56.9047 42.0752C57.1059 42.0752 57.3071 42.0752 57.4076 42.175C57.5082 46.2683 56.4018 50.3615 54.2896 54.0554C53.3843 55.2534 52.3785 56.3516 51.2721 57.4498C49.5622 59.147 47.7517 60.8442 46.1423 62.6412C43.6278 65.7361 42.5213 68.0323 41.1132 72.2254C41.4149 72.2254 41.7167 72.1256 42.0184 72.1256C42.0184 72.2254 42.0184 72.2254 42.0184 72.3252C40.5097 72.4251 39.0009 72.5249 37.4922 72.5249Z" fill="#F8FAFC"/>
<path d="M35.4809 91.9927C35.2797 91.6932 35.1791 91.194 35.2797 90.7947C35.2797 90.3953 35.5814 89.996 35.7826 89.5967C36.5873 88.0991 36.1849 88.9977 36.7884 87.4003C37.7943 84.1057 37.5931 85.5034 37.7943 81.8095C37.9954 78.3153 37.9954 76.0191 37.2914 74.1222C37.1908 73.6231 37.1908 73.1239 37.2914 72.7245C39.1019 72.6247 40.9123 72.5249 42.7228 72.3252C43.1252 77.3169 43.4269 80.4118 41.9182 85.2039C41.2141 87.6 39.9065 89.996 37.4925 91.194C36.9896 91.6932 36.2855 91.8929 35.4809 91.9927Z" fill="#06B6D4"/>
<path d="M38.498 69.1314C38.5986 69.0314 38.5986 68.8314 38.6992 68.7314V68.8314C38.5986 68.9314 38.498 69.0314 38.498 69.1314Z" fill="#F8FAFC"/>
<path d="M23.7128 73.2248C23.7128 75.0218 23.7128 76.6192 23.7128 78.1167C23.7128 79.9137 23.7128 81.6109 23.7128 83.9071C23.7128 85.1051 23.7128 86.3032 24.2158 87.4013C25.121 89.4979 27.7362 90.9954 31.3572 91.4946C34.9782 91.9938 38.0962 91.2949 39.605 89.4979C40.6108 88.2999 41.0131 86.7025 41.3149 85.1051C42.1195 80.2132 42.4213 78.2165 42.1196 73.4244C37.9956 73.6241 28.1385 73.5243 23.7128 73.2248ZM33.57 93.3914C32.5642 93.3914 31.7595 93.2916 31.156 93.1918C29.1443 92.8923 24.2158 91.7941 22.707 88.0004C22.1035 86.7025 22.1035 85.205 22.1035 83.9071C22.1035 81.6109 22.1035 79.8139 22.1035 78.1167C22.1035 76.3197 22.1035 74.6225 22.1035 72.3262C22.1035 72.1266 22.2041 71.8271 22.4053 71.6274C22.6064 71.4277 22.8076 71.4277 23.1093 71.4277C26.9315 71.8271 39.5044 72.0267 42.9242 71.7272C43.1254 71.7272 43.4271 71.7272 43.5277 71.9269C43.7289 72.0267 43.8295 72.3262 43.8295 72.5259C44.3324 78.2165 44.0306 80.3131 43.1254 85.5045C42.7231 87.2017 42.2201 89.1984 40.9126 90.6959C39.0015 92.8923 35.984 93.3914 33.57 93.3914Z" fill="#525252"/>
<path d="M41.5149 73.3247H41.4143C40.9114 73.2249 40.6097 72.8255 40.7102 72.3264C41.5149 67.2348 45.2365 63.2414 48.7569 59.3478C51.9756 55.8536 55.2948 52.2595 56.3006 47.9666C56.703 46.1696 57.0047 40.3791 54.8925 35.0879C53.4843 31.4938 51.4726 28.8981 48.9581 27.2009C44.1301 24.0062 35.7817 21.6101 29.2438 23.507C23.0076 25.2042 17.8779 28.4988 14.8604 32.6918C12.0441 36.4856 10.9376 41.2776 11.4406 46.1696C12.0441 50.762 14.0557 55.1547 17.4755 59.0483C17.9785 59.5475 18.4814 60.1465 18.9843 60.6456C19.9901 61.7438 21.0965 62.9419 22.0018 64.2397C23.6111 66.5359 24.4158 69.2315 24.5164 72.0268C24.5164 72.526 24.114 72.9254 23.7117 72.9254C23.2088 72.9254 22.8065 72.526 22.8065 72.0268C22.7059 69.6308 22.0018 67.2348 20.5936 65.1382C19.789 63.9402 18.7831 62.9419 17.7773 61.8437C17.2744 61.3445 16.7715 60.7455 16.2686 60.1465C12.6476 55.9534 10.4347 51.1613 9.83124 46.2694C9.22774 40.9781 10.5353 35.7867 13.5528 31.5936C16.7715 27.1011 22.3035 23.6068 28.942 21.71C35.9828 19.7133 44.9347 22.2091 50.1651 25.7034C52.9814 27.6002 55.1942 30.4955 56.8035 34.389C58.9158 39.5804 58.9158 45.6704 58.3123 48.2661C57.2059 53.0582 53.6855 56.7521 50.2656 60.446C46.7452 64.2397 43.426 67.9336 42.6213 72.4262C42.3196 73.0252 41.9172 73.3247 41.5149 73.3247Z" fill="#525252"/>
<path d="M33.7689 36.9847L33.6683 37.0845C32.7631 38.2826 32.4613 39.8799 32.5619 42.0763C32.6625 43.2743 32.8636 44.3725 33.1654 45.3709C33.6683 44.1728 34.0706 42.875 34.2718 41.5771C34.5736 39.5804 34.473 38.0829 33.7689 36.9847ZM20.5925 45.4707C20.3913 45.4707 20.1902 45.5705 20.0896 45.6704C19.989 45.87 20.0896 46.2694 20.3913 46.7685C21.3972 48.2661 23.1071 49.3643 24.7164 50.2628C24.1129 48.9649 23.3082 47.6671 22.2018 46.5689C21.9001 46.1695 21.4978 45.7702 20.9948 45.6704C20.7937 45.4707 20.6931 45.4707 20.5925 45.4707ZM43.9278 45.7702C43.8272 45.7702 43.626 45.87 43.4249 46.0697C41.715 47.1679 40.3068 48.6654 39.4015 50.3626C39.7033 50.3626 40.1056 50.2628 40.4074 50.1629C41.715 49.7636 42.8214 48.6654 43.7266 47.0681C44.0284 46.469 44.0284 45.87 43.9278 45.7702ZM36.1829 72.9253C35.68 72.9253 35.2776 72.526 35.2776 72.1267L36.1829 72.0268H35.2776C35.3782 67.3346 35.5794 62.3428 35.9817 57.3511C36.1829 55.3544 36.3841 53.4575 36.887 51.6605C35.5794 51.2611 34.2718 50.4624 33.266 49.2644H33.1654C33.0648 49.4641 32.9642 49.6638 32.8636 49.7636C31.5561 51.8601 30.0473 52.9583 28.438 53.0582C28.1362 53.0582 27.8345 53.0582 27.6333 53.0582C27.9351 54.1563 28.2368 55.3544 28.438 56.4526C29.4438 61.5441 29.9467 66.7356 29.7456 71.927C29.7456 72.4262 29.3432 72.8255 28.8403 72.7257C28.3374 72.7257 27.9351 72.3263 28.0357 71.8272C28.1362 66.7356 27.7339 61.644 26.7281 56.7521C26.4263 55.3544 26.1246 53.9567 25.6217 52.4591C25.4205 52.3593 25.3199 52.3593 25.1187 52.2595C23.0065 51.2611 20.2908 49.8634 18.8826 47.5672C18.1785 46.469 18.0779 45.271 18.6814 44.4723C19.2849 43.6737 20.4919 43.3742 21.4978 43.7735C22.403 44.073 23.0065 44.672 23.5094 45.1712C25.1187 46.9682 26.2252 48.9649 27.0298 51.0615C27.5327 51.1613 27.9351 51.2611 28.3374 51.2611C29.4438 51.1613 30.4496 50.3626 31.4555 48.7653C31.6566 48.3659 31.9584 47.9666 32.1596 47.4674C31.3549 45.9699 30.9526 44.2727 30.852 42.1761C30.7514 40.4789 30.7514 37.9831 32.2601 35.9864C32.7631 35.2875 33.5677 34.988 34.1712 35.1877C34.6741 35.2875 34.9759 35.6869 35.1771 35.9864C36.4846 37.9831 36.2835 40.2793 35.9817 41.8766C35.5794 43.7735 34.9759 45.6704 34.1712 47.4674C34.3724 47.6671 34.473 47.8667 34.6741 48.1662C35.3782 48.9649 36.3841 49.6638 37.591 50.0631C38.5969 47.8667 40.3068 45.87 42.5196 44.5722C43.0225 44.2727 43.5254 43.9732 44.2295 44.073C44.833 44.1728 45.3359 44.4723 45.5371 44.9715C45.9394 45.87 45.7383 46.9682 45.3359 47.7669C44.2295 49.7636 42.7208 51.1613 41.0109 51.7603C40.3068 51.96 39.5021 52.0598 38.6975 52.0598C38.1945 53.757 37.9934 55.554 37.7922 57.5507C37.3899 62.5425 37.1887 67.4344 37.0881 72.0268C37.0881 72.526 36.6858 72.9253 36.1829 72.9253Z" fill="#525252"/>
<path d="M9.12652 29.3978C9.02593 29.3978 8.82477 29.3978 8.72418 29.298L0.576954 25.3046C0.174622 25.1049 -0.0265446 24.6058 0.174622 24.1066C0.375788 23.7072 0.878703 23.5076 1.38162 23.7072L9.52885 27.7006C9.93118 27.9003 10.1323 28.3995 9.93118 28.8987C9.73001 29.1982 9.42827 29.3978 9.12652 29.3978Z" fill="#525252"/>
<path d="M60.7273 30.4955C60.4256 30.4955 60.1238 30.2958 59.9227 29.9963C59.7215 29.597 59.9227 28.998 60.325 28.7983L68.5728 24.8049C68.9751 24.6052 69.5786 24.8049 69.7798 25.2042C69.981 25.6036 69.7798 26.2026 69.3775 26.4023L61.1297 30.3957C60.9285 30.4955 60.8279 30.4955 60.7273 30.4955Z" fill="#525252"/>
<path d="M70.8841 56.3522C70.6829 56.3522 70.5823 56.3522 70.3811 56.2524C67.4642 54.4553 64.4467 52.9578 61.3287 51.6599C60.9263 51.4603 60.6246 50.9611 60.8257 50.5618C61.0269 50.1624 61.5298 49.8629 61.9322 50.0626C65.1508 51.3604 68.2689 52.9578 71.2864 54.7548C71.6887 55.0543 71.7893 55.5535 71.5881 55.9529C71.387 56.1525 71.1858 56.3522 70.8841 56.3522Z" fill="#525252"/>
<path d="M0.879532 61.5437C0.577783 61.5437 0.376617 61.4439 0.17545 61.1444C-0.126299 60.8449 -0.0257157 60.2459 0.376617 60.0462C2.99178 58.2492 5.90869 56.552 8.8256 55.2541C9.22793 55.0544 9.73084 55.2541 9.93201 55.6535C10.1332 56.0528 9.93201 56.6518 9.52968 56.8515C6.71335 58.1493 3.89703 59.7467 1.38245 61.5437C1.18128 61.5437 0.980115 61.5437 0.879532 61.5437Z" fill="#525252"/>
<path d="M78.8322 134.922C78.0275 134.922 77.3234 134.922 76.5188 134.922C66.9634 134.722 57.9109 133.125 49.7637 130.23C49.8643 129.531 50.3672 128.932 51.2724 128.832C51.373 128.832 51.4736 128.832 51.5742 128.832C52.1777 128.832 52.6806 129.131 53.1835 129.231C54.3905 129.531 55.5975 129.631 56.8045 129.83C60.6266 130.23 69.1762 130.729 74.7083 131.527C75.8147 131.627 76.9211 131.627 77.9269 131.627C79.0334 131.627 80.1398 131.627 81.2462 131.527C82.0508 131.527 82.9561 131.527 83.7608 131.527C86.2753 131.527 88.8905 131.428 91.4051 131.228C97.4401 130.629 99.3511 130.729 104.883 129.331C105.286 128.932 105.99 128.732 106.493 128.433C108.001 127.634 108.001 127.734 108.705 126.935C108.806 126.835 108.907 126.735 108.907 126.735C108.907 126.735 108.806 126.935 108.605 127.035C108.705 126.935 108.806 126.735 108.907 126.636C108.907 126.536 109.007 126.436 109.108 126.336C109.309 126.136 109.812 125.138 109.912 124.839C110.818 121.943 110.717 121.145 110.918 118.05C111.019 117.051 110.818 116.053 110.818 115.055C110.818 114.456 110.516 113.757 110.918 113.158C111.22 112.659 111.723 112.459 112.226 112.459C112.326 112.459 112.528 112.459 112.628 112.559C112.829 118.549 112.729 124.439 112.226 130.329C99.8541 133.424 88.9911 134.922 78.8322 134.922Z" fill="#F8FAFC"/>
<path d="M85.7708 135.521C82.4516 135.421 79.1323 135.521 75.7125 135.321C72.3933 135.022 69.8787 134.622 67.5653 134.323C62.0332 133.624 56.3 133.824 50.9691 132.326C49.9632 132.027 49.5609 131.028 49.6615 130.229C57.9093 133.125 66.8612 134.722 76.4166 134.922C77.2212 134.922 77.9253 134.922 78.73 134.922C88.8889 134.922 99.7519 133.424 112.425 130.429C112.425 130.629 112.425 130.729 112.425 130.928C112.325 130.928 112.224 130.928 112.124 130.928C111.922 131.028 111.721 131.128 111.52 131.228C107.798 132.725 103.775 133.424 99.8524 134.223C95.3262 134.822 90.5988 135.421 85.7708 135.521Z" fill="#525252"/>
<path d="M112.527 130.829C112.527 130.63 112.527 130.53 112.527 130.33C113.03 124.44 113.131 118.55 112.93 112.56C113.332 112.659 113.734 112.959 113.835 113.458C114.036 113.857 114.338 116.353 114.438 118.051C114.338 120.546 114.338 123.042 113.835 125.438C113.734 125.738 113.634 125.937 113.533 126.237C113.936 126.636 114.237 127.235 114.137 127.834C114.137 127.734 114.137 127.635 114.137 127.635C114.137 127.635 114.137 127.635 114.137 127.735C114.137 128.234 114.237 128.733 113.734 129.432L113.634 129.532C113.634 130.33 113.131 130.73 112.527 130.829Z" fill="#525252"/>
<path d="M111.521 131.229C111.622 131.229 111.622 131.129 111.723 131.129L111.924 131.029C111.723 131.129 111.622 131.129 111.521 131.229Z" fill="#525252"/>
<path d="M122.989 142.31C119.67 142.31 116.25 142.011 113.031 141.512C113.232 140.314 113.434 139.116 113.534 137.918H113.635C114.339 137.918 115.043 138.117 115.747 138.217C115.546 138.217 115.345 138.117 115.143 138.117C115.948 138.217 116.753 138.317 117.658 138.317C119.368 139.315 121.178 140.114 122.989 140.713H123.09C123.19 140.713 123.291 140.613 123.391 140.513C123.492 140.314 123.391 140.214 123.19 140.114C121.782 139.615 120.374 139.016 119.066 138.317C119.67 138.317 120.273 138.317 120.776 138.317C121.48 138.317 122.084 138.317 122.788 138.217C123.19 138.217 123.492 138.217 123.894 138.217C124.9 138.217 125.906 138.217 126.811 138.117C128.622 138.916 130.332 139.715 132.142 140.513H132.243C132.343 140.513 132.444 140.413 132.544 140.314C132.645 140.214 132.544 140.014 132.343 139.914C130.834 139.315 129.426 138.616 128.018 138.017C129.829 137.918 131.337 137.718 132.846 137.518C132.947 137.518 133.047 137.518 133.148 137.418C133.45 137.319 133.852 137.219 133.953 137.119C134.154 137.019 134.154 136.919 134.958 136.819C135.16 136.819 135.361 136.819 135.461 136.919C135.26 138.217 135.16 139.515 134.958 140.813C130.935 141.911 126.912 142.31 122.989 142.31Z" fill="#F8FAFC"/>
<path d="M122.485 143.008C119.266 143.008 116.148 142.609 113.03 142.11C111.22 141.71 110.918 139.015 112.527 138.216C112.829 138.016 113.131 137.917 113.533 137.917C113.332 139.115 113.231 140.313 113.03 141.511C116.349 142.11 119.669 142.309 122.988 142.309C126.911 142.309 130.934 141.91 134.756 141.111C134.957 139.813 135.158 138.516 135.259 137.218C135.963 137.417 136.567 138.016 136.667 138.815C136.868 139.813 136.164 140.712 135.259 141.011C134.957 141.111 134.153 141.411 134.153 141.411C132.644 142.01 131.034 142.21 129.425 142.409C127.816 142.609 126.206 142.809 124.597 142.809C123.994 143.008 123.189 143.008 122.485 143.008Z" fill="#525252"/>
<path d="M123.088 140.713C121.177 140.114 119.366 139.316 117.656 138.317C118.159 138.317 118.561 138.417 119.064 138.417C120.372 139.116 121.78 139.715 123.188 140.214C123.289 140.314 123.389 140.414 123.389 140.614C123.389 140.614 123.188 140.713 123.088 140.713Z" fill="#525252"/>
<path d="M132.14 140.713H132.04C130.229 140.014 128.519 139.215 126.709 138.317C127.111 138.317 127.514 138.317 127.916 138.217C129.324 138.916 130.833 139.515 132.241 140.114C132.442 140.213 132.442 140.313 132.442 140.513C132.442 140.613 132.342 140.713 132.14 140.713Z" fill="#525252"/>
</svg>
