<svg width="84" height="49" viewBox="0 0 84 49" fill="none" xmlns="http://www.w3.org/2000/svg">
<path d="M18.7335 35.0737V35.8511H15.878V35.0737H18.7335ZM16.1514 30.1636V35.8511H15.171V30.1636H16.1514Z" />
<path d="M20.4053 31.6245V35.8511H19.46V31.6245H20.4053ZM19.3975 30.5151C19.3975 30.3719 19.4444 30.2534 19.5382 30.1597C19.6345 30.0633 19.7673 30.0151 19.9366 30.0151C20.1033 30.0151 20.2348 30.0633 20.3311 30.1597C20.4275 30.2534 20.4757 30.3719 20.4757 30.5151C20.4757 30.6558 20.4275 30.7729 20.3311 30.8667C20.2348 30.9604 20.1033 31.0073 19.9366 31.0073C19.7673 31.0073 19.6345 30.9604 19.5382 30.8667C19.4444 30.7729 19.3975 30.6558 19.3975 30.5151Z" />
<path d="M22.71 35.8511H21.7686V31.2183C21.7686 30.9032 21.8272 30.6388 21.9444 30.4253C22.0642 30.2091 22.2348 30.0464 22.4561 29.937C22.6775 29.825 22.9392 29.769 23.2413 29.769C23.335 29.769 23.4275 29.7755 23.5186 29.7886C23.6098 29.799 23.6983 29.8159 23.7843 29.8394L23.7608 30.5659C23.7087 30.5529 23.6514 30.5438 23.5889 30.5386C23.529 30.5334 23.4639 30.5308 23.3936 30.5308C23.2504 30.5308 23.1267 30.5581 23.0225 30.6128C22.921 30.6649 22.8428 30.7417 22.7882 30.8433C22.7361 30.9448 22.71 31.0698 22.71 31.2183V35.8511ZM23.5811 31.6245V32.312H21.1202V31.6245H23.5811Z" />
<path d="M26.0343 35.9292C25.7218 35.9292 25.4392 35.8784 25.1866 35.7769C24.9366 35.6727 24.7231 35.5282 24.546 35.3433C24.3715 35.1584 24.2374 34.9409 24.1436 34.6909C24.0499 34.4409 24.003 34.1714 24.003 33.8823V33.7261C24.003 33.3953 24.0512 33.0959 24.1475 32.8276C24.2439 32.5594 24.378 32.3302 24.5499 32.1401C24.7218 31.9474 24.9249 31.8003 25.1593 31.6987C25.3936 31.5972 25.6475 31.5464 25.921 31.5464C26.2231 31.5464 26.4874 31.5972 26.7139 31.6987C26.9405 31.8003 27.128 31.9435 27.2764 32.1284C27.4275 32.3107 27.5395 32.5282 27.6124 32.7808C27.6879 33.0334 27.7257 33.312 27.7257 33.6167V34.019H24.46V33.3433H26.796V33.269C26.7908 33.0998 26.7569 32.9409 26.6944 32.7925C26.6345 32.644 26.5421 32.5242 26.4171 32.4331C26.2921 32.342 26.1254 32.2964 25.9171 32.2964C25.7608 32.2964 25.6215 32.3302 25.4991 32.3979C25.3793 32.463 25.279 32.5581 25.1983 32.6831C25.1176 32.8081 25.0551 32.9591 25.0108 33.1362C24.9692 33.3107 24.9483 33.5073 24.9483 33.7261V33.8823C24.9483 34.0672 24.9731 34.2391 25.0225 34.3979C25.0746 34.5542 25.1501 34.6909 25.2491 34.8081C25.3481 34.9253 25.4678 35.0177 25.6085 35.0854C25.7491 35.1505 25.9093 35.1831 26.0889 35.1831C26.3155 35.1831 26.5173 35.1375 26.6944 35.0464C26.8715 34.9552 27.0251 34.8263 27.1553 34.6597L27.6514 35.1401C27.5603 35.2729 27.4418 35.4005 27.296 35.5229C27.1501 35.6427 26.9718 35.7404 26.7608 35.8159C26.5525 35.8914 26.3103 35.9292 26.0343 35.9292Z" />
<path d="M30.3546 33.0464V33.7964H28.2882V33.0464H30.3546Z" />
<path d="M34.6319 33.9995H35.6085C35.5772 34.3719 35.4731 34.7039 35.296 34.9956C35.1189 35.2847 34.8702 35.5125 34.5499 35.6792C34.2296 35.8459 33.8402 35.9292 33.3819 35.9292C33.0303 35.9292 32.7139 35.8667 32.4327 35.7417C32.1514 35.6141 31.9106 35.4344 31.71 35.2026C31.5095 34.9683 31.3559 34.6857 31.2491 34.355C31.1449 34.0242 31.0928 33.6545 31.0928 33.2456V32.7729C31.0928 32.3641 31.1462 31.9943 31.253 31.6636C31.3624 31.3328 31.5186 31.0503 31.7218 30.8159C31.9249 30.5789 32.1684 30.3979 32.4522 30.2729C32.7387 30.1479 33.0603 30.0854 33.4171 30.0854C33.8702 30.0854 34.253 30.1688 34.5655 30.3354C34.878 30.5021 35.1202 30.7326 35.2921 31.0269C35.4665 31.3211 35.5733 31.6584 35.6124 32.0386H34.6358C34.6098 31.7938 34.5525 31.5841 34.4639 31.4097C34.378 31.2352 34.2504 31.1024 34.0811 31.0112C33.9119 30.9175 33.6905 30.8706 33.4171 30.8706C33.1931 30.8706 32.9978 30.9123 32.8311 30.9956C32.6645 31.0789 32.5251 31.2013 32.4132 31.3628C32.3012 31.5242 32.2165 31.7235 32.1593 31.9604C32.1046 32.1948 32.0772 32.463 32.0772 32.7651V33.2456C32.0772 33.5321 32.102 33.7925 32.1514 34.0269C32.2035 34.2586 32.2817 34.4578 32.3858 34.6245C32.4926 34.7912 32.628 34.9201 32.7921 35.0112C32.9561 35.1024 33.1527 35.1479 33.3819 35.1479C33.6606 35.1479 33.8858 35.1037 34.0577 35.0151C34.2322 34.9266 34.3637 34.7977 34.4522 34.6284C34.5434 34.4565 34.6033 34.2469 34.6319 33.9995Z" />
<path d="M36.2257 33.7847V33.6948C36.2257 33.3901 36.2699 33.1076 36.3585 32.8472C36.447 32.5841 36.5746 32.3563 36.7413 32.1636C36.9106 31.9683 37.1163 31.8172 37.3585 31.7104C37.6033 31.6011 37.8793 31.5464 38.1866 31.5464C38.4965 31.5464 38.7725 31.6011 39.0147 31.7104C39.2595 31.8172 39.4665 31.9683 39.6358 32.1636C39.8051 32.3563 39.934 32.5841 40.0225 32.8472C40.1111 33.1076 40.1553 33.3901 40.1553 33.6948V33.7847C40.1553 34.0894 40.1111 34.3719 40.0225 34.6323C39.934 34.8927 39.8051 35.1206 39.6358 35.3159C39.4665 35.5086 39.2608 35.6597 39.0186 35.769C38.7764 35.8758 38.5017 35.9292 38.1944 35.9292C37.8845 35.9292 37.6072 35.8758 37.3624 35.769C37.1202 35.6597 36.9145 35.5086 36.7452 35.3159C36.5759 35.1206 36.447 34.8927 36.3585 34.6323C36.2699 34.3719 36.2257 34.0894 36.2257 33.7847ZM37.1671 33.6948V33.7847C37.1671 33.9748 37.1866 34.1545 37.2257 34.3237C37.2647 34.493 37.3259 34.6414 37.4093 34.769C37.4926 34.8966 37.5994 34.9969 37.7296 35.0698C37.8598 35.1427 38.0147 35.1792 38.1944 35.1792C38.3689 35.1792 38.5199 35.1427 38.6475 35.0698C38.7777 34.9969 38.8845 34.8966 38.9678 34.769C39.0512 34.6414 39.1124 34.493 39.1514 34.3237C39.1931 34.1545 39.2139 33.9748 39.2139 33.7847V33.6948C39.2139 33.5073 39.1931 33.3302 39.1514 33.1636C39.1124 32.9943 39.0499 32.8446 38.9639 32.7144C38.8806 32.5841 38.7738 32.4826 38.6436 32.4097C38.516 32.3341 38.3637 32.2964 38.1866 32.2964C38.0095 32.2964 37.8559 32.3341 37.7257 32.4097C37.5981 32.4826 37.4926 32.5841 37.4093 32.7144C37.3259 32.8446 37.2647 32.9943 37.2257 33.1636C37.1866 33.3302 37.1671 33.5073 37.1671 33.6948Z" />
<path d="M43.3272 35.0034V32.9878C43.3272 32.8367 43.2999 32.7065 43.2452 32.5972C43.1905 32.4878 43.1072 32.4032 42.9952 32.3433C42.8858 32.2834 42.7478 32.2534 42.5811 32.2534C42.4275 32.2534 42.2947 32.2795 42.1827 32.3315C42.0707 32.3836 41.9835 32.4539 41.921 32.5425C41.8585 32.631 41.8272 32.7313 41.8272 32.8433H40.8897C40.8897 32.6766 40.9301 32.5151 41.0108 32.3589C41.0915 32.2026 41.2087 32.0633 41.3624 31.9409C41.516 31.8185 41.6996 31.7222 41.9132 31.6519C42.1267 31.5815 42.3663 31.5464 42.6319 31.5464C42.9496 31.5464 43.2309 31.5998 43.4757 31.7065C43.7231 31.8133 43.9171 31.9748 44.0577 32.1909C44.2009 32.4045 44.2725 32.6727 44.2725 32.9956V34.8745C44.2725 35.0672 44.2856 35.2404 44.3116 35.394C44.3402 35.5451 44.3806 35.6766 44.4327 35.7886V35.8511H43.4678C43.4236 35.7495 43.3884 35.6206 43.3624 35.4644C43.3389 35.3055 43.3272 35.1519 43.3272 35.0034ZM43.4639 33.2808L43.4718 33.8628H42.796C42.6215 33.8628 42.4678 33.8797 42.335 33.9136C42.2022 33.9448 42.0915 33.9917 42.003 34.0542C41.9145 34.1167 41.8481 34.1922 41.8038 34.2808C41.7595 34.3693 41.7374 34.4696 41.7374 34.5815C41.7374 34.6935 41.7634 34.7964 41.8155 34.8901C41.8676 34.9813 41.9431 35.0529 42.0421 35.105C42.1436 35.1571 42.266 35.1831 42.4093 35.1831C42.602 35.1831 42.7699 35.144 42.9132 35.0659C43.059 34.9852 43.1736 34.8875 43.2569 34.7729C43.3402 34.6558 43.3845 34.5451 43.3897 34.4409L43.6944 34.8589C43.6632 34.9657 43.6098 35.0802 43.5343 35.2026C43.4587 35.325 43.3598 35.4422 43.2374 35.5542C43.1176 35.6636 42.9731 35.7534 42.8038 35.8237C42.6371 35.894 42.4444 35.9292 42.2257 35.9292C41.9496 35.9292 41.7035 35.8745 41.4874 35.7651C41.2712 35.6532 41.102 35.5034 40.9796 35.3159C40.8572 35.1258 40.796 34.911 40.796 34.6714C40.796 34.4474 40.8376 34.2495 40.921 34.0776C41.0069 33.9032 41.1319 33.7573 41.296 33.6401C41.4626 33.5229 41.6658 33.4344 41.9053 33.3745C42.1449 33.312 42.4184 33.2808 42.7257 33.2808H43.4639Z" />
<path d="M46.9835 35.1792C47.1371 35.1792 47.2751 35.1492 47.3975 35.0894C47.5225 35.0269 47.6228 34.9409 47.6983 34.8315C47.7764 34.7222 47.8194 34.5959 47.8272 34.4526H48.7139C48.7087 34.7261 48.628 34.9748 48.4718 35.1987C48.3155 35.4227 48.1085 35.6011 47.8507 35.7339C47.5928 35.8641 47.3077 35.9292 46.9952 35.9292C46.6723 35.9292 46.391 35.8745 46.1514 35.7651C45.9119 35.6532 45.7126 35.4995 45.5538 35.3042C45.3949 35.1089 45.2751 34.8836 45.1944 34.6284C45.1163 34.3732 45.0772 34.0998 45.0772 33.8081V33.6714C45.0772 33.3797 45.1163 33.1063 45.1944 32.8511C45.2751 32.5933 45.3949 32.3667 45.5538 32.1714C45.7126 31.9761 45.9119 31.8237 46.1514 31.7144C46.391 31.6024 46.671 31.5464 46.9913 31.5464C47.3298 31.5464 47.6267 31.6141 47.8819 31.7495C48.1371 31.8823 48.3376 32.0685 48.4835 32.3081C48.6319 32.5451 48.7087 32.8211 48.7139 33.1362H47.8272C47.8194 32.98 47.7803 32.8394 47.71 32.7144C47.6423 32.5867 47.546 32.4852 47.421 32.4097C47.2986 32.3341 47.1514 32.2964 46.9796 32.2964C46.7895 32.2964 46.6319 32.3354 46.5069 32.4136C46.3819 32.4891 46.2843 32.5933 46.2139 32.7261C46.1436 32.8563 46.0928 33.0034 46.0616 33.1675C46.033 33.3289 46.0186 33.4969 46.0186 33.6714V33.8081C46.0186 33.9826 46.033 34.1519 46.0616 34.3159C46.0902 34.48 46.1397 34.6271 46.21 34.7573C46.283 34.8849 46.3819 34.9878 46.5069 35.0659C46.6319 35.1414 46.7908 35.1792 46.9835 35.1792Z" />
<path d="M50.3663 29.8511V35.8511H49.4288V29.8511H50.3663ZM50.2022 33.5815L49.8975 33.5776C49.9001 33.286 49.9405 33.0164 50.0186 32.769C50.0994 32.5216 50.2113 32.3068 50.3546 32.1245C50.5004 31.9396 50.6749 31.7977 50.878 31.6987C51.0811 31.5972 51.3064 31.5464 51.5538 31.5464C51.7621 31.5464 51.9496 31.575 52.1163 31.6323C52.2856 31.6896 52.4314 31.7821 52.5538 31.9097C52.6762 32.0347 52.7686 32.1987 52.8311 32.4019C52.8962 32.6024 52.9288 32.8472 52.9288 33.1362V35.8511H51.9835V33.1284C51.9835 32.9253 51.9535 32.7638 51.8936 32.644C51.8363 32.5242 51.7517 32.4383 51.6397 32.3862C51.5277 32.3315 51.391 32.3042 51.2296 32.3042C51.0603 32.3042 50.9106 32.338 50.7803 32.4058C50.6527 32.4735 50.546 32.5659 50.46 32.6831C50.3741 32.8003 50.309 32.9357 50.2647 33.0894C50.2231 33.243 50.2022 33.4071 50.2022 33.5815Z" />
<path d="M54.8897 31.6245V35.8511H53.9444V31.6245H54.8897ZM53.8819 30.5151C53.8819 30.3719 53.9288 30.2534 54.0225 30.1597C54.1189 30.0633 54.2517 30.0151 54.421 30.0151C54.5876 30.0151 54.7192 30.0633 54.8155 30.1597C54.9119 30.2534 54.96 30.3719 54.96 30.5151C54.96 30.6558 54.9119 30.7729 54.8155 30.8667C54.7192 30.9604 54.5876 31.0073 54.421 31.0073C54.2517 31.0073 54.1189 30.9604 54.0225 30.8667C53.9288 30.7729 53.8819 30.6558 53.8819 30.5151Z" />
<path d="M56.8546 32.5269V35.8511H55.9132V31.6245H56.7999L56.8546 32.5269ZM56.6866 33.5815L56.3819 33.5776C56.3845 33.2782 56.4262 33.0034 56.5069 32.7534C56.5902 32.5034 56.7048 32.2886 56.8507 32.1089C56.9991 31.9292 57.1762 31.7912 57.3819 31.6948C57.5876 31.5959 57.8168 31.5464 58.0694 31.5464C58.2725 31.5464 58.4561 31.575 58.6202 31.6323C58.7869 31.687 58.9288 31.7769 59.046 31.9019C59.1658 32.0269 59.2569 32.1896 59.3194 32.3901C59.3819 32.588 59.4132 32.8315 59.4132 33.1206V35.8511H58.4678V33.1167C58.4678 32.9136 58.4379 32.7534 58.378 32.6362C58.3207 32.5164 58.2361 32.4318 58.1241 32.3823C58.0147 32.3302 57.878 32.3042 57.7139 32.3042C57.5525 32.3042 57.408 32.338 57.2803 32.4058C57.1527 32.4735 57.0447 32.5659 56.9561 32.6831C56.8702 32.8003 56.8038 32.9357 56.7569 33.0894C56.71 33.243 56.6866 33.4071 56.6866 33.5815Z" />
<path d="M63.0811 31.6245H63.9366V35.7339C63.9366 36.1141 63.8559 36.437 63.6944 36.7026C63.533 36.9683 63.3077 37.1701 63.0186 37.3081C62.7296 37.4487 62.3949 37.519 62.0147 37.519C61.8533 37.519 61.6736 37.4956 61.4757 37.4487C61.2803 37.4019 61.0902 37.3263 60.9053 37.2222C60.7231 37.1206 60.5707 36.9865 60.4483 36.8198L60.8897 36.2651C61.0408 36.4448 61.2074 36.5763 61.3897 36.6597C61.572 36.743 61.7634 36.7847 61.9639 36.7847C62.1801 36.7847 62.3637 36.7443 62.5147 36.6636C62.6684 36.5854 62.7869 36.4696 62.8702 36.3159C62.9535 36.1623 62.9952 35.9748 62.9952 35.7534V32.5815L63.0811 31.6245ZM60.21 33.7847V33.7026C60.21 33.3823 60.2491 33.0907 60.3272 32.8276C60.4053 32.562 60.5173 32.3341 60.6632 32.144C60.809 31.9513 60.9861 31.8042 61.1944 31.7026C61.4027 31.5985 61.6384 31.5464 61.9014 31.5464C62.1749 31.5464 62.408 31.5959 62.6007 31.6948C62.796 31.7938 62.9587 31.9357 63.0889 32.1206C63.2192 32.3029 63.3207 32.5216 63.3936 32.7769C63.4692 33.0295 63.5251 33.3107 63.5616 33.6206V33.8823C63.5277 34.1844 63.4705 34.4604 63.3897 34.7104C63.309 34.9604 63.2022 35.1766 63.0694 35.3589C62.9366 35.5412 62.7725 35.6818 62.5772 35.7808C62.3845 35.8797 62.1567 35.9292 61.8936 35.9292C61.6358 35.9292 61.4027 35.8758 61.1944 35.769C60.9887 35.6623 60.8116 35.5125 60.6632 35.3198C60.5173 35.1271 60.4053 34.9005 60.3272 34.6401C60.2491 34.3771 60.21 34.092 60.21 33.7847ZM61.1514 33.7026V33.7847C61.1514 33.9774 61.1697 34.1571 61.2061 34.3237C61.2452 34.4904 61.3038 34.6375 61.3819 34.7651C61.4626 34.8901 61.5642 34.9891 61.6866 35.062C61.8116 35.1323 61.9587 35.1675 62.128 35.1675C62.3494 35.1675 62.5303 35.1206 62.671 35.0269C62.8142 34.9331 62.9236 34.8068 62.9991 34.6479C63.0772 34.4865 63.1319 34.3068 63.1632 34.1089V33.4019C63.1475 33.2482 63.115 33.105 63.0655 32.9722C63.0186 32.8394 62.9548 32.7235 62.8741 32.6245C62.7934 32.5229 62.6918 32.4448 62.5694 32.3901C62.447 32.3328 62.3025 32.3042 62.1358 32.3042C61.9665 32.3042 61.8194 32.3407 61.6944 32.4136C61.5694 32.4865 61.4665 32.5867 61.3858 32.7144C61.3077 32.842 61.2491 32.9904 61.21 33.1597C61.171 33.3289 61.1514 33.5099 61.1514 33.7026Z" />
<path d="M22.7285 14.7891C22.7285 15.2331 22.6385 15.6651 22.4585 16.0851C22.2905 16.4931 22.0385 16.8471 21.7025 17.1471C21.3785 17.4351 20.9825 17.6211 20.5145 17.7051C21.1145 17.7891 21.6185 17.9991 22.0265 18.3351C22.4465 18.6591 22.7645 19.0671 22.9805 19.5591C23.2085 20.0511 23.3225 20.5911 23.3225 21.1791C23.3225 21.9591 23.1785 22.5951 22.8905 23.0871C22.6025 23.5671 22.2125 23.9391 21.7205 24.2031C21.2285 24.4551 20.6765 24.6291 20.0645 24.7251C19.4525 24.8091 18.8285 24.8511 18.1925 24.8511H14.6285V12.9351C14.6285 12.9231 14.6045 12.8271 14.5565 12.6471C14.5205 12.4671 14.4845 12.2811 14.4485 12.0891C14.4125 11.8971 14.3885 11.7831 14.3765 11.7471H18.7505C19.2665 11.7471 19.7585 11.7951 20.2265 11.8911C20.7065 11.9751 21.1325 12.1311 21.5045 12.3591C21.8885 12.5871 22.1885 12.8991 22.4045 13.2951C22.6205 13.6791 22.7285 14.1771 22.7285 14.7891ZM20.9825 14.8251C20.9825 14.3451 20.8745 13.9731 20.6585 13.7091C20.4545 13.4451 20.1785 13.2591 19.8305 13.1511C19.4825 13.0431 19.1045 12.9891 18.6965 12.9891H16.3025V17.1651H18.2285C18.7925 17.1651 19.2785 17.0931 19.6865 16.9491C20.0945 16.8051 20.4125 16.5651 20.6405 16.2291C20.8685 15.8811 20.9825 15.4131 20.9825 14.8251ZM21.5405 20.9091C21.5405 20.2971 21.3785 19.8111 21.0545 19.4511C20.7425 19.0791 20.3345 18.8151 19.8305 18.6591C19.3385 18.4911 18.8285 18.4071 18.3005 18.4071H16.3025V23.6091H18.3005C18.9365 23.6091 19.4945 23.5371 19.9745 23.3931C20.4665 23.2371 20.8505 22.9611 21.1265 22.5651C21.4025 22.1691 21.5405 21.6171 21.5405 20.9091Z" />
<path d="M29.0151 15.6891C29.7351 15.6891 30.3411 15.8391 30.8331 16.1391C31.3251 16.4271 31.6911 16.8351 31.9311 17.3631C32.1831 17.8791 32.3091 18.4851 32.3091 19.1811C32.3091 19.3491 32.2971 19.5231 32.2731 19.7031C32.2611 19.8711 32.2431 20.0511 32.2191 20.2431H26.5311C26.5311 21.3831 26.7831 22.2651 27.2871 22.8891C27.7911 23.5131 28.4631 23.8251 29.3031 23.8251C29.6511 23.8251 30.0111 23.7711 30.3831 23.6631C30.7671 23.5551 31.1631 23.3931 31.5711 23.1771L32.1291 24.0771C31.7091 24.4131 31.2351 24.6651 30.7071 24.8331C30.1791 25.0011 29.6451 25.0851 29.1051 25.0851C28.3971 25.0851 27.7791 24.9591 27.2511 24.7071C26.7351 24.4431 26.3031 24.0951 25.9551 23.6631C25.6191 23.2191 25.3671 22.7211 25.1991 22.1691C25.0311 21.6171 24.9471 21.0531 24.9471 20.4771C24.9471 19.8771 25.0311 19.2951 25.1991 18.7311C25.3671 18.1671 25.6191 17.6571 25.9551 17.2011C26.3031 16.7331 26.7291 16.3671 27.2331 16.1031C27.7371 15.8271 28.3311 15.6891 29.0151 15.6891ZM28.8711 16.8231C28.4631 16.8231 28.1031 16.9371 27.7911 17.1651C27.4791 17.3931 27.2271 17.6871 27.0351 18.0471C26.8431 18.3951 26.7111 18.7551 26.6391 19.1271H30.7431C30.7551 18.6231 30.6831 18.2031 30.5271 17.8671C30.3831 17.5191 30.1671 17.2611 29.8791 17.0931C29.6031 16.9131 29.2671 16.8231 28.8711 16.8231Z" />
<path d="M46.8281 14.7891C46.8281 15.2331 46.7381 15.6651 46.5581 16.0851C46.3901 16.4931 46.1381 16.8471 45.8021 17.1471C45.4781 17.4351 45.0821 17.6211 44.6141 17.7051C45.2141 17.7891 45.7181 17.9991 46.1261 18.3351C46.5461 18.6591 46.8641 19.0671 47.0801 19.5591C47.3081 20.0511 47.4221 20.5911 47.4221 21.1791C47.4221 21.9591 47.2781 22.5951 46.9901 23.0871C46.7021 23.5671 46.3121 23.9391 45.8201 24.2031C45.3281 24.4551 44.7761 24.6291 44.1641 24.7251C43.5521 24.8091 42.9281 24.8511 42.2921 24.8511H38.7281V12.9351C38.7281 12.9231 38.7041 12.8271 38.6561 12.6471C38.6201 12.4671 38.5841 12.2811 38.5481 12.0891C38.5121 11.8971 38.4881 11.7831 38.4761 11.7471H42.8501C43.3661 11.7471 43.8581 11.7951 44.3261 11.8911C44.8061 11.9751 45.2321 12.1311 45.6041 12.3591C45.9881 12.5871 46.2881 12.8991 46.5041 13.2951C46.7201 13.6791 46.8281 14.1771 46.8281 14.7891ZM45.0821 14.8251C45.0821 14.3451 44.9741 13.9731 44.7581 13.7091C44.5541 13.4451 44.2781 13.2591 43.9301 13.1511C43.5821 13.0431 43.2041 12.9891 42.7961 12.9891H40.4021V17.1651H42.3281C42.8921 17.1651 43.3781 17.0931 43.7861 16.9491C44.1941 16.8051 44.5121 16.5651 44.7401 16.2291C44.9681 15.8811 45.0821 15.4131 45.0821 14.8251ZM45.6401 20.9091C45.6401 20.2971 45.4781 19.8111 45.1541 19.4511C44.8421 19.0791 44.4341 18.8151 43.9301 18.6591C43.4381 18.4911 42.9281 18.4071 42.4001 18.4071H40.4021V23.6091H42.4001C43.0361 23.6091 43.5941 23.5371 44.0741 23.3931C44.5661 23.2371 44.9501 22.9611 45.2261 22.5651C45.5021 22.1691 45.6401 21.6171 45.6401 20.9091Z" />
<path d="M53.1147 15.6891C53.8347 15.6891 54.4407 15.8391 54.9327 16.1391C55.4247 16.4271 55.7907 16.8351 56.0307 17.3631C56.2827 17.8791 56.4087 18.4851 56.4087 19.1811C56.4087 19.3491 56.3967 19.5231 56.3727 19.7031C56.3607 19.8711 56.3427 20.0511 56.3187 20.2431H50.6307C50.6307 21.3831 50.8827 22.2651 51.3867 22.8891C51.8907 23.5131 52.5627 23.8251 53.4027 23.8251C53.7507 23.8251 54.1107 23.7711 54.4827 23.6631C54.8667 23.5551 55.2627 23.3931 55.6707 23.1771L56.2287 24.0771C55.8087 24.4131 55.3347 24.6651 54.8067 24.8331C54.2787 25.0011 53.7447 25.0851 53.2047 25.0851C52.4967 25.0851 51.8787 24.9591 51.3507 24.7071C50.8347 24.4431 50.4027 24.0951 50.0547 23.6631C49.7187 23.2191 49.4667 22.7211 49.2987 22.1691C49.1307 21.6171 49.0467 21.0531 49.0467 20.4771C49.0467 19.8771 49.1307 19.2951 49.2987 18.7311C49.4667 18.1671 49.7187 17.6571 50.0547 17.2011C50.4027 16.7331 50.8287 16.3671 51.3327 16.1031C51.8367 15.8271 52.4307 15.6891 53.1147 15.6891ZM52.9707 16.8231C52.5627 16.8231 52.2027 16.9371 51.8907 17.1651C51.5787 17.3931 51.3267 17.6871 51.1347 18.0471C50.9427 18.3951 50.8107 18.7551 50.7387 19.1271H54.8427C54.8547 18.6231 54.7827 18.2031 54.6267 17.8671C54.4827 17.5191 54.2667 17.2611 53.9787 17.0931C53.7027 16.9131 53.3667 16.8231 52.9707 16.8231Z" />
<path d="M60.6952 13.3491C60.6112 13.7571 60.5332 14.1831 60.4612 14.6271C60.4012 15.0591 60.3592 15.4851 60.3352 15.9051H62.6752L62.3692 17.0391H60.3352V22.7631C60.3352 22.9911 60.3592 23.1951 60.4072 23.3751C60.4672 23.5431 60.5632 23.6751 60.6952 23.7711C60.8392 23.8551 61.0372 23.8971 61.2892 23.8971C61.4812 23.8971 61.6732 23.8791 61.8652 23.8431C62.0572 23.8071 62.2432 23.7651 62.4232 23.7171L62.6752 24.7251C62.3752 24.8091 62.0872 24.8811 61.8112 24.9411C61.5472 25.0131 61.2412 25.0491 60.8932 25.0491C60.1252 25.0491 59.5912 24.8451 59.2912 24.4371C58.9912 24.0291 58.8412 23.4591 58.8412 22.7271V17.0391H57.5092V16.1391C57.8692 16.1271 58.1692 16.0311 58.4092 15.8511C58.6492 15.6711 58.8472 15.4431 59.0032 15.1671C59.1592 14.8791 59.2852 14.5791 59.3812 14.2671C59.4772 13.9431 59.5492 13.6371 59.5972 13.3491H60.6952Z" />
<path d="M66.5839 13.3491C66.4999 13.7571 66.4219 14.1831 66.3499 14.6271C66.2899 15.0591 66.2479 15.4851 66.2239 15.9051H68.5639L68.2579 17.0391H66.2239V22.7631C66.2239 22.9911 66.2479 23.1951 66.2959 23.3751C66.3559 23.5431 66.4519 23.6751 66.5839 23.7711C66.7279 23.8551 66.9259 23.8971 67.1779 23.8971C67.3699 23.8971 67.5619 23.8791 67.7539 23.8431C67.9459 23.8071 68.1319 23.7651 68.3119 23.7171L68.5639 24.7251C68.2639 24.8091 67.9759 24.8811 67.6999 24.9411C67.4359 25.0131 67.1299 25.0491 66.7819 25.0491C66.0139 25.0491 65.4799 24.8451 65.1799 24.4371C64.8799 24.0291 64.7299 23.4591 64.7299 22.7271V17.0391H63.3979V16.1391C63.7579 16.1271 64.0579 16.0311 64.2979 15.8511C64.5379 15.6711 64.7359 15.4431 64.8919 15.1671C65.0479 14.8791 65.1739 14.5791 65.2699 14.2671C65.3659 13.9431 65.4379 13.6371 65.4859 13.3491H66.5839Z" />
<path d="M73.5229 15.6891C74.2429 15.6891 74.8489 15.8391 75.3409 16.1391C75.8329 16.4271 76.1989 16.8351 76.4389 17.3631C76.6909 17.8791 76.8169 18.4851 76.8169 19.1811C76.8169 19.3491 76.8049 19.5231 76.7809 19.7031C76.7689 19.8711 76.7509 20.0511 76.7269 20.2431H71.0389C71.0389 21.3831 71.2909 22.2651 71.7949 22.8891C72.2989 23.5131 72.9709 23.8251 73.8109 23.8251C74.1589 23.8251 74.5189 23.7711 74.8909 23.6631C75.2749 23.5551 75.6709 23.3931 76.0789 23.1771L76.6369 24.0771C76.2169 24.4131 75.7429 24.6651 75.2149 24.8331C74.6869 25.0011 74.1529 25.0851 73.6129 25.0851C72.9049 25.0851 72.2869 24.9591 71.7589 24.7071C71.2429 24.4431 70.8109 24.0951 70.4629 23.6631C70.1269 23.2191 69.8749 22.7211 69.7069 22.1691C69.5389 21.6171 69.4549 21.0531 69.4549 20.4771C69.4549 19.8771 69.5389 19.2951 69.7069 18.7311C69.8749 18.1671 70.1269 17.6571 70.4629 17.2011C70.8109 16.7331 71.2369 16.3671 71.7409 16.1031C72.2449 15.8271 72.8389 15.6891 73.5229 15.6891ZM73.3789 16.8231C72.9709 16.8231 72.6109 16.9371 72.2989 17.1651C71.9869 17.3931 71.7349 17.6871 71.5429 18.0471C71.3509 18.3951 71.2189 18.7551 71.1469 19.1271H75.2509C75.2629 18.6231 75.1909 18.2031 75.0349 17.8671C74.8909 17.5191 74.6749 17.2611 74.3869 17.0931C74.1109 16.9131 73.7749 16.8231 73.3789 16.8231Z" />
<path d="M80.0594 15.7431C80.2754 16.2711 80.4134 16.8291 80.4734 17.4171C80.7854 16.9251 81.2055 16.5231 81.7335 16.2111C82.2615 15.8991 82.8194 15.7431 83.4074 15.7431L83.0474 17.3271C82.4714 17.3271 81.9794 17.4771 81.5714 17.7771C81.1754 18.0771 80.8215 18.4551 80.5095 18.9111V24.8511H79.0154V18.3711C79.0154 18.1311 78.9974 17.8611 78.9614 17.5611C78.9254 17.2611 78.8654 16.9671 78.7814 16.6791C78.6974 16.3911 78.5834 16.1451 78.4394 15.9411L80.0594 15.7431Z" />
<mask id="path-2-inside-1_597_1862" fill="white">
<path d="M39.352 43.4467C38.9661 43.7493 38.5709 44.0462 38.1615 44.3289C37.752 44.6116 37.335 44.8818 36.9186 45.1343C31.1899 48.6099 24.5888 49.4269 18.5483 47.9386C12.5079 46.4503 7.02811 42.6566 3.5421 36.9107C0.056102 31.1647 -0.777429 24.5522 0.692715 18.5073C2.16286 12.4624 5.93668 6.98512 11.6654 3.50958C16.016 0.87009 20.9636 -0.269155 25.8183 0.0532987C30.6772 0.373226 35.4381 2.1465 39.4222 5.3337L39.2024 5.60985C35.2746 2.46849 30.5832 0.715886 25.7971 0.403231C21.0135 0.0947518 16.1369 1.21952 11.8487 3.82112C6.20326 7.24614 2.48411 12.6446 1.03678 18.5956C-0.412175 24.5534 0.410695 31.0639 3.84603 36.7263C7.28136 42.3887 12.6822 46.1275 18.6289 47.5927C24.5823 49.0595 31.0816 48.2529 36.727 44.8279C37.1475 44.5727 37.5562 44.3076 37.9532 44.0325C38.3502 43.7574 38.7437 43.4672 39.1271 43.1604L39.352 43.4467Z"/>
</mask>
<path d="M39.352 43.4467C38.9661 43.7493 38.5709 44.0462 38.1615 44.3289C37.752 44.6116 37.335 44.8818 36.9186 45.1343C31.1899 48.6099 24.5888 49.4269 18.5483 47.9386C12.5079 46.4503 7.02811 42.6566 3.5421 36.9107C0.056102 31.1647 -0.777429 24.5522 0.692715 18.5073C2.16286 12.4624 5.93668 6.98512 11.6654 3.50958C16.016 0.87009 20.9636 -0.269155 25.8183 0.0532987C30.6772 0.373226 35.4381 2.1465 39.4222 5.3337L39.2024 5.60985C35.2746 2.46849 30.5832 0.715886 25.7971 0.403231C21.0135 0.0947518 16.1369 1.21952 11.8487 3.82112C6.20326 7.24614 2.48411 12.6446 1.03678 18.5956C-0.412175 24.5534 0.410695 31.0639 3.84603 36.7263C7.28136 42.3887 12.6822 46.1275 18.6289 47.5927C24.5823 49.0595 31.0816 48.2529 36.727 44.8279C37.1475 44.5727 37.5562 44.3076 37.9532 44.0325C38.3502 43.7574 38.7437 43.4672 39.1271 43.1604L39.352 43.4467Z" />
<path d="M39.352 43.4467L40.5863 45.0204L42.1614 43.785L40.9246 42.211L39.352 43.4467ZM36.9186 45.1343L37.956 46.8443L36.9186 45.1343ZM11.6654 3.50958L12.7028 5.2195L11.6654 3.50958ZM25.8183 0.0532987L25.6858 2.0489L25.6869 2.04898L25.8183 0.0532987ZM39.4222 5.3337L40.9871 6.5791L42.2294 5.01815L40.6716 3.77195L39.4222 5.3337ZM39.2024 5.60985L37.9533 7.17176L39.5189 8.42396L40.7674 6.85525L39.2024 5.60985ZM25.7971 0.403231L25.9275 -1.59252L25.9258 -1.59262L25.7971 0.403231ZM11.8487 3.82112L12.8861 5.53104L11.8487 3.82112ZM1.03678 18.5956L2.98013 19.0683L1.03678 18.5956ZM18.6289 47.5927L19.1074 45.6507L18.6289 47.5927ZM36.727 44.8279L37.7644 46.5378L36.727 44.8279ZM39.1271 43.1604L40.6997 41.9247L39.4528 40.3379L37.8773 41.5989L39.1271 43.1604ZM38.1177 41.873C37.7531 42.159 37.3917 42.43 37.0252 42.683L39.2978 45.9748C39.7501 45.6624 40.1791 45.3397 40.5863 45.0204L38.1177 41.873ZM37.0252 42.683C36.6477 42.9437 36.2636 43.1925 35.8812 43.4244L37.956 46.8443C38.4063 46.5711 38.8564 46.2795 39.2978 45.9748L37.0252 42.683ZM35.8812 43.4244C30.6261 46.6126 24.5735 47.3633 19.0268 45.9967L18.0699 49.8806C24.6041 51.4905 31.7537 50.6071 37.956 46.8443L35.8812 43.4244ZM19.0268 45.9967C13.48 44.63 8.45275 41.149 5.25202 35.8733L1.83218 37.9481C5.60346 44.1642 11.5358 48.2706 18.0699 49.8806L19.0268 45.9967ZM5.25202 35.8733C2.0513 30.5976 1.28607 24.5308 2.63607 18.9799L-1.25064 18.0347C-2.84093 24.5736 -1.9391 31.7319 1.83218 37.9481L5.25202 35.8733ZM2.63607 18.9799C3.98603 13.4292 7.44767 8.40771 12.7028 5.2195L10.628 1.79966C4.4257 5.56252 0.339692 11.4956 -1.25064 18.0347L2.63607 18.9799ZM12.7028 5.2195C16.694 2.79807 21.2316 1.75305 25.6858 2.0489L25.9509 -1.9423C20.6956 -2.29136 15.3381 -1.05789 10.628 1.79966L12.7028 5.2195ZM25.6869 2.04898C30.1474 2.34267 34.5159 3.96997 38.1728 6.89545L40.6716 3.77195C36.3603 0.323033 31.207 -1.59622 25.9497 -1.94238L25.6869 2.04898ZM37.8573 4.0883L37.6375 4.36445L40.7674 6.85525L40.9871 6.5791L37.8573 4.0883ZM40.4516 4.04795C36.198 0.645996 31.1143 -1.25368 25.9275 -1.59252L25.6667 2.39898C30.0521 2.68546 34.3513 4.29097 37.9533 7.17176L40.4516 4.04795ZM25.9258 -1.59262C20.7437 -1.9268 15.4585 -0.708197 10.8113 2.1112L12.8861 5.53104C16.8153 3.14723 21.2833 2.1163 25.6684 2.39909L25.9258 -1.59262ZM10.8113 2.1112C4.69244 5.82344 0.660988 11.6776 -0.906572 18.123L2.98013 19.0683C4.30723 13.6116 7.71408 8.66883 12.8861 5.53104L10.8113 2.1112ZM-0.906572 18.123C-2.4758 24.5753 -1.58425 31.6314 2.13611 37.7637L5.55595 35.6889C2.40564 30.4963 1.65145 24.5315 2.98013 19.0683L-0.906572 18.123ZM2.13611 37.7637C5.85662 43.8962 11.7099 47.9477 18.1505 49.5346L19.1074 45.6507C13.6546 44.3072 8.70611 40.8813 5.55595 35.6889L2.13611 37.7637ZM18.1505 49.5346C24.5982 51.1232 31.6458 50.2499 37.7644 46.5378L35.6896 43.1179C30.5173 46.2559 24.5665 46.9958 19.1074 45.6507L18.1505 49.5346ZM37.7644 46.5378C38.2189 46.262 38.6616 45.9749 39.0924 45.6763L36.814 42.3887C36.4509 42.6403 36.0761 42.8834 35.6896 43.1179L37.7644 46.5378ZM39.0924 45.6763C39.5216 45.3789 39.9526 45.0613 40.3768 44.7218L37.8773 41.5989C37.5347 41.8731 37.1787 42.1359 36.814 42.3887L39.0924 45.6763ZM37.5545 44.3961L37.7794 44.6823L40.9246 42.211L40.6997 41.9247L37.5545 44.3961Z"  mask="url(#path-2-inside-1_597_1862)"/>
</svg>
