<svg width="84" height="49" viewBox="0 0 84 49" fill="none" xmlns="http://www.w3.org/2000/svg">
<path d="M18.635 36.2227V37H15.7795V36.2227H18.635ZM16.053 31.3125V37H15.0725V31.3125H16.053Z" fill="#FFFCFC"/>
<path d="M20.3069 32.7734V37H19.3616V32.7734H20.3069ZM19.2991 31.6641C19.2991 31.5208 19.3459 31.4023 19.4397 31.3086C19.5361 31.2122 19.6689 31.1641 19.8381 31.1641C20.0048 31.1641 20.1363 31.2122 20.2327 31.3086C20.329 31.4023 20.3772 31.5208 20.3772 31.6641C20.3772 31.8047 20.329 31.9219 20.2327 32.0156C20.1363 32.1094 20.0048 32.1562 19.8381 32.1562C19.6689 32.1562 19.5361 32.1094 19.4397 32.0156C19.3459 31.9219 19.2991 31.8047 19.2991 31.6641Z" fill="#FFFCFC"/>
<path d="M22.6116 37H21.6702V32.3672C21.6702 32.0521 21.7288 31.7878 21.8459 31.5742C21.9657 31.3581 22.1363 31.1953 22.3577 31.0859C22.579 30.974 22.8407 30.918 23.1428 30.918C23.2366 30.918 23.329 30.9245 23.4202 30.9375C23.5113 30.9479 23.5999 30.9648 23.6858 30.9883L23.6624 31.7148C23.6103 31.7018 23.553 31.6927 23.4905 31.6875C23.4306 31.6823 23.3655 31.6797 23.2952 31.6797C23.1519 31.6797 23.0282 31.707 22.9241 31.7617C22.8225 31.8138 22.7444 31.8906 22.6897 31.9922C22.6376 32.0938 22.6116 32.2188 22.6116 32.3672V37ZM23.4827 32.7734V33.4609H21.0217V32.7734H23.4827Z" fill="#FFFCFC"/>
<path d="M25.9358 37.0781C25.6233 37.0781 25.3407 37.0273 25.0881 36.9258C24.8381 36.8216 24.6246 36.6771 24.4475 36.4922C24.273 36.3073 24.1389 36.0898 24.0452 35.8398C23.9514 35.5898 23.9045 35.3203 23.9045 35.0312V34.875C23.9045 34.5443 23.9527 34.2448 24.0491 33.9766C24.1454 33.7083 24.2795 33.4792 24.4514 33.2891C24.6233 33.0964 24.8264 32.9492 25.0608 32.8477C25.2952 32.7461 25.5491 32.6953 25.8225 32.6953C26.1246 32.6953 26.3889 32.7461 26.6155 32.8477C26.842 32.9492 27.0295 33.0924 27.178 33.2773C27.329 33.4596 27.441 33.6771 27.5139 33.9297C27.5894 34.1823 27.6272 34.4609 27.6272 34.7656V35.168H24.3616V34.4922H26.6975V34.418C26.6923 34.2487 26.6584 34.0898 26.5959 33.9414C26.5361 33.793 26.4436 33.6732 26.3186 33.582C26.1936 33.4909 26.0269 33.4453 25.8186 33.4453C25.6624 33.4453 25.523 33.4792 25.4006 33.5469C25.2808 33.612 25.1806 33.707 25.0999 33.832C25.0191 33.957 24.9566 34.1081 24.9124 34.2852C24.8707 34.4596 24.8499 34.6562 24.8499 34.875V35.0312C24.8499 35.2161 24.8746 35.388 24.9241 35.5469C24.9762 35.7031 25.0517 35.8398 25.1506 35.957C25.2496 36.0742 25.3694 36.1667 25.51 36.2344C25.6506 36.2995 25.8108 36.332 25.9905 36.332C26.217 36.332 26.4189 36.2865 26.5959 36.1953C26.773 36.1042 26.9267 35.9753 27.0569 35.8086L27.553 36.2891C27.4618 36.4219 27.3433 36.5495 27.1975 36.6719C27.0517 36.7917 26.8733 36.8893 26.6624 36.9648C26.454 37.0404 26.2118 37.0781 25.9358 37.0781Z" fill="#FFFCFC"/>
<path d="M30.2561 34.1953V34.9453H28.1897V34.1953H30.2561Z" fill="#FFFCFC"/>
<path d="M34.5334 35.1484H35.51C35.4788 35.5208 35.3746 35.8529 35.1975 36.1445C35.0204 36.4336 34.7717 36.6615 34.4514 36.8281C34.1311 36.9948 33.7418 37.0781 33.2834 37.0781C32.9319 37.0781 32.6155 37.0156 32.3342 36.8906C32.053 36.763 31.8121 36.5833 31.6116 36.3516C31.4111 36.1172 31.2574 35.8346 31.1506 35.5039C31.0465 35.1732 30.9944 34.8034 30.9944 34.3945V33.9219C30.9944 33.513 31.0478 33.1432 31.1545 32.8125C31.2639 32.4818 31.4202 32.1992 31.6233 31.9648C31.8264 31.7279 32.0699 31.5469 32.3538 31.4219C32.6402 31.2969 32.9618 31.2344 33.3186 31.2344C33.7717 31.2344 34.1545 31.3177 34.467 31.4844C34.7795 31.651 35.0217 31.8815 35.1936 32.1758C35.3681 32.4701 35.4749 32.8073 35.5139 33.1875H34.5374C34.5113 32.9427 34.454 32.7331 34.3655 32.5586C34.2795 32.3841 34.1519 32.2513 33.9827 32.1602C33.8134 32.0664 33.592 32.0195 33.3186 32.0195C33.0946 32.0195 32.8993 32.0612 32.7327 32.1445C32.566 32.2279 32.4267 32.3503 32.3147 32.5117C32.2027 32.6732 32.1181 32.8724 32.0608 33.1094C32.0061 33.3438 31.9788 33.612 31.9788 33.9141V34.3945C31.9788 34.681 32.0035 34.9414 32.053 35.1758C32.1051 35.4076 32.1832 35.6068 32.2874 35.7734C32.3941 35.9401 32.5295 36.069 32.6936 36.1602C32.8577 36.2513 33.0543 36.2969 33.2834 36.2969C33.5621 36.2969 33.7874 36.2526 33.9592 36.1641C34.1337 36.0755 34.2652 35.9466 34.3538 35.7773C34.4449 35.6055 34.5048 35.3958 34.5334 35.1484Z" fill="#FFFCFC"/>
<path d="M36.1272 34.9336V34.8438C36.1272 34.5391 36.1715 34.2565 36.26 33.9961C36.3486 33.7331 36.4762 33.5052 36.6428 33.3125C36.8121 33.1172 37.0178 32.9661 37.26 32.8594C37.5048 32.75 37.7808 32.6953 38.0881 32.6953C38.398 32.6953 38.6741 32.75 38.9163 32.8594C39.1611 32.9661 39.3681 33.1172 39.5374 33.3125C39.7066 33.5052 39.8355 33.7331 39.9241 33.9961C40.0126 34.2565 40.0569 34.5391 40.0569 34.8438V34.9336C40.0569 35.2383 40.0126 35.5208 39.9241 35.7812C39.8355 36.0417 39.7066 36.2695 39.5374 36.4648C39.3681 36.6576 39.1624 36.8086 38.9202 36.918C38.678 37.0247 38.4032 37.0781 38.0959 37.0781C37.7861 37.0781 37.5087 37.0247 37.2639 36.918C37.0217 36.8086 36.816 36.6576 36.6467 36.4648C36.4775 36.2695 36.3486 36.0417 36.26 35.7812C36.1715 35.5208 36.1272 35.2383 36.1272 34.9336ZM37.0686 34.8438V34.9336C37.0686 35.1237 37.0881 35.3034 37.1272 35.4727C37.1663 35.6419 37.2275 35.7904 37.3108 35.918C37.3941 36.0456 37.5009 36.1458 37.6311 36.2188C37.7613 36.2917 37.9163 36.3281 38.0959 36.3281C38.2704 36.3281 38.4215 36.2917 38.5491 36.2188C38.6793 36.1458 38.7861 36.0456 38.8694 35.918C38.9527 35.7904 39.0139 35.6419 39.053 35.4727C39.0946 35.3034 39.1155 35.1237 39.1155 34.9336V34.8438C39.1155 34.6562 39.0946 34.4792 39.053 34.3125C39.0139 34.1432 38.9514 33.9935 38.8655 33.8633C38.7821 33.7331 38.6754 33.6315 38.5452 33.5586C38.4176 33.4831 38.2652 33.4453 38.0881 33.4453C37.9111 33.4453 37.7574 33.4831 37.6272 33.5586C37.4996 33.6315 37.3941 33.7331 37.3108 33.8633C37.2275 33.9935 37.1663 34.1432 37.1272 34.3125C37.0881 34.4792 37.0686 34.6562 37.0686 34.8438Z" fill="#FFFCFC"/>
<path d="M43.2288 36.1523V34.1367C43.2288 33.9857 43.2014 33.8555 43.1467 33.7461C43.092 33.6367 43.0087 33.5521 42.8967 33.4922C42.7874 33.4323 42.6493 33.4023 42.4827 33.4023C42.329 33.4023 42.1962 33.4284 42.0842 33.4805C41.9722 33.5326 41.885 33.6029 41.8225 33.6914C41.76 33.7799 41.7288 33.8802 41.7288 33.9922H40.7913C40.7913 33.8255 40.8316 33.6641 40.9124 33.5078C40.9931 33.3516 41.1103 33.2122 41.2639 33.0898C41.4176 32.9674 41.6012 32.8711 41.8147 32.8008C42.0282 32.7305 42.2678 32.6953 42.5334 32.6953C42.8512 32.6953 43.1324 32.7487 43.3772 32.8555C43.6246 32.9622 43.8186 33.1237 43.9592 33.3398C44.1025 33.5534 44.1741 33.8216 44.1741 34.1445V36.0234C44.1741 36.2161 44.1871 36.3893 44.2131 36.543C44.2418 36.694 44.2821 36.8255 44.3342 36.9375V37H43.3694C43.3251 36.8984 43.29 36.7695 43.2639 36.6133C43.2405 36.4544 43.2288 36.3008 43.2288 36.1523ZM43.3655 34.4297L43.3733 35.0117H42.6975C42.523 35.0117 42.3694 35.0286 42.2366 35.0625C42.1038 35.0938 41.9931 35.1406 41.9045 35.2031C41.816 35.2656 41.7496 35.3411 41.7053 35.4297C41.6611 35.5182 41.6389 35.6185 41.6389 35.7305C41.6389 35.8424 41.665 35.9453 41.717 36.0391C41.7691 36.1302 41.8446 36.2018 41.9436 36.2539C42.0452 36.306 42.1676 36.332 42.3108 36.332C42.5035 36.332 42.6715 36.293 42.8147 36.2148C42.9605 36.1341 43.0751 36.0365 43.1584 35.9219C43.2418 35.8047 43.2861 35.694 43.2913 35.5898L43.5959 36.0078C43.5647 36.1146 43.5113 36.2292 43.4358 36.3516C43.3603 36.474 43.2613 36.5911 43.1389 36.7031C43.0191 36.8125 42.8746 36.9023 42.7053 36.9727C42.5387 37.043 42.3459 37.0781 42.1272 37.0781C41.8512 37.0781 41.6051 37.0234 41.3889 36.9141C41.1728 36.8021 41.0035 36.6523 40.8811 36.4648C40.7587 36.2747 40.6975 36.0599 40.6975 35.8203C40.6975 35.5964 40.7392 35.3984 40.8225 35.2266C40.9084 35.0521 41.0334 34.9062 41.1975 34.7891C41.3642 34.6719 41.5673 34.5833 41.8069 34.5234C42.0465 34.4609 42.3199 34.4297 42.6272 34.4297H43.3655Z" fill="#FFFCFC"/>
<path d="M46.885 36.3281C47.0387 36.3281 47.1767 36.2982 47.2991 36.2383C47.4241 36.1758 47.5243 36.0898 47.5999 35.9805C47.678 35.8711 47.7209 35.7448 47.7288 35.6016H48.6155C48.6103 35.875 48.5295 36.1237 48.3733 36.3477C48.217 36.5716 48.01 36.75 47.7522 36.8828C47.4944 37.013 47.2092 37.0781 46.8967 37.0781C46.5738 37.0781 46.2926 37.0234 46.053 36.9141C45.8134 36.8021 45.6142 36.6484 45.4553 36.4531C45.2965 36.2578 45.1767 36.0326 45.0959 35.7773C45.0178 35.5221 44.9788 35.2487 44.9788 34.957V34.8203C44.9788 34.5286 45.0178 34.2552 45.0959 34C45.1767 33.7422 45.2965 33.5156 45.4553 33.3203C45.6142 33.125 45.8134 32.9727 46.053 32.8633C46.2926 32.7513 46.5725 32.6953 46.8928 32.6953C47.2314 32.6953 47.5282 32.763 47.7834 32.8984C48.0387 33.0312 48.2392 33.2174 48.385 33.457C48.5334 33.694 48.6103 33.9701 48.6155 34.2852H47.7288C47.7209 34.1289 47.6819 33.9883 47.6116 33.8633C47.5439 33.7357 47.4475 33.6341 47.3225 33.5586C47.2001 33.4831 47.053 33.4453 46.8811 33.4453C46.691 33.4453 46.5334 33.4844 46.4084 33.5625C46.2834 33.638 46.1858 33.7422 46.1155 33.875C46.0452 34.0052 45.9944 34.1523 45.9631 34.3164C45.9345 34.4779 45.9202 34.6458 45.9202 34.8203V34.957C45.9202 35.1315 45.9345 35.3008 45.9631 35.4648C45.9918 35.6289 46.0413 35.776 46.1116 35.9062C46.1845 36.0339 46.2834 36.1367 46.4084 36.2148C46.5334 36.2904 46.6923 36.3281 46.885 36.3281Z" fill="#FFFCFC"/>
<path d="M50.2678 31V37H49.3303V31H50.2678ZM50.1038 34.7305L49.7991 34.7266C49.8017 34.4349 49.842 34.1654 49.9202 33.918C50.0009 33.6706 50.1129 33.4557 50.2561 33.2734C50.4019 33.0885 50.5764 32.9466 50.7795 32.8477C50.9827 32.7461 51.2079 32.6953 51.4553 32.6953C51.6637 32.6953 51.8512 32.724 52.0178 32.7812C52.1871 32.8385 52.3329 32.931 52.4553 33.0586C52.5777 33.1836 52.6702 33.3477 52.7327 33.5508C52.7978 33.7513 52.8303 33.9961 52.8303 34.2852V37H51.885V34.2773C51.885 34.0742 51.8551 33.9128 51.7952 33.793C51.7379 33.6732 51.6532 33.5872 51.5413 33.5352C51.4293 33.4805 51.2926 33.4531 51.1311 33.4531C50.9618 33.4531 50.8121 33.487 50.6819 33.5547C50.5543 33.6224 50.4475 33.7148 50.3616 33.832C50.2756 33.9492 50.2105 34.0846 50.1663 34.2383C50.1246 34.3919 50.1038 34.556 50.1038 34.7305Z" fill="#FFFCFC"/>
<path d="M54.7913 32.7734V37H53.8459V32.7734H54.7913ZM53.7834 31.6641C53.7834 31.5208 53.8303 31.4023 53.9241 31.3086C54.0204 31.2122 54.1532 31.1641 54.3225 31.1641C54.4892 31.1641 54.6207 31.2122 54.717 31.3086C54.8134 31.4023 54.8616 31.5208 54.8616 31.6641C54.8616 31.8047 54.8134 31.9219 54.717 32.0156C54.6207 32.1094 54.4892 32.1562 54.3225 32.1562C54.1532 32.1562 54.0204 32.1094 53.9241 32.0156C53.8303 31.9219 53.7834 31.8047 53.7834 31.6641Z" fill="#FFFCFC"/>
<path d="M56.7561 33.6758V37H55.8147V32.7734H56.7014L56.7561 33.6758ZM56.5881 34.7305L56.2834 34.7266C56.2861 34.4271 56.3277 34.1523 56.4084 33.9023C56.4918 33.6523 56.6064 33.4375 56.7522 33.2578C56.9006 33.0781 57.0777 32.9401 57.2834 32.8438C57.4892 32.7448 57.7183 32.6953 57.9709 32.6953C58.1741 32.6953 58.3577 32.724 58.5217 32.7812C58.6884 32.8359 58.8303 32.9258 58.9475 33.0508C59.0673 33.1758 59.1584 33.3385 59.2209 33.5391C59.2834 33.737 59.3147 33.9805 59.3147 34.2695V37H58.3694V34.2656C58.3694 34.0625 58.3394 33.9023 58.2795 33.7852C58.2222 33.6654 58.1376 33.5807 58.0256 33.5312C57.9163 33.4792 57.7795 33.4531 57.6155 33.4531C57.454 33.4531 57.3095 33.487 57.1819 33.5547C57.0543 33.6224 56.9462 33.7148 56.8577 33.832C56.7717 33.9492 56.7053 34.0846 56.6584 34.2383C56.6116 34.3919 56.5881 34.556 56.5881 34.7305Z" fill="#FFFCFC"/>
<path d="M62.9827 32.7734H63.8381V36.8828C63.8381 37.263 63.7574 37.5859 63.5959 37.8516C63.4345 38.1172 63.2092 38.319 62.9202 38.457C62.6311 38.5977 62.2965 38.668 61.9163 38.668C61.7548 38.668 61.5751 38.6445 61.3772 38.5977C61.1819 38.5508 60.9918 38.4753 60.8069 38.3711C60.6246 38.2695 60.4722 38.1354 60.3499 37.9688L60.7913 37.4141C60.9423 37.5938 61.109 37.7253 61.2913 37.8086C61.4736 37.8919 61.665 37.9336 61.8655 37.9336C62.0816 37.9336 62.2652 37.8932 62.4163 37.8125C62.5699 37.7344 62.6884 37.6185 62.7717 37.4648C62.8551 37.3112 62.8967 37.1237 62.8967 36.9023V33.7305L62.9827 32.7734ZM60.1116 34.9336V34.8516C60.1116 34.5312 60.1506 34.2396 60.2288 33.9766C60.3069 33.7109 60.4189 33.4831 60.5647 33.293C60.7105 33.1003 60.8876 32.9531 61.0959 32.8516C61.3043 32.7474 61.54 32.6953 61.803 32.6953C62.0764 32.6953 62.3095 32.7448 62.5022 32.8438C62.6975 32.9427 62.8603 33.0846 62.9905 33.2695C63.1207 33.4518 63.2222 33.6706 63.2952 33.9258C63.3707 34.1784 63.4267 34.4596 63.4631 34.7695V35.0312C63.4293 35.3333 63.372 35.6094 63.2913 35.8594C63.2105 36.1094 63.1038 36.3255 62.9709 36.5078C62.8381 36.6901 62.6741 36.8307 62.4788 36.9297C62.2861 37.0286 62.0582 37.0781 61.7952 37.0781C61.5374 37.0781 61.3043 37.0247 61.0959 36.918C60.8902 36.8112 60.7131 36.6615 60.5647 36.4688C60.4189 36.276 60.3069 36.0495 60.2288 35.7891C60.1506 35.526 60.1116 35.2409 60.1116 34.9336ZM61.053 34.8516V34.9336C61.053 35.1263 61.0712 35.306 61.1077 35.4727C61.1467 35.6393 61.2053 35.7865 61.2834 35.9141C61.3642 36.0391 61.4657 36.138 61.5881 36.2109C61.7131 36.2812 61.8603 36.3164 62.0295 36.3164C62.2509 36.3164 62.4319 36.2695 62.5725 36.1758C62.7157 36.082 62.8251 35.9557 62.9006 35.7969C62.9788 35.6354 63.0334 35.4557 63.0647 35.2578V34.5508C63.0491 34.3971 63.0165 34.2539 62.967 34.1211C62.9202 33.9883 62.8564 33.8724 62.7756 33.7734C62.6949 33.6719 62.5933 33.5938 62.4709 33.5391C62.3486 33.4818 62.204 33.4531 62.0374 33.4531C61.8681 33.4531 61.7209 33.4896 61.5959 33.5625C61.4709 33.6354 61.3681 33.7357 61.2874 33.8633C61.2092 33.9909 61.1506 34.1393 61.1116 34.3086C61.0725 34.4779 61.053 34.6589 61.053 34.8516Z" fill="#FFFCFC"/>
<path d="M67.9475 31.3125V37H66.967V31.3125H67.9475Z" fill="#FFFCFC"/>
<path d="M72.5256 35.1484H73.5022C73.4709 35.5208 73.3668 35.8529 73.1897 36.1445C73.0126 36.4336 72.7639 36.6615 72.4436 36.8281C72.1233 36.9948 71.734 37.0781 71.2756 37.0781C70.9241 37.0781 70.6077 37.0156 70.3264 36.8906C70.0452 36.763 69.8043 36.5833 69.6038 36.3516C69.4032 36.1172 69.2496 35.8346 69.1428 35.5039C69.0387 35.1732 68.9866 34.8034 68.9866 34.3945V33.9219C68.9866 33.513 69.04 33.1432 69.1467 32.8125C69.2561 32.4818 69.4124 32.1992 69.6155 31.9648C69.8186 31.7279 70.0621 31.5469 70.3459 31.4219C70.6324 31.2969 70.954 31.2344 71.3108 31.2344C71.7639 31.2344 72.1467 31.3177 72.4592 31.4844C72.7717 31.651 73.0139 31.8815 73.1858 32.1758C73.3603 32.4701 73.467 32.8073 73.5061 33.1875H72.5295C72.5035 32.9427 72.4462 32.7331 72.3577 32.5586C72.2717 32.3841 72.1441 32.2513 71.9749 32.1602C71.8056 32.0664 71.5842 32.0195 71.3108 32.0195C71.0868 32.0195 70.8915 32.0612 70.7249 32.1445C70.5582 32.2279 70.4189 32.3503 70.3069 32.5117C70.1949 32.6732 70.1103 32.8724 70.053 33.1094C69.9983 33.3438 69.9709 33.612 69.9709 33.9141V34.3945C69.9709 34.681 69.9957 34.9414 70.0452 35.1758C70.0972 35.4076 70.1754 35.6068 70.2795 35.7734C70.3863 35.9401 70.5217 36.069 70.6858 36.1602C70.8499 36.2513 71.0465 36.2969 71.2756 36.2969C71.5543 36.2969 71.7795 36.2526 71.9514 36.1641C72.1259 36.0755 72.2574 35.9466 72.3459 35.7773C72.4371 35.6055 72.497 35.3958 72.5256 35.1484Z" fill="#FFFCFC"/>
<path d="M75.3733 31.3125V37H74.3928V31.3125H75.3733ZM77.6936 33.8008V34.5781H75.1233V33.8008H77.6936ZM78.0178 31.3125V32.0938H75.1233V31.3125H78.0178Z" fill="#FFFCFC"/>
<path d="M22.63 15.938C22.63 16.382 22.54 16.814 22.36 17.234C22.192 17.642 21.94 17.996 21.604 18.296C21.28 18.584 20.884 18.77 20.416 18.854C21.016 18.938 21.52 19.148 21.928 19.484C22.348 19.808 22.666 20.216 22.882 20.708C23.11 21.2 23.224 21.74 23.224 22.328C23.224 23.108 23.08 23.744 22.792 24.236C22.504 24.716 22.114 25.088 21.622 25.352C21.13 25.604 20.578 25.778 19.966 25.874C19.354 25.958 18.73 26 18.094 26H14.53V14.084C14.53 14.072 14.506 13.976 14.458 13.796C14.422 13.616 14.386 13.43 14.35 13.238C14.314 13.046 14.29 12.932 14.278 12.896H18.652C19.168 12.896 19.66 12.944 20.128 13.04C20.608 13.124 21.034 13.28 21.406 13.508C21.79 13.736 22.09 14.048 22.306 14.444C22.522 14.828 22.63 15.326 22.63 15.938ZM20.884 15.974C20.884 15.494 20.776 15.122 20.56 14.858C20.356 14.594 20.08 14.408 19.732 14.3C19.384 14.192 19.006 14.138 18.598 14.138H16.204V18.314H18.13C18.694 18.314 19.18 18.242 19.588 18.098C19.996 17.954 20.314 17.714 20.542 17.378C20.77 17.03 20.884 16.562 20.884 15.974ZM21.442 22.058C21.442 21.446 21.28 20.96 20.956 20.6C20.644 20.228 20.236 19.964 19.732 19.808C19.24 19.64 18.73 19.556 18.202 19.556H16.204V24.758H18.202C18.838 24.758 19.396 24.686 19.876 24.542C20.368 24.386 20.752 24.11 21.028 23.714C21.304 23.318 21.442 22.766 21.442 22.058Z" fill="#FFFCFC"/>
<path d="M28.9167 16.838C29.6367 16.838 30.2427 16.988 30.7347 17.288C31.2267 17.576 31.5927 17.984 31.8327 18.512C32.0847 19.028 32.2107 19.634 32.2107 20.33C32.2107 20.498 32.1987 20.672 32.1747 20.852C32.1627 21.02 32.1447 21.2 32.1207 21.392H26.4327C26.4327 22.532 26.6847 23.414 27.1887 24.038C27.6927 24.662 28.3647 24.974 29.2047 24.974C29.5527 24.974 29.9127 24.92 30.2847 24.812C30.6687 24.704 31.0647 24.542 31.4727 24.326L32.0307 25.226C31.6107 25.562 31.1367 25.814 30.6087 25.982C30.0807 26.15 29.5467 26.234 29.0067 26.234C28.2987 26.234 27.6807 26.108 27.1527 25.856C26.6367 25.592 26.2047 25.244 25.8567 24.812C25.5207 24.368 25.2687 23.87 25.1007 23.318C24.9327 22.766 24.8487 22.202 24.8487 21.626C24.8487 21.026 24.9327 20.444 25.1007 19.88C25.2687 19.316 25.5207 18.806 25.8567 18.35C26.2047 17.882 26.6307 17.516 27.1347 17.252C27.6387 16.976 28.2327 16.838 28.9167 16.838ZM28.7727 17.972C28.3647 17.972 28.0047 18.086 27.6927 18.314C27.3807 18.542 27.1287 18.836 26.9367 19.196C26.7447 19.544 26.6127 19.904 26.5407 20.276H30.6447C30.6567 19.772 30.5847 19.352 30.4287 19.016C30.2847 18.668 30.0687 18.41 29.7807 18.242C29.5047 18.062 29.1687 17.972 28.7727 17.972Z" fill="#FFFCFC"/>
<path d="M46.7296 15.938C46.7296 16.382 46.6396 16.814 46.4596 17.234C46.2916 17.642 46.0396 17.996 45.7036 18.296C45.3796 18.584 44.9836 18.77 44.5156 18.854C45.1156 18.938 45.6196 19.148 46.0276 19.484C46.4476 19.808 46.7656 20.216 46.9816 20.708C47.2096 21.2 47.3236 21.74 47.3236 22.328C47.3236 23.108 47.1796 23.744 46.8916 24.236C46.6036 24.716 46.2136 25.088 45.7216 25.352C45.2296 25.604 44.6776 25.778 44.0656 25.874C43.4536 25.958 42.8296 26 42.1936 26H38.6296V14.084C38.6296 14.072 38.6056 13.976 38.5576 13.796C38.5216 13.616 38.4856 13.43 38.4496 13.238C38.4136 13.046 38.3896 12.932 38.3776 12.896H42.7516C43.2676 12.896 43.7596 12.944 44.2276 13.04C44.7076 13.124 45.1336 13.28 45.5056 13.508C45.8896 13.736 46.1896 14.048 46.4056 14.444C46.6216 14.828 46.7296 15.326 46.7296 15.938ZM44.9836 15.974C44.9836 15.494 44.8756 15.122 44.6596 14.858C44.4556 14.594 44.1796 14.408 43.8316 14.3C43.4836 14.192 43.1056 14.138 42.6976 14.138H40.3036V18.314H42.2296C42.7936 18.314 43.2796 18.242 43.6876 18.098C44.0956 17.954 44.4136 17.714 44.6416 17.378C44.8696 17.03 44.9836 16.562 44.9836 15.974ZM45.5416 22.058C45.5416 21.446 45.3796 20.96 45.0556 20.6C44.7436 20.228 44.3356 19.964 43.8316 19.808C43.3396 19.64 42.8296 19.556 42.3016 19.556H40.3036V24.758H42.3016C42.9376 24.758 43.4956 24.686 43.9756 24.542C44.4676 24.386 44.8516 24.11 45.1276 23.714C45.4036 23.318 45.5416 22.766 45.5416 22.058Z" fill="#FFFCFC"/>
<path d="M53.0163 16.838C53.7363 16.838 54.3423 16.988 54.8343 17.288C55.3263 17.576 55.6923 17.984 55.9323 18.512C56.1843 19.028 56.3103 19.634 56.3103 20.33C56.3103 20.498 56.2983 20.672 56.2743 20.852C56.2623 21.02 56.2443 21.2 56.2203 21.392H50.5323C50.5323 22.532 50.7843 23.414 51.2883 24.038C51.7923 24.662 52.4643 24.974 53.3043 24.974C53.6523 24.974 54.0123 24.92 54.3843 24.812C54.7683 24.704 55.1643 24.542 55.5723 24.326L56.1303 25.226C55.7103 25.562 55.2363 25.814 54.7083 25.982C54.1803 26.15 53.6463 26.234 53.1063 26.234C52.3983 26.234 51.7803 26.108 51.2523 25.856C50.7363 25.592 50.3043 25.244 49.9563 24.812C49.6203 24.368 49.3683 23.87 49.2003 23.318C49.0323 22.766 48.9483 22.202 48.9483 21.626C48.9483 21.026 49.0323 20.444 49.2003 19.88C49.3683 19.316 49.6203 18.806 49.9563 18.35C50.3043 17.882 50.7303 17.516 51.2343 17.252C51.7383 16.976 52.3323 16.838 53.0163 16.838ZM52.8723 17.972C52.4643 17.972 52.1043 18.086 51.7923 18.314C51.4803 18.542 51.2283 18.836 51.0363 19.196C50.8443 19.544 50.7123 19.904 50.6403 20.276H54.7443C54.7563 19.772 54.6843 19.352 54.5283 19.016C54.3843 18.668 54.1683 18.41 53.8803 18.242C53.6043 18.062 53.2683 17.972 52.8723 17.972Z" fill="#FFFCFC"/>
<path d="M60.5968 14.498C60.5128 14.906 60.4348 15.332 60.3628 15.776C60.3028 16.208 60.2608 16.634 60.2368 17.054H62.5768L62.2708 18.188H60.2368V23.912C60.2368 24.14 60.2608 24.344 60.3088 24.524C60.3688 24.692 60.4648 24.824 60.5968 24.92C60.7408 25.004 60.9388 25.046 61.1908 25.046C61.3828 25.046 61.5748 25.028 61.7668 24.992C61.9588 24.956 62.1448 24.914 62.3248 24.866L62.5768 25.874C62.2768 25.958 61.9888 26.03 61.7128 26.09C61.4488 26.162 61.1428 26.198 60.7948 26.198C60.0268 26.198 59.4928 25.994 59.1928 25.586C58.8928 25.178 58.7428 24.608 58.7428 23.876V18.188H57.4108V17.288C57.7708 17.276 58.0708 17.18 58.3108 17C58.5508 16.82 58.7488 16.592 58.9048 16.316C59.0608 16.028 59.1868 15.728 59.2828 15.416C59.3788 15.092 59.4508 14.786 59.4988 14.498H60.5968Z" fill="#FFFCFC"/>
<path d="M66.4855 14.498C66.4015 14.906 66.3235 15.332 66.2515 15.776C66.1915 16.208 66.1495 16.634 66.1255 17.054H68.4655L68.1595 18.188H66.1255V23.912C66.1255 24.14 66.1495 24.344 66.1975 24.524C66.2575 24.692 66.3535 24.824 66.4855 24.92C66.6295 25.004 66.8275 25.046 67.0795 25.046C67.2715 25.046 67.4635 25.028 67.6555 24.992C67.8475 24.956 68.0335 24.914 68.2135 24.866L68.4655 25.874C68.1655 25.958 67.8775 26.03 67.6015 26.09C67.3375 26.162 67.0315 26.198 66.6835 26.198C65.9155 26.198 65.3815 25.994 65.0815 25.586C64.7815 25.178 64.6315 24.608 64.6315 23.876V18.188H63.2995V17.288C63.6595 17.276 63.9595 17.18 64.1995 17C64.4395 16.82 64.6375 16.592 64.7935 16.316C64.9495 16.028 65.0755 15.728 65.1715 15.416C65.2675 15.092 65.3395 14.786 65.3875 14.498H66.4855Z" fill="#FFFCFC"/>
<path d="M73.4245 16.838C74.1445 16.838 74.7505 16.988 75.2425 17.288C75.7345 17.576 76.1005 17.984 76.3405 18.512C76.5925 19.028 76.7185 19.634 76.7185 20.33C76.7185 20.498 76.7065 20.672 76.6825 20.852C76.6705 21.02 76.6525 21.2 76.6285 21.392H70.9405C70.9405 22.532 71.1925 23.414 71.6965 24.038C72.2005 24.662 72.8725 24.974 73.7125 24.974C74.0605 24.974 74.4205 24.92 74.7925 24.812C75.1765 24.704 75.5725 24.542 75.9805 24.326L76.5385 25.226C76.1185 25.562 75.6445 25.814 75.1165 25.982C74.5885 26.15 74.0545 26.234 73.5145 26.234C72.8065 26.234 72.1885 26.108 71.6605 25.856C71.1445 25.592 70.7125 25.244 70.3645 24.812C70.0285 24.368 69.7765 23.87 69.6085 23.318C69.4405 22.766 69.3565 22.202 69.3565 21.626C69.3565 21.026 69.4405 20.444 69.6085 19.88C69.7765 19.316 70.0285 18.806 70.3645 18.35C70.7125 17.882 71.1385 17.516 71.6425 17.252C72.1465 16.976 72.7405 16.838 73.4245 16.838ZM73.2805 17.972C72.8725 17.972 72.5125 18.086 72.2005 18.314C71.8885 18.542 71.6365 18.836 71.4445 19.196C71.2525 19.544 71.1205 19.904 71.0485 20.276H75.1525C75.1645 19.772 75.0925 19.352 74.9365 19.016C74.7925 18.668 74.5765 18.41 74.2885 18.242C74.0125 18.062 73.6765 17.972 73.2805 17.972Z" fill="#FFFCFC"/>
<path d="M79.961 16.892C80.177 17.42 80.315 17.978 80.375 18.566C80.687 18.074 81.107 17.672 81.635 17.36C82.163 17.048 82.721 16.892 83.309 16.892L82.949 18.476C82.373 18.476 81.881 18.626 81.473 18.926C81.077 19.226 80.723 19.604 80.411 20.06V26H78.917V19.52C78.917 19.28 78.899 19.01 78.863 18.71C78.827 18.41 78.767 18.116 78.683 17.828C78.599 17.54 78.485 17.294 78.341 17.09L79.961 16.892Z" fill="#FFFCFC"/>
<mask id="path-3-inside-1_4_78" fill="white">
<path d="M39.3204 43.3754C38.9204 43.6754 38.5204 43.9754 38.1204 44.2754C37.7204 44.5754 37.3204 44.8754 36.9204 45.0754C31.2204 48.5754 24.6204 49.3754 18.5204 47.8754C12.5204 46.3754 7.02038 42.5754 3.52038 36.8754C0.0203846 31.1754 -0.779615 24.4754 0.720385 18.4754C2.22038 12.4754 5.92038 6.9754 11.7204 3.4754C15.9204 0.875395 20.9204 -0.324605 25.7204 0.0753953C30.6204 0.375395 35.3204 2.1754 39.3204 5.3754L39.1204 5.6754C35.2204 2.5754 30.5204 0.775395 25.7204 0.475395C20.9204 0.0753953 16.0204 1.1754 11.7204 3.7754C6.12038 7.1754 2.42038 12.5754 0.920385 18.5754C-0.479615 24.5754 0.320385 31.0754 3.72038 36.6754C7.12038 42.3754 12.5204 46.0754 18.5204 47.5754C24.5204 49.0754 31.0204 48.2754 36.6204 44.7754C37.0204 44.4754 37.4204 44.2754 37.8204 43.9754C38.2204 43.6754 38.6204 43.3754 39.0204 43.0754L39.3204 43.3754Z"/>
</mask>
<path d="M39.3204 43.3754L39.9204 44.1754L40.8428 43.4836L40.0275 42.6683L39.3204 43.3754ZM36.9204 45.0754L36.4732 44.181L36.4342 44.2004L36.3971 44.2232L36.9204 45.0754ZM18.5204 47.8754L18.2778 48.8455L18.2816 48.8465L18.5204 47.8754ZM11.7204 3.4754L12.2371 4.33164L12.2467 4.32566L11.7204 3.4754ZM25.7204 0.0753953L25.6373 1.07194L25.6483 1.07285L25.6593 1.07353L25.7204 0.0753953ZM39.3204 5.3754L40.1524 5.9301L40.661 5.16726L39.9451 4.59453L39.3204 5.3754ZM39.1204 5.6754L38.4981 6.45822L39.3493 7.13479L39.9524 6.2301L39.1204 5.6754ZM25.7204 0.475395L25.6373 1.47194L25.6477 1.4728L25.658 1.47345L25.7204 0.475395ZM11.7204 3.7754L11.203 2.91966L11.2014 2.92061L11.7204 3.7754ZM0.920385 18.5754L-0.0497578 18.3329L-0.0516674 18.3405L-0.0534565 18.3482L0.920385 18.5754ZM3.72038 36.6754L4.57923 36.1631L4.57517 36.1564L3.72038 36.6754ZM36.6204 44.7754L37.1504 45.6234L37.1864 45.6009L37.2204 45.5754L36.6204 44.7754ZM39.0204 43.0754L39.7275 42.3683L39.1142 41.755L38.4204 42.2754L39.0204 43.0754ZM38.7204 42.5754C38.5204 42.7254 38.3204 42.8754 38.1204 43.0254C37.9204 43.1754 37.7204 43.3254 37.5204 43.4754L38.7204 45.0754C38.9204 44.9254 39.1204 44.7754 39.3204 44.6254C39.5204 44.4754 39.7204 44.3254 39.9204 44.1754L38.7204 42.5754ZM37.5204 43.4754C37.1021 43.7891 36.777 44.0291 36.4732 44.181L37.3676 45.9698C37.8638 45.7217 38.3386 45.3617 38.7204 45.0754L37.5204 43.4754ZM36.3971 44.2232C30.9393 47.5745 24.6162 48.3446 18.7592 46.9043L18.2816 48.8465C24.6246 50.4062 31.5015 49.5763 37.4436 45.9276L36.3971 44.2232ZM18.7629 46.9053C13.0066 45.4662 7.73023 41.8203 4.37256 36.3521L2.66821 37.3987C6.31054 43.3305 12.0342 47.2846 18.2779 48.8455L18.7629 46.9053ZM4.37256 36.3521C1.02096 30.8938 0.252023 24.4719 1.69053 18.7179L-0.249758 18.2329C-1.81125 24.4788 -0.980194 31.457 2.66821 37.3987L4.37256 36.3521ZM1.69053 18.7179C3.13151 12.954 6.68075 7.68452 12.237 4.33158L11.2037 2.61921C5.16002 6.26627 1.30926 11.9968 -0.249758 18.2329L1.69053 18.7179ZM12.2467 4.32566C16.2669 1.83701 21.0536 0.689965 25.6373 1.07194L25.8034 -0.92115C20.7871 -1.33917 15.5739 -0.0862212 11.194 2.62513L12.2467 4.32566ZM25.6593 1.07353C30.3505 1.36074 34.8543 3.08316 38.6957 6.15626L39.9451 4.59453C35.7865 1.26763 30.8903 -0.609954 25.7815 -0.922736L25.6593 1.07353ZM38.4883 4.82069L38.2883 5.12069L39.9524 6.2301L40.1524 5.9301L38.4883 4.82069ZM39.7426 4.89257C35.6846 1.66699 30.7898 -0.209717 25.7828 -0.522657L25.658 1.47345C30.251 1.76051 34.7561 3.4838 38.4981 6.45822L39.7426 4.89257ZM25.8034 -0.52115C20.7957 -0.938461 15.6852 0.209464 11.203 2.91966L12.2378 4.63113C16.3556 2.14133 21.0451 1.08925 25.6373 1.47194L25.8034 -0.52115ZM11.2014 2.92061C5.36112 6.4665 1.5097 12.095 -0.0497578 18.3329L1.89053 18.8179C3.33107 13.0558 6.87965 7.88429 12.2394 4.63018L11.2014 2.92061ZM-0.0534565 18.3482C-1.50861 24.5845 -0.679645 31.3552 2.8656 37.1944L4.57517 36.1564C1.32041 30.7956 0.549375 24.5663 1.89423 18.8026L-0.0534565 18.3482ZM2.86157 37.1877C6.40744 43.1322 12.0384 46.9857 18.2779 48.5455L18.7629 46.6053C13.0024 45.1651 7.83333 41.6186 4.5792 36.1631L2.86157 37.1877ZM18.2779 48.5455C24.5249 50.1073 31.3062 49.276 37.1504 45.6234L36.0904 43.9274C30.7346 47.2748 24.5159 48.0435 18.7629 46.6053L18.2779 48.5455ZM37.2204 45.5754C37.3813 45.4547 37.5459 45.3512 37.7504 45.2234C37.9459 45.1012 38.1813 44.9547 38.4204 44.7754L37.2204 43.1754C37.0595 43.296 36.8948 43.3996 36.6904 43.5274C36.4948 43.6496 36.2595 43.796 36.0204 43.9754L37.2204 45.5754ZM38.4204 44.7754C38.6204 44.6254 38.8204 44.4754 39.0204 44.3254C39.2204 44.1754 39.4204 44.0254 39.6204 43.8754L38.4204 42.2754C38.2204 42.4254 38.0204 42.5754 37.8204 42.7254C37.6204 42.8754 37.4204 43.0254 37.2204 43.1754L38.4204 44.7754ZM38.3133 43.7825L38.6133 44.0825L40.0275 42.6683L39.7275 42.3683L38.3133 43.7825Z" fill="#FFFCFC" mask="url(#path-3-inside-1_4_78)"/>
</svg>
