<?xml version="1.0" encoding="utf-8"?>
<!-- Generator: Adobe Illustrator 25.1.0, SVG Export Plug-In . SVG Version: 6.00 Build 0)  -->
<svg version="1.1" id="Layer_1" xmlns="http://www.w3.org/2000/svg" xmlns:xlink="http://www.w3.org/1999/xlink" x="0px" y="0px"
	 viewBox="0 0 84 49" style="enable-background:new 0 0 84 49;" xml:space="preserve">
<style type="text/css">
	.st0{fill:#FFFCFC;}
	.st1{fill:#FFFFFF;filter:url(#Adobe_OpacityMaskFilter);}
	.st2{mask:url(#path-3-inside-1_4_75_1_);fill:#FFFCFC;}
</style>
<path class="st0" d="M18.6,36.2V37h-2.9v-0.8H18.6z M16.1,31.3V37h-1v-5.7H16.1z"/>
<path class="st0" d="M20.3,32.8V37h-0.9v-4.2H20.3z M19.3,31.7c0-0.1,0-0.3,0.1-0.4c0.1-0.1,0.2-0.1,0.4-0.1c0.2,0,0.3,0,0.4,0.1
	c0.1,0.1,0.1,0.2,0.1,0.4c0,0.1,0,0.3-0.1,0.4c-0.1,0.1-0.2,0.1-0.4,0.1c-0.2,0-0.3,0-0.4-0.1C19.3,31.9,19.3,31.8,19.3,31.7z"/>
<path class="st0" d="M22.6,37h-0.9v-4.6c0-0.3,0.1-0.6,0.2-0.8c0.1-0.2,0.3-0.4,0.5-0.5c0.2-0.1,0.5-0.2,0.8-0.2c0.1,0,0.2,0,0.3,0
	c0.1,0,0.2,0,0.3,0.1l0,0.7c-0.1,0-0.1,0-0.2,0c-0.1,0-0.1,0-0.2,0c-0.1,0-0.3,0-0.4,0.1c-0.1,0.1-0.2,0.1-0.2,0.2
	c-0.1,0.1-0.1,0.2-0.1,0.4V37z M23.5,32.8v0.7H21v-0.7H23.5z"/>
<path class="st0" d="M25.9,37.1c-0.3,0-0.6-0.1-0.8-0.2c-0.2-0.1-0.5-0.2-0.6-0.4c-0.2-0.2-0.3-0.4-0.4-0.7
	c-0.1-0.2-0.1-0.5-0.1-0.8v-0.2c0-0.3,0-0.6,0.1-0.9c0.1-0.3,0.2-0.5,0.4-0.7c0.2-0.2,0.4-0.3,0.6-0.4c0.2-0.1,0.5-0.2,0.8-0.2
	c0.3,0,0.6,0.1,0.8,0.2c0.2,0.1,0.4,0.2,0.6,0.4c0.2,0.2,0.3,0.4,0.3,0.7c0.1,0.3,0.1,0.5,0.1,0.8v0.4h-3.3v-0.7h2.3v-0.1
	c0-0.2,0-0.3-0.1-0.5c-0.1-0.1-0.2-0.3-0.3-0.4c-0.1-0.1-0.3-0.1-0.5-0.1c-0.2,0-0.3,0-0.4,0.1c-0.1,0.1-0.2,0.2-0.3,0.3
	C25,34,25,34.1,24.9,34.3c0,0.2-0.1,0.4-0.1,0.6V35c0,0.2,0,0.4,0.1,0.5c0.1,0.2,0.1,0.3,0.2,0.4c0.1,0.1,0.2,0.2,0.4,0.3
	c0.1,0.1,0.3,0.1,0.5,0.1c0.2,0,0.4,0,0.6-0.1c0.2-0.1,0.3-0.2,0.5-0.4l0.5,0.5c-0.1,0.1-0.2,0.3-0.4,0.4c-0.1,0.1-0.3,0.2-0.5,0.3
	C26.5,37,26.2,37.1,25.9,37.1z"/>
<path class="st0" d="M30.3,34.2v0.8h-2.1v-0.8H30.3z"/>
<path class="st0" d="M34.5,35.1h1c0,0.4-0.1,0.7-0.3,1c-0.2,0.3-0.4,0.5-0.7,0.7c-0.3,0.2-0.7,0.2-1.2,0.2c-0.4,0-0.7-0.1-0.9-0.2
	c-0.3-0.1-0.5-0.3-0.7-0.5c-0.2-0.2-0.4-0.5-0.5-0.8C31,35.2,31,34.8,31,34.4v-0.5c0-0.4,0.1-0.8,0.2-1.1c0.1-0.3,0.3-0.6,0.5-0.8
	c0.2-0.2,0.4-0.4,0.7-0.5c0.3-0.1,0.6-0.2,1-0.2c0.5,0,0.8,0.1,1.1,0.2c0.3,0.2,0.6,0.4,0.7,0.7c0.2,0.3,0.3,0.6,0.3,1h-1
	c0-0.2-0.1-0.5-0.2-0.6c-0.1-0.2-0.2-0.3-0.4-0.4c-0.2-0.1-0.4-0.1-0.7-0.1c-0.2,0-0.4,0-0.6,0.1c-0.2,0.1-0.3,0.2-0.4,0.4
	c-0.1,0.2-0.2,0.4-0.3,0.6C32,33.3,32,33.6,32,33.9v0.5c0,0.3,0,0.5,0.1,0.8c0.1,0.2,0.1,0.4,0.2,0.6c0.1,0.2,0.2,0.3,0.4,0.4
	c0.2,0.1,0.4,0.1,0.6,0.1c0.3,0,0.5,0,0.7-0.1c0.2-0.1,0.3-0.2,0.4-0.4C34.4,35.6,34.5,35.4,34.5,35.1z"/>
<path class="st0" d="M36.1,34.9L36.1,34.9c0-0.4,0-0.7,0.1-0.9c0.1-0.3,0.2-0.5,0.4-0.7c0.2-0.2,0.4-0.3,0.6-0.5
	c0.2-0.1,0.5-0.2,0.8-0.2c0.3,0,0.6,0.1,0.8,0.2c0.2,0.1,0.5,0.3,0.6,0.5c0.2,0.2,0.3,0.4,0.4,0.7c0.1,0.3,0.1,0.5,0.1,0.8v0.1
	c0,0.3,0,0.6-0.1,0.8c-0.1,0.3-0.2,0.5-0.4,0.7c-0.2,0.2-0.4,0.3-0.6,0.5c-0.2,0.1-0.5,0.2-0.8,0.2c-0.3,0-0.6-0.1-0.8-0.2
	c-0.2-0.1-0.4-0.3-0.6-0.5c-0.2-0.2-0.3-0.4-0.4-0.7C36.2,35.5,36.1,35.2,36.1,34.9z M37.1,34.8L37.1,34.8c0,0.3,0,0.5,0.1,0.6
	c0,0.2,0.1,0.3,0.2,0.4c0.1,0.1,0.2,0.2,0.3,0.3c0.1,0.1,0.3,0.1,0.5,0.1c0.2,0,0.3,0,0.5-0.1c0.1-0.1,0.2-0.2,0.3-0.3
	c0.1-0.1,0.1-0.3,0.2-0.4c0-0.2,0.1-0.3,0.1-0.5v-0.1c0-0.2,0-0.4-0.1-0.5c0-0.2-0.1-0.3-0.2-0.4c-0.1-0.1-0.2-0.2-0.3-0.3
	c-0.1-0.1-0.3-0.1-0.5-0.1c-0.2,0-0.3,0-0.5,0.1c-0.1,0.1-0.2,0.2-0.3,0.3c-0.1,0.1-0.1,0.3-0.2,0.4C37.1,34.5,37.1,34.7,37.1,34.8z
	"/>
<path class="st0" d="M43.2,36.2v-2c0-0.2,0-0.3-0.1-0.4c-0.1-0.1-0.1-0.2-0.2-0.3c-0.1-0.1-0.2-0.1-0.4-0.1c-0.2,0-0.3,0-0.4,0.1
	c-0.1,0.1-0.2,0.1-0.3,0.2c-0.1,0.1-0.1,0.2-0.1,0.3h-0.9c0-0.2,0-0.3,0.1-0.5c0.1-0.2,0.2-0.3,0.4-0.4c0.2-0.1,0.3-0.2,0.6-0.3
	c0.2-0.1,0.5-0.1,0.7-0.1c0.3,0,0.6,0.1,0.8,0.2c0.2,0.1,0.4,0.3,0.6,0.5c0.1,0.2,0.2,0.5,0.2,0.8V36c0,0.2,0,0.4,0,0.5
	c0,0.2,0.1,0.3,0.1,0.4V37h-1c0-0.1-0.1-0.2-0.1-0.4C43.2,36.5,43.2,36.3,43.2,36.2z M43.4,34.4l0,0.6h-0.7c-0.2,0-0.3,0-0.5,0.1
	c-0.1,0-0.2,0.1-0.3,0.1c-0.1,0.1-0.2,0.1-0.2,0.2c0,0.1-0.1,0.2-0.1,0.3c0,0.1,0,0.2,0.1,0.3c0.1,0.1,0.1,0.2,0.2,0.2
	c0.1,0.1,0.2,0.1,0.4,0.1c0.2,0,0.4,0,0.5-0.1c0.1-0.1,0.3-0.2,0.3-0.3c0.1-0.1,0.1-0.2,0.1-0.3l0.3,0.4c0,0.1-0.1,0.2-0.2,0.3
	c-0.1,0.1-0.2,0.2-0.3,0.4c-0.1,0.1-0.3,0.2-0.4,0.3c-0.2,0.1-0.4,0.1-0.6,0.1c-0.3,0-0.5-0.1-0.7-0.2c-0.2-0.1-0.4-0.3-0.5-0.4
	c-0.1-0.2-0.2-0.4-0.2-0.6c0-0.2,0-0.4,0.1-0.6c0.1-0.2,0.2-0.3,0.4-0.4c0.2-0.1,0.4-0.2,0.6-0.3c0.2-0.1,0.5-0.1,0.8-0.1H43.4z"/>
<path class="st0" d="M46.9,36.3c0.2,0,0.3,0,0.4-0.1c0.1-0.1,0.2-0.1,0.3-0.3c0.1-0.1,0.1-0.2,0.1-0.4h0.9c0,0.3-0.1,0.5-0.2,0.7
	c-0.2,0.2-0.4,0.4-0.6,0.5c-0.3,0.1-0.5,0.2-0.9,0.2c-0.3,0-0.6-0.1-0.8-0.2c-0.2-0.1-0.4-0.3-0.6-0.5c-0.2-0.2-0.3-0.4-0.4-0.7
	C45,35.5,45,35.2,45,35v-0.1c0-0.3,0-0.6,0.1-0.8c0.1-0.3,0.2-0.5,0.4-0.7c0.2-0.2,0.4-0.3,0.6-0.5c0.2-0.1,0.5-0.2,0.8-0.2
	c0.3,0,0.6,0.1,0.9,0.2c0.3,0.1,0.5,0.3,0.6,0.6c0.1,0.2,0.2,0.5,0.2,0.8h-0.9c0-0.2,0-0.3-0.1-0.4c-0.1-0.1-0.2-0.2-0.3-0.3
	c-0.1-0.1-0.3-0.1-0.4-0.1c-0.2,0-0.3,0-0.5,0.1c-0.1,0.1-0.2,0.2-0.3,0.3C46,34,46,34.2,46,34.3c0,0.2,0,0.3,0,0.5V35
	c0,0.2,0,0.3,0,0.5c0,0.2,0.1,0.3,0.1,0.4c0.1,0.1,0.2,0.2,0.3,0.3C46.5,36.3,46.7,36.3,46.9,36.3z"/>
<path class="st0" d="M50.3,31v6h-0.9v-6H50.3z M50.1,34.7l-0.3,0c0-0.3,0-0.6,0.1-0.8c0.1-0.2,0.2-0.5,0.3-0.6
	c0.1-0.2,0.3-0.3,0.5-0.4c0.2-0.1,0.4-0.2,0.7-0.2c0.2,0,0.4,0,0.6,0.1c0.2,0.1,0.3,0.1,0.4,0.3c0.1,0.1,0.2,0.3,0.3,0.5
	c0.1,0.2,0.1,0.4,0.1,0.7V37h-0.9v-2.7c0-0.2,0-0.4-0.1-0.5c-0.1-0.1-0.1-0.2-0.3-0.3c-0.1-0.1-0.2-0.1-0.4-0.1
	c-0.2,0-0.3,0-0.4,0.1c-0.1,0.1-0.2,0.2-0.3,0.3c-0.1,0.1-0.2,0.3-0.2,0.4C50.1,34.4,50.1,34.6,50.1,34.7z"/>
<path class="st0" d="M54.8,32.8V37h-0.9v-4.2H54.8z M53.8,31.7c0-0.1,0-0.3,0.1-0.4c0.1-0.1,0.2-0.1,0.4-0.1c0.2,0,0.3,0,0.4,0.1
	c0.1,0.1,0.1,0.2,0.1,0.4c0,0.1,0,0.3-0.1,0.4c-0.1,0.1-0.2,0.1-0.4,0.1c-0.2,0-0.3,0-0.4-0.1C53.8,31.9,53.8,31.8,53.8,31.7z"/>
<path class="st0" d="M56.8,33.7V37h-0.9v-4.2h0.9L56.8,33.7z M56.6,34.7l-0.3,0c0-0.3,0-0.6,0.1-0.8c0.1-0.2,0.2-0.5,0.3-0.6
	c0.1-0.2,0.3-0.3,0.5-0.4c0.2-0.1,0.4-0.1,0.7-0.1c0.2,0,0.4,0,0.6,0.1c0.2,0.1,0.3,0.1,0.4,0.3c0.1,0.1,0.2,0.3,0.3,0.5
	c0.1,0.2,0.1,0.4,0.1,0.7V37h-0.9v-2.7c0-0.2,0-0.4-0.1-0.5c-0.1-0.1-0.1-0.2-0.3-0.3c-0.1-0.1-0.2-0.1-0.4-0.1
	c-0.2,0-0.3,0-0.4,0.1s-0.2,0.2-0.3,0.3c-0.1,0.1-0.2,0.3-0.2,0.4C56.6,34.4,56.6,34.6,56.6,34.7z"/>
<path class="st0" d="M63,32.8h0.9v4.1c0,0.4-0.1,0.7-0.2,1c-0.2,0.3-0.4,0.5-0.7,0.6c-0.3,0.1-0.6,0.2-1,0.2c-0.2,0-0.3,0-0.5-0.1
	c-0.2,0-0.4-0.1-0.6-0.2c-0.2-0.1-0.3-0.2-0.5-0.4l0.4-0.6c0.2,0.2,0.3,0.3,0.5,0.4c0.2,0.1,0.4,0.1,0.6,0.1c0.2,0,0.4,0,0.6-0.1
	c0.2-0.1,0.3-0.2,0.4-0.3c0.1-0.2,0.1-0.3,0.1-0.6v-3.2L63,32.8z M60.1,34.9L60.1,34.9c0-0.4,0-0.7,0.1-1c0.1-0.3,0.2-0.5,0.3-0.7
	c0.1-0.2,0.3-0.3,0.5-0.4c0.2-0.1,0.4-0.2,0.7-0.2c0.3,0,0.5,0,0.7,0.1c0.2,0.1,0.4,0.2,0.5,0.4c0.1,0.2,0.2,0.4,0.3,0.7
	c0.1,0.3,0.1,0.5,0.2,0.8V35c0,0.3-0.1,0.6-0.2,0.8c-0.1,0.2-0.2,0.5-0.3,0.6c-0.1,0.2-0.3,0.3-0.5,0.4c-0.2,0.1-0.4,0.1-0.7,0.1
	c-0.3,0-0.5-0.1-0.7-0.2c-0.2-0.1-0.4-0.3-0.5-0.4c-0.1-0.2-0.3-0.4-0.3-0.7C60.2,35.5,60.1,35.2,60.1,34.9z M61.1,34.9L61.1,34.9
	c0,0.3,0,0.5,0.1,0.6c0,0.2,0.1,0.3,0.2,0.4c0.1,0.1,0.2,0.2,0.3,0.3c0.1,0.1,0.3,0.1,0.4,0.1c0.2,0,0.4,0,0.5-0.1
	c0.1-0.1,0.3-0.2,0.3-0.4c0.1-0.2,0.1-0.3,0.2-0.5v-0.7c0-0.2,0-0.3-0.1-0.4c0-0.1-0.1-0.2-0.2-0.3c-0.1-0.1-0.2-0.2-0.3-0.2
	c-0.1-0.1-0.3-0.1-0.4-0.1c-0.2,0-0.3,0-0.4,0.1s-0.2,0.2-0.3,0.3c-0.1,0.1-0.1,0.3-0.2,0.4C61.1,34.5,61.1,34.7,61.1,34.9z"/>
<path class="st0" d="M67.9,31.3V37h-1v-5.7H67.9z"/>
<path class="st0" d="M72.5,35.1h1c0,0.4-0.1,0.7-0.3,1c-0.2,0.3-0.4,0.5-0.7,0.7c-0.3,0.2-0.7,0.2-1.2,0.2c-0.4,0-0.7-0.1-0.9-0.2
	c-0.3-0.1-0.5-0.3-0.7-0.5c-0.2-0.2-0.4-0.5-0.5-0.8C69,35.2,69,34.8,69,34.4v-0.5c0-0.4,0.1-0.8,0.2-1.1c0.1-0.3,0.3-0.6,0.5-0.8
	c0.2-0.2,0.4-0.4,0.7-0.5c0.3-0.1,0.6-0.2,1-0.2c0.5,0,0.8,0.1,1.1,0.2c0.3,0.2,0.6,0.4,0.7,0.7c0.2,0.3,0.3,0.6,0.3,1h-1
	c0-0.2-0.1-0.5-0.2-0.6c-0.1-0.2-0.2-0.3-0.4-0.4c-0.2-0.1-0.4-0.1-0.7-0.1c-0.2,0-0.4,0-0.6,0.1c-0.2,0.1-0.3,0.2-0.4,0.4
	c-0.1,0.2-0.2,0.4-0.3,0.6C70,33.3,70,33.6,70,33.9v0.5c0,0.3,0,0.5,0.1,0.8c0.1,0.2,0.1,0.4,0.2,0.6c0.1,0.2,0.2,0.3,0.4,0.4
	c0.2,0.1,0.4,0.1,0.6,0.1c0.3,0,0.5,0,0.7-0.1c0.2-0.1,0.3-0.2,0.4-0.4C72.4,35.6,72.5,35.4,72.5,35.1z"/>
<path class="st0" d="M75.4,31.3V37h-1v-5.7H75.4z M77.7,33.8v0.8h-2.6v-0.8H77.7z M78,31.3v0.8h-2.9v-0.8H78z"/>
<path class="st0" d="M22.6,15.9c0,0.4-0.1,0.9-0.3,1.3c-0.2,0.4-0.4,0.8-0.8,1.1c-0.3,0.3-0.7,0.5-1.2,0.6c0.6,0.1,1.1,0.3,1.5,0.6
	c0.4,0.3,0.7,0.7,1,1.2c0.2,0.5,0.3,1,0.3,1.6c0,0.8-0.1,1.4-0.4,1.9c-0.3,0.5-0.7,0.9-1.2,1.1c-0.5,0.3-1,0.4-1.7,0.5
	C19.4,26,18.7,26,18.1,26h-3.6V14.1c0,0,0-0.1-0.1-0.3c0-0.2-0.1-0.4-0.1-0.6c0-0.2-0.1-0.3-0.1-0.3h4.4c0.5,0,1,0,1.5,0.1
	c0.5,0.1,0.9,0.2,1.3,0.5c0.4,0.2,0.7,0.5,0.9,0.9C22.5,14.8,22.6,15.3,22.6,15.9z M20.9,16c0-0.5-0.1-0.9-0.3-1.1
	c-0.2-0.3-0.5-0.4-0.8-0.6s-0.7-0.2-1.1-0.2h-2.4v4.2h1.9c0.6,0,1.1-0.1,1.5-0.2c0.4-0.1,0.7-0.4,1-0.7C20.8,17,20.9,16.6,20.9,16z
	 M21.4,22.1c0-0.6-0.2-1.1-0.5-1.5c-0.3-0.4-0.7-0.6-1.2-0.8c-0.5-0.2-1-0.3-1.5-0.3h-2v5.2h2c0.6,0,1.2-0.1,1.7-0.2
	c0.5-0.2,0.9-0.4,1.2-0.8C21.3,23.3,21.4,22.8,21.4,22.1z"/>
<path class="st0" d="M28.9,16.8c0.7,0,1.3,0.2,1.8,0.5c0.5,0.3,0.9,0.7,1.1,1.2c0.3,0.5,0.4,1.1,0.4,1.8c0,0.2,0,0.3,0,0.5
	c0,0.2,0,0.3-0.1,0.5h-5.7c0,1.1,0.3,2,0.8,2.6s1.2,0.9,2,0.9c0.3,0,0.7-0.1,1.1-0.2c0.4-0.1,0.8-0.3,1.2-0.5l0.6,0.9
	c-0.4,0.3-0.9,0.6-1.4,0.8c-0.5,0.2-1.1,0.3-1.6,0.3c-0.7,0-1.3-0.1-1.9-0.4c-0.5-0.3-0.9-0.6-1.3-1c-0.3-0.4-0.6-0.9-0.8-1.5
	c-0.2-0.6-0.3-1.1-0.3-1.7c0-0.6,0.1-1.2,0.3-1.7c0.2-0.6,0.4-1.1,0.8-1.5c0.3-0.5,0.8-0.8,1.3-1.1C27.6,17,28.2,16.8,28.9,16.8z
	 M28.8,18c-0.4,0-0.8,0.1-1.1,0.3c-0.3,0.2-0.6,0.5-0.8,0.9c-0.2,0.3-0.3,0.7-0.4,1.1h4.1c0-0.5-0.1-0.9-0.2-1.3
	c-0.1-0.3-0.4-0.6-0.6-0.8C29.5,18.1,29.2,18,28.8,18z"/>
<path class="st0" d="M46.7,15.9c0,0.4-0.1,0.9-0.3,1.3c-0.2,0.4-0.4,0.8-0.8,1.1c-0.3,0.3-0.7,0.5-1.2,0.6c0.6,0.1,1.1,0.3,1.5,0.6
	c0.4,0.3,0.7,0.7,1,1.2c0.2,0.5,0.3,1,0.3,1.6c0,0.8-0.1,1.4-0.4,1.9c-0.3,0.5-0.7,0.9-1.2,1.1c-0.5,0.3-1,0.4-1.7,0.5
	C43.5,26,42.8,26,42.2,26h-3.6V14.1c0,0,0-0.1-0.1-0.3c0-0.2-0.1-0.4-0.1-0.6s-0.1-0.3-0.1-0.3h4.4c0.5,0,1,0,1.5,0.1
	c0.5,0.1,0.9,0.2,1.3,0.5c0.4,0.2,0.7,0.5,0.9,0.9C46.6,14.8,46.7,15.3,46.7,15.9z M45,16c0-0.5-0.1-0.9-0.3-1.1
	c-0.2-0.3-0.5-0.4-0.8-0.6s-0.7-0.2-1.1-0.2h-2.4v4.2h1.9c0.6,0,1-0.1,1.5-0.2c0.4-0.1,0.7-0.4,1-0.7C44.9,17,45,16.6,45,16z
	 M45.5,22.1c0-0.6-0.2-1.1-0.5-1.5c-0.3-0.4-0.7-0.6-1.2-0.8c-0.5-0.2-1-0.3-1.5-0.3h-2v5.2h2c0.6,0,1.2-0.1,1.7-0.2
	c0.5-0.2,0.9-0.4,1.2-0.8C45.4,23.3,45.5,22.8,45.5,22.1z"/>
<path class="st0" d="M53,16.8c0.7,0,1.3,0.2,1.8,0.5c0.5,0.3,0.9,0.7,1.1,1.2c0.3,0.5,0.4,1.1,0.4,1.8c0,0.2,0,0.3,0,0.5
	c0,0.2,0,0.3-0.1,0.5h-5.7c0,1.1,0.3,2,0.8,2.6c0.5,0.6,1.2,0.9,2,0.9c0.3,0,0.7-0.1,1.1-0.2c0.4-0.1,0.8-0.3,1.2-0.5l0.6,0.9
	c-0.4,0.3-0.9,0.6-1.4,0.8c-0.5,0.2-1.1,0.3-1.6,0.3c-0.7,0-1.3-0.1-1.9-0.4c-0.5-0.3-0.9-0.6-1.3-1c-0.3-0.4-0.6-0.9-0.8-1.5
	c-0.2-0.6-0.3-1.1-0.3-1.7c0-0.6,0.1-1.2,0.3-1.7c0.2-0.6,0.4-1.1,0.8-1.5c0.3-0.5,0.8-0.8,1.3-1.1C51.7,17,52.3,16.8,53,16.8z
	 M52.9,18c-0.4,0-0.8,0.1-1.1,0.3c-0.3,0.2-0.6,0.5-0.8,0.9c-0.2,0.3-0.3,0.7-0.4,1.1h4.1c0-0.5-0.1-0.9-0.2-1.3
	c-0.1-0.3-0.4-0.6-0.6-0.8C53.6,18.1,53.3,18,52.9,18z"/>
<path class="st0" d="M60.6,14.5c-0.1,0.4-0.2,0.8-0.2,1.3c-0.1,0.4-0.1,0.9-0.1,1.3h2.3l-0.3,1.1h-2v5.7c0,0.2,0,0.4,0.1,0.6
	c0.1,0.2,0.2,0.3,0.3,0.4c0.1,0.1,0.3,0.1,0.6,0.1c0.2,0,0.4,0,0.6-0.1c0.2,0,0.4-0.1,0.6-0.1l0.3,1C62.3,26,62,26,61.7,26.1
	c-0.3,0.1-0.6,0.1-0.9,0.1c-0.8,0-1.3-0.2-1.6-0.6c-0.3-0.4-0.4-1-0.4-1.7v-5.7h-1.3v-0.9c0.4,0,0.7-0.1,0.9-0.3
	c0.2-0.2,0.4-0.4,0.6-0.7c0.2-0.3,0.3-0.6,0.4-0.9c0.1-0.3,0.2-0.6,0.2-0.9H60.6z"/>
<path class="st0" d="M66.5,14.5c-0.1,0.4-0.2,0.8-0.2,1.3c-0.1,0.4-0.1,0.9-0.1,1.3h2.3l-0.3,1.1h-2v5.7c0,0.2,0,0.4,0.1,0.6
	c0.1,0.2,0.2,0.3,0.3,0.4c0.1,0.1,0.3,0.1,0.6,0.1c0.2,0,0.4,0,0.6-0.1c0.2,0,0.4-0.1,0.6-0.1l0.3,1c-0.3,0.1-0.6,0.2-0.9,0.2
	c-0.3,0.1-0.6,0.1-0.9,0.1c-0.8,0-1.3-0.2-1.6-0.6c-0.3-0.4-0.4-1-0.4-1.7v-5.7h-1.3v-0.9c0.4,0,0.7-0.1,0.9-0.3
	c0.2-0.2,0.4-0.4,0.6-0.7c0.2-0.3,0.3-0.6,0.4-0.9c0.1-0.3,0.2-0.6,0.2-0.9H66.5z"/>
<path class="st0" d="M73.4,16.8c0.7,0,1.3,0.2,1.8,0.5c0.5,0.3,0.9,0.7,1.1,1.2c0.3,0.5,0.4,1.1,0.4,1.8c0,0.2,0,0.3,0,0.5
	c0,0.2,0,0.3-0.1,0.5h-5.7c0,1.1,0.3,2,0.8,2.6c0.5,0.6,1.2,0.9,2,0.9c0.3,0,0.7-0.1,1.1-0.2c0.4-0.1,0.8-0.3,1.2-0.5l0.6,0.9
	c-0.4,0.3-0.9,0.6-1.4,0.8c-0.5,0.2-1.1,0.3-1.6,0.3c-0.7,0-1.3-0.1-1.9-0.4c-0.5-0.3-0.9-0.6-1.3-1c-0.3-0.4-0.6-0.9-0.8-1.5
	s-0.3-1.1-0.3-1.7c0-0.6,0.1-1.2,0.3-1.7c0.2-0.6,0.4-1.1,0.8-1.5c0.3-0.5,0.8-0.8,1.3-1.1C72.1,17,72.7,16.8,73.4,16.8z M73.3,18
	c-0.4,0-0.8,0.1-1.1,0.3c-0.3,0.2-0.6,0.5-0.8,0.9c-0.2,0.3-0.3,0.7-0.4,1.1h4.1c0-0.5-0.1-0.9-0.2-1.3c-0.1-0.3-0.4-0.6-0.6-0.8
	C74,18.1,73.7,18,73.3,18z"/>
<path class="st0" d="M80,16.9c0.2,0.5,0.4,1.1,0.4,1.7c0.3-0.5,0.7-0.9,1.3-1.2s1.1-0.5,1.7-0.5l-0.4,1.6c-0.6,0-1.1,0.1-1.5,0.5
	c-0.4,0.3-0.8,0.7-1.1,1.1V26h-1.5v-6.5c0-0.2,0-0.5-0.1-0.8c0-0.3-0.1-0.6-0.2-0.9c-0.1-0.3-0.2-0.5-0.3-0.7L80,16.9z"/>
<defs>
	<filter id="Adobe_OpacityMaskFilter" filterUnits="userSpaceOnUse" x="-1" y="-1" width="41.8" height="50.6">
		<feColorMatrix  type="matrix" values="1 0 0 0 0  0 1 0 0 0  0 0 1 0 0  0 0 0 1 0"/>
	</filter>
</defs>
<mask maskUnits="userSpaceOnUse" x="-1" y="-1" width="41.8" height="50.6" id="path-3-inside-1_4_75_1_">
	<path class="st1" d="M39.3,43.4c-0.4,0.3-0.8,0.6-1.2,0.9c-0.4,0.3-0.8,0.6-1.2,0.8c-5.7,3.5-12.3,4.3-18.4,2.8
		c-6-1.5-11.5-5.3-15-11C0,31.2-0.8,24.5,0.7,18.5c1.5-6,5.2-11.5,11-15c4.2-2.6,9.2-3.8,14-3.4c4.9,0.3,9.6,2.1,13.6,5.3l-0.2,0.3
		c-3.9-3.1-8.6-4.9-13.4-5.2c-4.8-0.4-9.7,0.7-14,3.3C6.1,7.2,2.4,12.6,0.9,18.6c-1.4,6-0.6,12.5,2.8,18.1
		c3.4,5.7,8.8,9.4,14.8,10.9s12.5,0.7,18.1-2.8c0.4-0.3,0.8-0.5,1.2-0.8s0.8-0.6,1.2-0.9L39.3,43.4z"/>
</mask>
<path class="st2" d="M39.3,43.4l0.6,0.8l0.9-0.7L40,42.7L39.3,43.4z M36.9,45.1l-0.4-0.9l0,0l0,0L36.9,45.1z M18.5,47.9l-0.2,1l0,0
	L18.5,47.9z M11.7,3.5l0.5,0.9l0,0L11.7,3.5z M25.7,0.1l-0.1,1l0,0l0,0L25.7,0.1z M39.3,5.4l0.8,0.6l0.5-0.8l-0.7-0.6L39.3,5.4z
	 M39.1,5.7l-0.6,0.8l0.9,0.7L40,6.2L39.1,5.7z M25.7,0.5l-0.1,1l0,0l0,0L25.7,0.5z M11.7,3.8l-0.5-0.9l0,0L11.7,3.8z M0.9,18.6
	l-1-0.2l0,0l0,0L0.9,18.6z M3.7,36.7l0.9-0.5l0,0L3.7,36.7z M36.6,44.8l0.5,0.8l0,0l0,0L36.6,44.8z M39,43.1l0.7-0.7l-0.6-0.6
	l-0.7,0.5L39,43.1z M38.7,42.6c-0.2,0.1-0.4,0.3-0.6,0.4c-0.2,0.2-0.4,0.3-0.6,0.5l1.2,1.6c0.2-0.2,0.4-0.3,0.6-0.5
	c0.2-0.2,0.4-0.3,0.6-0.5L38.7,42.6z M37.5,43.5c-0.4,0.3-0.7,0.6-1,0.7l0.9,1.8c0.5-0.2,1-0.6,1.4-0.9L37.5,43.5z M36.4,44.2
	c-5.5,3.4-11.8,4.1-17.6,2.7l-0.5,1.9c6.3,1.6,13.2,0.7,19.2-2.9L36.4,44.2z M18.8,46.9c-5.8-1.4-11-5.1-14.4-10.6l-1.7,1
	c3.6,5.9,9.4,9.9,15.6,11.4L18.8,46.9z M4.4,36.4C1,30.9,0.3,24.5,1.7,18.7l-1.9-0.5C-1.8,24.5-1,31.5,2.7,37.4L4.4,36.4z M1.7,18.7
	c1.4-5.8,5-11,10.5-14.4l-1-1.7C5.2,6.3,1.3,12-0.2,18.2L1.7,18.7z M12.2,4.3c4-2.5,8.8-3.6,13.4-3.3l0.2-2
	c-5-0.4-10.2,0.8-14.6,3.5L12.2,4.3z M25.7,1.1c4.7,0.3,9.2,2,13,5.1l1.2-1.6c-4.2-3.3-9.1-5.2-14.2-5.5L25.7,1.1z M38.5,4.8
	l-0.2,0.3L40,6.2l0.2-0.3L38.5,4.8z M39.7,4.9c-4.1-3.2-9-5.1-14-5.4l-0.1,2c4.6,0.3,9.1,2,12.8,5L39.7,4.9z M25.8-0.5
	c-5-0.4-10.1,0.7-14.6,3.4l1,1.7c4.1-2.5,8.8-3.5,13.4-3.2L25.8-0.5z M11.2,2.9C5.4,6.5,1.5,12.1,0,18.3l1.9,0.5
	c1.4-5.8,5-10.9,10.3-14.2L11.2,2.9z M-0.1,18.3c-1.5,6.2-0.6,13,2.9,18.8l1.7-1c-3.3-5.4-4-11.6-2.7-17.4L-0.1,18.3z M2.9,37.2
	C6.4,43.1,12,47,18.3,48.5l0.5-1.9c-5.8-1.4-10.9-5-14.2-10.4L2.9,37.2z M18.3,48.5c6.2,1.6,13,0.7,18.9-2.9l-1.1-1.7
	c-5.4,3.3-11.6,4.1-17.3,2.7L18.3,48.5z M37.2,45.6c0.2-0.1,0.3-0.2,0.5-0.4c0.2-0.1,0.4-0.3,0.7-0.4l-1.2-1.6
	c-0.2,0.1-0.3,0.2-0.5,0.4c-0.2,0.1-0.4,0.3-0.7,0.4L37.2,45.6z M38.4,44.8c0.2-0.1,0.4-0.3,0.6-0.4c0.2-0.2,0.4-0.3,0.6-0.5
	l-1.2-1.6c-0.2,0.2-0.4,0.3-0.6,0.5c-0.2,0.2-0.4,0.3-0.6,0.5L38.4,44.8z M38.3,43.8l0.3,0.3l1.4-1.4l-0.3-0.3L38.3,43.8z"/>
</svg>
