<svg width="96" height="61" viewBox="0 0 96 61" fill="none" xmlns="http://www.w3.org/2000/svg">
<path d="M22.7801 45.248V45.5867H19.2391V45.248H22.7801ZM19.4042 38.9232V45.5867H19.0281V38.9232H19.4042Z" fill="#FFFCFC"/>
<path d="M24.2158 40.6348V45.5867H23.8489V40.6348H24.2158ZM23.7342 39.1337C23.7342 39.0513 23.7617 38.9811 23.8167 38.9232C23.8748 38.8622 23.9482 38.8316 24.0369 38.8316C24.1225 38.8316 24.1944 38.8622 24.2525 38.9232C24.3106 38.9811 24.3396 39.0513 24.3396 39.1337C24.3396 39.2161 24.3106 39.2863 24.2525 39.3442C24.1944 39.3991 24.1225 39.4266 24.0369 39.4266C23.9482 39.4266 23.8748 39.3991 23.8167 39.3442C23.7617 39.2863 23.7342 39.2161 23.7342 39.1337Z" fill="#FFFCFC"/>
<path d="M26.5459 45.5867H26.1835V39.9666C26.1835 39.6402 26.2371 39.3656 26.3441 39.1429C26.4542 38.9201 26.6101 38.7508 26.8119 38.6349C27.0168 38.5189 27.2614 38.4609 27.5458 38.4609C27.6406 38.4609 27.7385 38.467 27.8394 38.4792C27.9403 38.4884 28.0381 38.5082 28.1329 38.5387L28.0917 38.8637C28.0122 38.8423 27.9327 38.8271 27.8531 38.8179C27.7767 38.8057 27.6804 38.7996 27.5642 38.7996C27.3532 38.7996 27.1712 38.8454 27.0183 38.9369C26.8685 39.0284 26.7523 39.1612 26.6697 39.3351C26.5872 39.5059 26.5459 39.7165 26.5459 39.9666V45.5867ZM27.8073 40.6348V40.9643H25.335V40.6348H27.8073Z" fill="#FFFCFC"/>
<path d="M30.5456 45.6782C30.2337 45.6782 29.9447 45.6187 29.6787 45.4997C29.4127 45.3777 29.1803 45.2083 28.9815 44.9917C28.7827 44.772 28.6268 44.5127 28.5136 44.2137C28.4036 43.9147 28.3485 43.5867 28.3485 43.2297V43.0284C28.3485 42.6592 28.4036 42.3236 28.5136 42.0215C28.6268 41.7164 28.7797 41.454 28.9723 41.2344C29.165 41.0116 29.3867 40.8408 29.6374 40.7218C29.8912 40.6028 30.1618 40.5433 30.4493 40.5433C30.7398 40.5433 31.0028 40.5967 31.2382 40.7035C31.4737 40.8103 31.6755 40.9598 31.8437 41.152C32.0119 41.3442 32.1403 41.573 32.229 41.8385C32.3177 42.1039 32.362 42.3968 32.362 42.7172V43.0238H28.5779V42.6897H31.9996V42.6302C31.9966 42.319 31.9324 42.0307 31.807 41.7652C31.6847 41.4998 31.5088 41.2862 31.2795 41.1245C31.0502 40.9598 30.7734 40.8774 30.4493 40.8774C30.1894 40.8774 29.9524 40.9323 29.7383 41.0421C29.5273 41.152 29.3454 41.3045 29.1925 41.4998C29.0396 41.692 28.9219 41.9193 28.8393 42.1817C28.7567 42.441 28.7155 42.7233 28.7155 43.0284V43.2297C28.7155 43.5226 28.7613 43.7972 28.8531 44.0535C28.9448 44.3098 29.0732 44.5356 29.2384 44.7309C29.4035 44.9231 29.5977 45.0741 29.8209 45.1839C30.0441 45.2938 30.2887 45.3487 30.5548 45.3487C30.8422 45.3487 31.1052 45.2984 31.3437 45.1977C31.5822 45.097 31.7993 44.92 31.995 44.6668L32.2336 44.8453C32.1235 45.0039 31.9905 45.1458 31.8345 45.2709C31.6786 45.396 31.4936 45.4951 31.2795 45.5684C31.0685 45.6416 30.8239 45.6782 30.5456 45.6782Z" fill="#FFFCFC"/>
<path d="M35.1645 42.4151V42.7492H32.995V42.4151H35.1645Z" fill="#FFFCFC"/>
<path d="M40.6183 43.5318H40.9898C40.9439 43.9986 40.8186 44.3922 40.6137 44.7126C40.4088 45.0299 40.1336 45.2709 39.788 45.4357C39.4456 45.5974 39.0419 45.6782 38.5771 45.6782C38.2071 45.6782 37.8708 45.608 37.568 45.4677C37.2684 45.3243 37.01 45.1229 36.7929 44.8636C36.5788 44.6012 36.4137 44.2885 36.2975 43.9254C36.1813 43.5623 36.1232 43.1611 36.1232 42.7217V41.7881C36.1232 41.3457 36.1813 40.9445 36.2975 40.5845C36.4137 40.2214 36.5788 39.9102 36.7929 39.6509C37.01 39.3885 37.2699 39.1871 37.5726 39.0467C37.8784 38.9033 38.2194 38.8316 38.5955 38.8316C39.0511 38.8316 39.4502 38.9125 39.7926 39.0742C40.1351 39.2359 40.4088 39.4769 40.6137 39.7973C40.8186 40.1146 40.9439 40.5067 40.9898 40.9735H40.6183C40.5724 40.586 40.4669 40.2595 40.3018 39.9941C40.1397 39.7256 39.9165 39.5212 39.6321 39.3808C39.3477 39.2405 39.0022 39.1703 38.5955 39.1703C38.2744 39.1703 37.9854 39.2329 37.7286 39.358C37.4717 39.48 37.2515 39.657 37.0681 39.8888C36.8846 40.1177 36.7424 40.3923 36.6415 40.7126C36.5436 41.0299 36.4947 41.3854 36.4947 41.779V42.7217C36.4947 43.1092 36.5436 43.4647 36.6415 43.7881C36.7393 44.1084 36.8785 44.3846 37.0589 44.6164C37.2393 44.8453 37.4579 45.0238 37.7148 45.1519C37.9717 45.277 38.2591 45.3395 38.5771 45.3395C38.9838 45.3395 39.3309 45.2755 39.6183 45.1473C39.9058 45.0161 40.1321 44.8163 40.2972 44.5478C40.4654 44.2793 40.5724 43.9406 40.6183 43.5318Z" fill="#FFFCFC"/>
<path d="M41.9897 43.1977V43.0238C41.9897 42.6607 42.0417 42.3282 42.1457 42.0261C42.2527 41.724 42.4025 41.4632 42.5952 41.2435C42.7878 41.0208 43.0172 40.8484 43.2832 40.7264C43.5523 40.6043 43.8504 40.5433 44.1776 40.5433C44.5048 40.5433 44.803 40.6043 45.0721 40.7264C45.3412 40.8484 45.572 41.0208 45.7647 41.2435C45.9604 41.4632 46.1102 41.724 46.2142 42.0261C46.3182 42.3282 46.3701 42.6607 46.3701 43.0238V43.1977C46.3701 43.5608 46.3182 43.8933 46.2142 44.1954C46.1102 44.4975 45.9619 44.7598 45.7693 44.9826C45.5766 45.2022 45.3457 45.3731 45.0767 45.4951C44.8106 45.6172 44.514 45.6782 44.1868 45.6782C43.8566 45.6782 43.5569 45.6172 43.2878 45.4951C43.0218 45.3731 42.7909 45.2022 42.5952 44.9826C42.4025 44.7598 42.2527 44.4975 42.1457 44.1954C42.0417 43.8933 41.9897 43.5608 41.9897 43.1977ZM42.3567 43.0238V43.1977C42.3567 43.4845 42.3964 43.7576 42.4759 44.0169C42.5585 44.2732 42.6777 44.502 42.8337 44.7034C42.9897 44.9017 43.1808 45.0588 43.4071 45.1748C43.6333 45.2877 43.8933 45.3441 44.1868 45.3441C44.4743 45.3441 44.7311 45.2877 44.9574 45.1748C45.1837 45.0588 45.3733 44.9017 45.5262 44.7034C45.6821 44.502 45.7998 44.2732 45.8793 44.0169C45.9619 43.7576 46.0032 43.4845 46.0032 43.1977V43.0238C46.0032 42.7431 45.9619 42.4746 45.8793 42.2183C45.7998 41.962 45.6821 41.7332 45.5262 41.5318C45.3702 41.3305 45.1791 41.1718 44.9528 41.0559C44.7265 40.9369 44.4681 40.8774 44.1776 40.8774C43.8871 40.8774 43.6287 40.9369 43.4025 41.0559C43.1792 41.1718 42.9881 41.3305 42.8291 41.5318C42.6732 41.7332 42.5554 41.962 42.4759 42.2183C42.3964 42.4746 42.3567 42.7431 42.3567 43.0238Z" fill="#FFFCFC"/>
<path d="M50.6267 44.6759V42.1176C50.6267 41.8583 50.5717 41.6356 50.4616 41.4495C50.3515 41.2633 50.191 41.1215 49.98 41.0238C49.769 40.9231 49.5106 40.8728 49.2048 40.8728C48.9204 40.8728 48.6651 40.9231 48.4388 41.0238C48.2156 41.1215 48.0397 41.2557 47.9113 41.4266C47.7829 41.5974 47.7187 41.7881 47.7187 41.9986L47.3517 41.9941C47.3517 41.8049 47.3961 41.6234 47.4847 41.4495C47.5765 41.2755 47.7049 41.1215 47.87 40.9872C48.0382 40.8499 48.2354 40.7416 48.4617 40.6623C48.6911 40.583 48.9418 40.5433 49.214 40.5433C49.5626 40.5433 49.8699 40.6028 50.1359 40.7218C50.405 40.8377 50.6145 41.0132 50.7643 41.2481C50.9141 41.483 50.9891 41.7759 50.9891 42.1268V44.5707C50.9891 44.7476 51.0013 44.9261 51.0258 45.1061C51.0502 45.2862 51.0839 45.4311 51.1267 45.5409V45.5867H50.7276C50.694 45.4707 50.668 45.3289 50.6496 45.1611C50.6343 44.9933 50.6267 44.8315 50.6267 44.6759ZM50.746 42.7767L50.7551 43.0924H49.5442C49.2384 43.0924 48.9647 43.1214 48.7232 43.1794C48.4816 43.2374 48.2767 43.3197 48.1085 43.4265C47.9404 43.5333 47.8119 43.6599 47.7232 43.8064C47.6346 43.9528 47.5902 44.1176 47.5902 44.3007C47.5902 44.4898 47.6407 44.6637 47.7416 44.8224C47.8425 44.981 47.9847 45.1077 48.1682 45.2022C48.3516 45.2938 48.5642 45.3395 48.8057 45.3395C49.136 45.3395 49.428 45.2831 49.6818 45.1702C49.9387 45.0543 50.1543 44.8987 50.3286 44.7034C50.5029 44.5051 50.6298 44.2763 50.7093 44.0169L50.8698 44.2824C50.8178 44.4441 50.7368 44.6073 50.6267 44.772C50.5166 44.9368 50.3744 45.0878 50.2001 45.2251C50.0258 45.3594 49.821 45.4692 49.5855 45.5546C49.35 45.637 49.0825 45.6782 48.7828 45.6782C48.4678 45.6782 48.1926 45.6202 47.9572 45.5043C47.7248 45.3853 47.5444 45.2236 47.4159 45.0192C47.2875 44.8117 47.2233 44.5753 47.2233 44.3098C47.2233 44.081 47.2753 43.872 47.3792 43.6828C47.4832 43.4937 47.633 43.332 47.8287 43.1977C48.0275 43.0604 48.2676 42.9567 48.5489 42.8865C48.8333 42.8133 49.1528 42.7767 49.5075 42.7767H50.746Z" fill="#FFFCFC"/>
<path d="M54.2824 45.3441C54.5301 45.3441 54.764 45.2984 54.9842 45.2068C55.2074 45.1153 55.3924 44.9765 55.5392 44.7904C55.689 44.6012 55.7731 44.3617 55.7915 44.0718H56.1492C56.1339 44.4013 56.0392 44.6866 55.8649 44.9277C55.6906 45.1656 55.4658 45.3502 55.1906 45.4814C54.9154 45.6126 54.6127 45.6782 54.2824 45.6782C53.9522 45.6782 53.6571 45.6172 53.3971 45.4951C53.1403 45.3731 52.9247 45.2007 52.7504 44.978C52.5761 44.7553 52.4431 44.4944 52.3513 44.1954C52.2627 43.8933 52.2183 43.5638 52.2183 43.2069V43.0146C52.2183 42.6577 52.2627 42.3297 52.3513 42.0307C52.4431 41.7286 52.5761 41.4662 52.7504 41.2435C52.9247 41.0208 53.1388 40.8484 53.3926 40.7264C53.6494 40.6043 53.943 40.5433 54.2732 40.5433C54.6065 40.5433 54.9123 40.6119 55.1906 40.7492C55.4689 40.8835 55.6936 41.0803 55.8649 41.3396C56.0392 41.5959 56.1339 41.9102 56.1492 42.2824H55.7915C55.7762 41.9773 55.6982 41.721 55.5575 41.5135C55.4169 41.3061 55.2334 41.1489 55.0071 41.0421C54.7808 40.9323 54.5362 40.8774 54.2732 40.8774C53.9797 40.8774 53.7259 40.9338 53.5118 41.0467C53.2978 41.1596 53.1219 41.3152 52.9843 41.5135C52.8467 41.7088 52.7458 41.9361 52.6816 42.1954C52.6174 42.4517 52.5853 42.7248 52.5853 43.0146V43.2069C52.5853 43.4998 52.6174 43.7759 52.6816 44.0352C52.7458 44.2915 52.8467 44.5173 52.9843 44.7126C53.1219 44.9078 53.2978 45.0619 53.5118 45.1748C53.7289 45.2877 53.9858 45.3441 54.2824 45.3441Z" fill="#FFFCFC"/>
<path d="M57.6996 38.5571V45.5867H57.3372V38.5571H57.6996ZM57.6308 42.7309L57.4519 42.5204C57.4794 42.258 57.5436 42.0078 57.6445 41.7698C57.7485 41.5318 57.8846 41.3213 58.0528 41.1382C58.224 40.9552 58.4228 40.8103 58.6491 40.7035C58.8784 40.5967 59.1307 40.5433 59.4059 40.5433C59.6536 40.5433 59.8753 40.5784 60.071 40.6486C60.2667 40.7157 60.4318 40.8225 60.5663 40.9689C60.7039 41.1154 60.8079 41.3045 60.8783 41.5364C60.9486 41.7652 60.9837 42.0444 60.9837 42.3739V45.5867H60.6214V42.3739C60.6214 41.9834 60.5679 41.6813 60.4608 41.4678C60.3538 41.2511 60.204 41.0986 60.0113 41.0101C59.8218 40.9216 59.6001 40.8774 59.3463 40.8774C59.0527 40.8774 58.7989 40.943 58.5848 41.0742C58.3738 41.2023 58.1995 41.3655 58.0619 41.5639C57.9243 41.7591 57.8188 41.962 57.7455 42.1726C57.6751 42.3831 57.6369 42.5692 57.6308 42.7309Z" fill="#FFFCFC"/>
<path d="M65.41 38.9232V45.5867H65.0385V38.9232H65.41Z" fill="#FFFCFC"/>
<path d="M71.5885 43.5318H71.96C71.9141 43.9986 71.7888 44.3922 71.5839 44.7126C71.379 45.0299 71.1038 45.2709 70.7583 45.4357C70.4158 45.5974 70.0121 45.6782 69.5473 45.6782C69.1773 45.6782 68.841 45.608 68.5382 45.4677C68.2386 45.3243 67.9802 45.1229 67.7631 44.8636C67.549 44.6012 67.3839 44.2885 67.2677 43.9254C67.1515 43.5623 67.0934 43.1611 67.0934 42.7217V41.7881C67.0934 41.3457 67.1515 40.9445 67.2677 40.5845C67.3839 40.2214 67.549 39.9102 67.7631 39.6509C67.9802 39.3885 68.2401 39.1871 68.5428 39.0467C68.8486 38.9033 69.1896 38.8316 69.5657 38.8316C70.0213 38.8316 70.4204 38.9125 70.7629 39.0742C71.1053 39.2359 71.379 39.4769 71.5839 39.7973C71.7888 40.1146 71.9141 40.5067 71.96 40.9735H71.5885C71.5426 40.586 71.4371 40.2595 71.272 39.9941C71.1099 39.7256 70.8867 39.5212 70.6023 39.3808C70.3179 39.2405 69.9724 39.1703 69.5657 39.1703C69.2446 39.1703 68.9556 39.2329 68.6988 39.358C68.4419 39.48 68.2218 39.657 68.0383 39.8888C67.8548 40.1177 67.7126 40.3923 67.6117 40.7126C67.5139 41.0299 67.4649 41.3854 67.4649 41.779V42.7217C67.4649 43.1092 67.5139 43.4647 67.6117 43.7881C67.7096 44.1084 67.8487 44.3846 68.0291 44.6164C68.2095 44.8453 68.4282 45.0238 68.685 45.1519C68.9419 45.277 69.2293 45.3395 69.5473 45.3395C69.954 45.3395 70.3011 45.2755 70.5886 45.1473C70.876 45.0161 71.1023 44.8163 71.2674 44.5478C71.4356 44.2793 71.5426 43.9406 71.5885 43.5318Z" fill="#FFFCFC"/>
<path d="M73.8085 38.9232V45.5867H73.437V38.9232H73.8085ZM77.111 42.0261V42.3739H73.625V42.0261H77.111ZM77.5743 38.9232V39.2618H73.625V38.9232H77.5743Z" fill="#FFFCFC"/>
<path d="M24.7492 20.9103C24.7492 21.4305 24.6435 21.9367 24.4321 22.4287C24.2348 22.9068 23.9389 23.3215 23.5444 23.673C23.1639 24.0104 22.699 24.2283 22.1494 24.3267C22.854 24.4252 23.4458 24.6712 23.9248 25.0649C24.418 25.4445 24.7914 25.9225 25.0451 26.4989C25.3128 27.0753 25.4466 27.708 25.4466 28.3969C25.4466 29.3108 25.2776 30.0559 24.9394 30.6323C24.6012 31.1947 24.1433 31.6305 23.5655 31.9398C22.9878 32.2351 22.3396 32.4389 21.621 32.5514C20.9024 32.6498 20.1697 32.699 19.4229 32.699H15.2379V18.7382C15.2379 18.7241 15.2097 18.6117 15.1534 18.4008C15.1111 18.1899 15.0688 17.972 15.0266 17.747C14.9843 17.5221 14.9561 17.3885 14.942 17.3463H20.0781C20.684 17.3463 21.2617 17.4026 21.8112 17.515C22.3749 17.6135 22.8751 17.7962 23.3119 18.0634C23.7628 18.3305 24.1151 18.696 24.3687 19.16C24.6223 19.6099 24.7492 20.1933 24.7492 20.9103ZM22.699 20.9525C22.699 20.3902 22.5721 19.9543 22.3185 19.645C22.079 19.3357 21.7549 19.1178 21.3462 18.9913C20.9376 18.8647 20.4938 18.8015 20.0147 18.8015H17.2036V23.6941H19.4651C20.1274 23.6941 20.6981 23.6097 21.1772 23.441C21.6562 23.2723 22.0296 22.9911 22.2974 22.5975C22.5651 22.1897 22.699 21.6414 22.699 20.9525ZM23.3542 28.0806C23.3542 27.3635 23.1639 26.7941 22.7835 26.3724C22.4171 25.9365 21.9381 25.6272 21.3462 25.4445C20.7685 25.2476 20.1697 25.1492 19.5497 25.1492H17.2036V31.2439H19.5497C20.2965 31.2439 20.9517 31.1595 21.5153 30.9908C22.0931 30.8081 22.544 30.4847 22.868 30.0207C23.1921 29.5568 23.3542 28.9101 23.3542 28.0806Z" fill="#FFFCFC"/>
<path d="M32.1311 21.9648C32.9765 21.9648 33.6881 22.1405 34.2658 22.492C34.8436 22.8294 35.2733 23.3075 35.5551 23.9261C35.851 24.5306 35.999 25.2406 35.999 26.056C35.999 26.2529 35.9849 26.4567 35.9567 26.6676C35.9426 26.8644 35.9215 27.0753 35.8933 27.3003H29.2143C29.2143 28.6359 29.5102 29.6693 30.102 30.4003C30.6938 31.1314 31.4829 31.497 32.4693 31.497C32.8779 31.497 33.3006 31.4337 33.7374 31.3072C34.1883 31.1806 34.6533 30.9908 35.1324 30.7378L35.7876 31.7922C35.2945 32.1859 34.7379 32.4811 34.1179 32.6779C33.4979 32.8748 32.8709 32.9732 32.2368 32.9732C31.4054 32.9732 30.6797 32.8256 30.0598 32.5303C29.4539 32.221 28.9466 31.8133 28.538 31.3072C28.1434 30.787 27.8475 30.2035 27.6502 29.5568C27.453 28.9101 27.3543 28.2493 27.3543 27.5744C27.3543 26.8715 27.453 26.1896 27.6502 25.5288C27.8475 24.868 28.1434 24.2705 28.538 23.7363C28.9466 23.1879 29.4468 22.7591 30.0386 22.4498C30.6304 22.1265 31.3279 21.9648 32.1311 21.9648ZM31.962 23.2934C31.4829 23.2934 31.0602 23.427 30.6938 23.6941C30.3275 23.9612 30.0316 24.3057 29.8061 24.7274C29.5807 25.1352 29.4257 25.5569 29.3411 25.9928H34.1602C34.1742 25.4023 34.0897 24.9102 33.9065 24.5165C33.7374 24.1088 33.4838 23.8066 33.1456 23.6097C32.8215 23.3988 32.427 23.2934 31.962 23.2934Z" fill="#FFFCFC"/>
<path d="M53.0475 20.9103C53.0475 21.4305 52.9419 21.9367 52.7305 22.4287C52.5332 22.9068 52.2373 23.3215 51.8428 23.673C51.4623 24.0104 50.9973 24.2283 50.4478 24.3267C51.1523 24.4252 51.7441 24.6712 52.2232 25.0649C52.7164 25.4445 53.0898 25.9225 53.3434 26.4989C53.6112 27.0753 53.745 27.708 53.745 28.3969C53.745 29.3108 53.5759 30.0559 53.2378 30.6323C52.8996 31.1947 52.4416 31.6305 51.8639 31.9398C51.2862 32.2351 50.638 32.4389 49.9194 32.5514C49.2008 32.6498 48.4681 32.699 47.7213 32.699H43.5363V18.7382C43.5363 18.7241 43.5081 18.6117 43.4518 18.4008C43.4095 18.1899 43.3672 17.972 43.325 17.747C43.2827 17.5221 43.2545 17.3885 43.2404 17.3463H48.3765C48.9824 17.3463 49.5601 17.4026 50.1096 17.515C50.6733 17.6135 51.1735 17.7962 51.6103 18.0634C52.0612 18.3305 52.4135 18.696 52.6671 19.16C52.9207 19.6099 53.0475 20.1933 53.0475 20.9103ZM50.9973 20.9525C50.9973 20.3902 50.8705 19.9543 50.6169 19.645C50.3774 19.3357 50.0533 19.1178 49.6446 18.9913C49.236 18.8647 48.7921 18.8015 48.3131 18.8015H45.502V23.6941H47.7635C48.4258 23.6941 48.9965 23.6097 49.4755 23.441C49.9546 23.2723 50.328 22.9911 50.5958 22.5975C50.8635 22.1897 50.9973 21.6414 50.9973 20.9525ZM51.6526 28.0806C51.6526 27.3635 51.4623 26.7941 51.0819 26.3724C50.7155 25.9365 50.2364 25.6272 49.6446 25.4445C49.0669 25.2476 48.4681 25.1492 47.8481 25.1492H45.502V31.2439H47.8481C48.5949 31.2439 49.2501 31.1595 49.8137 30.9908C50.3914 30.8081 50.8423 30.4847 51.1664 30.0207C51.4905 29.5568 51.6526 28.9101 51.6526 28.0806Z" fill="#FFFCFC"/>
<path d="M60.4295 21.9648C61.2749 21.9648 61.9865 22.1405 62.5642 22.492C63.1419 22.8294 63.5717 23.3075 63.8535 23.9261C64.1494 24.5306 64.2974 25.2406 64.2974 26.056C64.2974 26.2529 64.2833 26.4567 64.2551 26.6676C64.241 26.8644 64.2199 27.0753 64.1917 27.3003H57.5127C57.5127 28.6359 57.8086 29.6693 58.4004 30.4003C58.9922 31.1314 59.7813 31.497 60.7677 31.497C61.1763 31.497 61.599 31.4337 62.0358 31.3072C62.4867 31.1806 62.9517 30.9908 63.4308 30.7378L64.086 31.7922C63.5928 32.1859 63.0363 32.4811 62.4163 32.6779C61.7963 32.8748 61.1692 32.9732 60.5352 32.9732C59.7038 32.9732 58.9781 32.8256 58.3581 32.5303C57.7522 32.221 57.245 31.8133 56.8363 31.3072C56.4418 30.787 56.1459 30.2035 55.9486 29.5568C55.7514 28.9101 55.6527 28.2493 55.6527 27.5744C55.6527 26.8715 55.7514 26.1896 55.9486 25.5288C56.1459 24.868 56.4418 24.2705 56.8363 23.7363C57.245 23.1879 57.7452 22.7591 58.337 22.4498C58.9288 22.1265 59.6263 21.9648 60.4295 21.9648ZM60.2604 23.2934C59.7813 23.2934 59.3586 23.427 58.9922 23.6941C58.6259 23.9612 58.33 24.3057 58.1045 24.7274C57.8791 25.1352 57.7241 25.5569 57.6395 25.9928H62.4585C62.4726 25.4023 62.3881 24.9102 62.2049 24.5165C62.0358 24.1088 61.7822 23.8066 61.444 23.6097C61.1199 23.3988 60.7254 23.2934 60.2604 23.2934Z" fill="#FFFCFC"/>
<path d="M69.3307 19.2232C69.2321 19.7013 69.1405 20.2004 69.056 20.7206C68.9855 21.2267 68.9362 21.7258 68.908 22.2179H71.6557L71.2964 23.5465H68.908V30.2527C68.908 30.5198 68.9362 30.7589 68.9926 30.9697C69.063 31.1666 69.1757 31.3212 69.3307 31.4337C69.4998 31.5321 69.7323 31.5813 70.0282 31.5813C70.2537 31.5813 70.4791 31.5602 70.7046 31.5181C70.93 31.4759 71.1484 31.4267 71.3598 31.3704L71.6557 32.5514C71.3034 32.6498 70.9653 32.7342 70.6412 32.8045C70.3312 32.8888 69.9719 32.931 69.5632 32.931C68.6614 32.931 68.0344 32.692 67.6821 32.214C67.3299 31.736 67.1537 31.0682 67.1537 30.2105V23.5465H65.5897V22.492C66.0124 22.478 66.3646 22.3655 66.6465 22.1546C66.9283 21.9437 67.1608 21.6766 67.3439 21.3532C67.5271 21.0158 67.6751 20.6643 67.7878 20.2988C67.9005 19.9192 67.9851 19.5607 68.0414 19.2232H69.3307Z" fill="#FFFCFC"/>
<path d="M76.2454 19.2232C76.1467 19.7013 76.0551 20.2004 75.9706 20.7206C75.9001 21.2267 75.8508 21.7258 75.8226 22.2179H78.5703L78.211 23.5465H75.8226V30.2527C75.8226 30.5198 75.8508 30.7589 75.9072 30.9697C75.9776 31.1666 76.0904 31.3212 76.2454 31.4337C76.4145 31.5321 76.647 31.5813 76.9429 31.5813C77.1683 31.5813 77.3938 31.5602 77.6192 31.5181C77.8447 31.4759 78.0631 31.4267 78.2744 31.3704L78.5703 32.5514C78.2181 32.6498 77.8799 32.7342 77.5558 32.8045C77.2458 32.8888 76.8865 32.931 76.4779 32.931C75.5761 32.931 74.949 32.692 74.5968 32.214C74.2445 31.736 74.0684 31.0682 74.0684 30.2105V23.5465H72.5043V22.492C72.927 22.478 73.2793 22.3655 73.5611 22.1546C73.8429 21.9437 74.0754 21.6766 74.2586 21.3532C74.4418 21.0158 74.5897 20.6643 74.7024 20.2988C74.8152 19.9192 74.8997 19.5607 74.9561 19.2232H76.2454Z" fill="#FFFCFC"/>
<path d="M84.3933 21.9648C85.2388 21.9648 85.9503 22.1405 86.5281 22.492C87.1058 22.8294 87.5356 23.3075 87.8174 23.9261C88.1133 24.5306 88.2612 25.2406 88.2612 26.056C88.2612 26.2529 88.2471 26.4567 88.219 26.6676C88.2049 26.8644 88.1837 27.0753 88.1555 27.3003H81.4765C81.4765 28.6359 81.7725 29.6693 82.3643 30.4003C82.9561 31.1314 83.7452 31.497 84.7315 31.497C85.1401 31.497 85.5629 31.4337 85.9997 31.3072C86.4506 31.1806 86.9156 30.9908 87.3946 30.7378L88.0499 31.7922C87.5567 32.1859 87.0001 32.4811 86.3801 32.6779C85.7601 32.8748 85.1331 32.9732 84.499 32.9732C83.6677 32.9732 82.942 32.8256 82.322 32.5303C81.7161 32.221 81.2088 31.8133 80.8002 31.3072C80.4057 30.787 80.1097 30.2035 79.9125 29.5568C79.7152 28.9101 79.6166 28.2493 79.6166 27.5744C79.6166 26.8715 79.7152 26.1896 79.9125 25.5288C80.1097 24.868 80.4057 24.2705 80.8002 23.7363C81.2088 23.1879 81.709 22.7591 82.3009 22.4498C82.8927 22.1265 83.5902 21.9648 84.3933 21.9648ZM84.2242 23.2934C83.7452 23.2934 83.3224 23.427 82.9561 23.6941C82.5897 23.9612 82.2938 24.3057 82.0684 24.7274C81.8429 25.1352 81.6879 25.5569 81.6034 25.9928H86.4224C86.4365 25.4023 86.3519 24.9102 86.1688 24.5165C85.9997 24.1088 85.746 23.8066 85.4079 23.6097C85.0838 23.3988 84.6892 23.2934 84.2242 23.2934Z" fill="#FFFCFC"/>
<path d="M92.0687 22.0281C92.3223 22.6467 92.4844 23.3004 92.5548 23.9893C92.9212 23.4129 93.4144 22.9419 94.0343 22.5764C94.6543 22.2108 95.3095 22.0281 96 22.0281L95.5773 23.8839C94.9009 23.8839 94.3232 24.0596 93.8441 24.4111C93.3791 24.7626 92.9635 25.2055 92.5971 25.7397V32.699H90.8428V25.107C90.8428 24.8259 90.8217 24.5095 90.7794 24.158C90.7371 23.8066 90.6667 23.4621 90.568 23.1247C90.4694 22.7873 90.3355 22.499 90.1664 22.26L92.0687 22.0281Z" fill="#FFFCFC"/>
<path d="M47.881 53.671C47.405 54.0347 46.929 54.3984 46.4531 54.7621C45.9771 55.1259 45.6065 55.3683 45.0251 55.732C38.2423 59.9753 30.3886 60.9452 23.1298 59.1266C15.9901 57.3081 9.44531 52.7011 5.28045 45.7907C1.11559 38.8803 0.0446262 30.8787 1.82957 23.4833C3.61451 16.0879 8.01736 9.54119 14.9191 5.29793C20.1549 2.1458 25.9857 0.69097 31.8165 1.05468C37.6473 1.41839 43.2402 3.60063 48 7.48018L47.762 7.84388C43.0022 4.08557 37.4094 1.90333 31.6976 1.53962C25.9857 1.17591 20.1549 2.50951 15.1571 5.66164C8.37434 9.78366 3.97149 16.3304 2.18655 23.6045C0.52061 30.8787 1.47258 38.759 5.51844 45.5482C9.5643 52.4587 15.9901 56.9444 23.1298 58.7629C30.2696 60.5815 38.0043 59.6116 44.6681 55.3683C45.2777 54.9802 45.6201 54.7621 46.0961 54.3984C46.5721 54.0347 47.048 53.671 47.524 53.3073L47.881 53.671Z" stroke="#FFFDFD" stroke-width="0.8" stroke-miterlimit="10" stroke-linecap="round" stroke-linejoin="round"/>
</svg>
